Lack Line-Italic.ufo
<glyph name="exclam" format="1">
  <advance width="340"/>
  <unicode hex="0021"/>
  <note>
    exclam
  </note>
  <outline>
    <contour>
      <point x="103" y="253" type="line"/>
      <point x="236" y="253" type="line"/>
      <point x="341" y="707" type="line"/>
      <point x="208" y="707" type="line"/>
    </contour>
    <contour>
      <point x="123" y="269" type="line"/>
      <point x="220" y="691" type="line"/>
      <point x="321" y="691" type="line"/>
      <point x="224" y="269" type="line"/>
    </contour>
    <contour>
      <point x="109" y="-15" type="curve" smooth="yes"/>
      <point x="158" y="-15"/>
      <point x="204" y="23"/>
      <point x="215" y="71" type="curve" smooth="yes"/>
      <point x="226" y="120"/>
      <point x="195" y="161"/>
      <point x="146" y="161" type="curve" smooth="yes"/>
      <point x="97" y="161"/>
      <point x="50" y="123"/>
      <point x="39" y="75" type="curve" smooth="yes"/>
      <point x="28" y="24"/>
      <point x="58" y="-15"/>
    </contour>
    <contour>
      <point x="109" y="1" type="curve" smooth="yes"/>
      <point x="68" y="1"/>
      <point x="46" y="30"/>
      <point x="55" y="71" type="curve" smooth="yes"/>
      <point x="64" y="112"/>
      <point x="105" y="145"/>
      <point x="146" y="145" type="curve" smooth="yes"/>
      <point x="185" y="145"/>
      <point x="208" y="114"/>
      <point x="199" y="75" type="curve" smooth="yes"/>
      <point x="190" y="34"/>
      <point x="150" y="1"/>
    </contour>
  </outline>
</glyph>
<glyph name="quotedbl" format="1">
  <advance width="365"/>
  <unicode hex="0022"/>
  <note>
    quotedbl
  </note>
  <outline>
    <contour>
      <point x="268" y="444" type="line"/>
      <point x="360" y="444" type="line"/>
      <point x="437" y="706" type="line"/>
      <point x="310" y="706" type="line"/>
    </contour>
    <contour>
      <point x="286" y="460" type="line"/>
      <point x="324" y="690" type="line"/>
      <point x="415" y="690" type="line"/>
      <point x="348" y="460" type="line"/>
    </contour>
    <contour>
      <point x="92" y="444" type="line"/>
      <point x="184" y="444" type="line"/>
      <point x="261" y="706" type="line"/>
      <point x="134" y="706" type="line"/>
    </contour>
    <contour>
      <point x="110" y="460" type="line"/>
      <point x="148" y="690" type="line"/>
      <point x="239" y="690" type="line"/>
      <point x="172" y="460" type="line"/>
    </contour>
  </outline>
</glyph>
<glyph name="numbersign" format="1">
  <advance width="704"/>
  <unicode hex="0023"/>
  <note>
    numbersign
  </note>
  <outline>
    <contour>
      <point x="-19" y="-10" type="line"/>
      <point x="117" y="-10" type="line"/>
      <point x="234" y="180" type="line"/>
      <point x="317" y="180" type="line"/>
      <point x="200" y="-10" type="line"/>
      <point x="335" y="-10" type="line"/>
      <point x="452" y="180" type="line"/>
      <point x="631" y="180" type="line"/>
      <point x="658" y="298" type="line"/>
      <point x="525" y="298" type="line"/>
      <point x="567" y="365" type="line"/>
      <point x="716" y="365" type="line"/>
      <point x="744" y="483" type="line"/>
      <point x="640" y="483" type="line"/>
      <point x="747" y="657" type="line"/>
      <point x="612" y="657" type="line"/>
      <point x="505" y="483" type="line"/>
      <point x="422" y="483" type="line"/>
      <point x="529" y="657" type="line"/>
      <point x="394" y="657" type="line"/>
      <point x="287" y="483" type="line"/>
      <point x="111" y="483" type="line"/>
      <point x="83" y="365" type="line"/>
      <point x="214" y="365" type="line"/>
      <point x="172" y="298" type="line"/>
      <point x="25" y="298" type="line"/>
      <point x="-2" y="180" type="line"/>
      <point x="101" y="180" type="line"/>
    </contour>
    <contour>
      <point x="11" y="6" type="line"/>
      <point x="131" y="196" type="line"/>
      <point x="18" y="196" type="line"/>
      <point x="37" y="282" type="line"/>
      <point x="180" y="282" type="line"/>
      <point x="242" y="381" type="line"/>
      <point x="103" y="381" type="line"/>
      <point x="123" y="467" type="line"/>
      <point x="295" y="467" type="line"/>
      <point x="402" y="641" type="line"/>
      <point x="501" y="641" type="line"/>
      <point x="394" y="467" type="line"/>
      <point x="513" y="467" type="line"/>
      <point x="620" y="641" type="line"/>
      <point x="719" y="641" type="line"/>
      <point x="612" y="467" type="line"/>
      <point x="724" y="467" type="line"/>
      <point x="704" y="381" type="line"/>
      <point x="559" y="381" type="line"/>
      <point x="497" y="282" type="line"/>
      <point x="638" y="282" type="line"/>
      <point x="619" y="196" type="line"/>
      <point x="444" y="196" type="line"/>
      <point x="327" y="6" type="line"/>
      <point x="228" y="6" type="line"/>
      <point x="345" y="196" type="line"/>
      <point x="226" y="196" type="line"/>
      <point x="109" y="6" type="line"/>
    </contour>
    <contour>
      <point x="307" y="298" type="line"/>
      <point x="349" y="365" type="line"/>
      <point x="432" y="365" type="line"/>
      <point x="390" y="298" type="line"/>
    </contour>
    <contour>
      <point x="279" y="282" type="line"/>
      <point x="398" y="282" type="line"/>
      <point x="460" y="381" type="line"/>
      <point x="341" y="381" type="line"/>
    </contour>
  </outline>
</glyph>
<glyph name="dollar" format="1">
  <advance width="582"/>
  <unicode hex="0024"/>
  <note>
    dollar
  </note>
  <outline>
    <contour>
      <point x="148" y="-91" type="line"/>
      <point x="273" y="-91" type="line"/>
      <point x="290" y="-19" type="line"/>
      <point x="407" y="-1"/>
      <point x="492" y="72"/>
      <point x="517" y="177" type="curve" smooth="yes"/>
      <point x="545" y="301"/>
      <point x="483" y="351"/>
      <point x="359" y="407" type="curve" smooth="yes"/>
      <point x="275" y="445"/>
      <point x="241" y="461"/>
      <point x="254" y="515" type="curve" smooth="yes"/>
      <point x="263" y="559"/>
      <point x="313" y="586"/>
      <point x="387" y="587" type="curve" smooth="yes"/>
      <point x="460" y="587"/>
      <point x="524" y="558"/>
      <point x="555" y="512" type="curve"/>
      <point x="587" y="650" type="line"/>
      <point x="562" y="671"/>
      <point x="525" y="688"/>
      <point x="486" y="697" type="curve"/>
      <point x="499" y="758" type="line"/>
      <point x="374" y="758" type="line"/>
      <point x="362" y="705" type="line"/>
      <point x="239" y="693"/>
      <point x="149" y="622"/>
      <point x="126" y="519" type="curve" smooth="yes"/>
      <point x="97" y="395"/>
      <point x="157" y="344"/>
      <point x="279" y="288" type="curve" smooth="yes"/>
      <point x="362" y="250"/>
      <point x="400" y="228"/>
      <point x="389" y="182" type="curve" smooth="yes"/>
      <point x="376" y="124"/>
      <point x="323" y="95"/>
      <point x="232" y="95" type="curve" smooth="yes"/>
      <point x="150" y="95"/>
      <point x="69" y="128"/>
      <point x="20" y="182" type="curve"/>
      <point x="-11" y="52" type="line"/>
      <point x="18" y="18"/>
      <point x="88" y="-10"/>
      <point x="164" y="-20" type="curve"/>
    </contour>
    <contour>
      <point x="168" y="-75" type="line"/>
      <point x="184" y="-6" type="line"/>
      <point x="109" y="0"/>
      <point x="38" y="26"/>
      <point x="7" y="56" type="curve"/>
      <point x="29" y="151" type="line"/>
      <point x="82" y="106"/>
      <point x="156" y="79"/>
      <point x="232" y="79" type="curve" smooth="yes"/>
      <point x="330" y="79"/>
      <point x="389" y="113"/>
      <point x="405" y="178" type="curve" smooth="yes"/>
      <point x="418" y="236"/>
      <point x="370" y="264"/>
      <point x="285" y="302" type="curve" smooth="yes"/>
      <point x="165" y="358"/>
      <point x="115" y="401"/>
      <point x="142" y="515" type="curve" smooth="yes"/>
      <point x="164" y="615"/>
      <point x="252" y="682"/>
      <point x="374" y="690" type="curve"/>
      <point x="386" y="742" type="line"/>
      <point x="479" y="742" type="line"/>
      <point x="466" y="685" type="line"/>
      <point x="505" y="678"/>
      <point x="542" y="663"/>
      <point x="569" y="644" type="curve"/>
      <point x="547" y="546" type="line"/>
      <point x="509" y="582"/>
      <point x="450" y="603"/>
      <point x="387" y="603" type="curve" smooth="yes"/>
      <point x="305" y="602"/>
      <point x="250" y="571"/>
      <point x="238" y="519" type="curve" smooth="yes"/>
      <point x="223" y="453"/>
      <point x="269" y="431"/>
      <point x="353" y="393" type="curve" smooth="yes"/>
      <point x="475" y="337"/>
      <point x="527" y="295"/>
      <point x="501" y="181" type="curve" smooth="yes"/>
      <point x="477" y="79"/>
      <point x="394" y="9"/>
      <point x="276" y="-5" type="curve"/>
      <point x="261" y="-75" type="line"/>
    </contour>
  </outline>
</glyph>
<glyph name="percent" format="1">
  <advance width="721"/>
  <unicode hex="0025"/>
  <note>
    percent
  </note>
  <outline>
    <contour>
      <point x="41" y="-24" type="line"/>
      <point x="157" y="-24" type="line"/>
      <point x="715" y="705" type="line"/>
      <point x="599" y="705" type="line"/>
    </contour>
    <contour>
      <point x="73" y="-8" type="line"/>
      <point x="607" y="689" type="line"/>
      <point x="683" y="689" type="line"/>
      <point x="149" y="-8" type="line"/>
    </contour>
    <contour>
      <point x="451" y="-24" type="curve" smooth="yes"/>
      <point x="536" y="-24"/>
      <point x="620" y="44"/>
      <point x="639" y="127" type="curve" smooth="yes"/>
      <point x="659" y="213"/>
      <point x="604" y="284"/>
      <point x="518" y="284" type="curve" smooth="yes"/>
      <point x="434" y="284"/>
      <point x="351" y="216"/>
      <point x="331" y="131" type="curve" smooth="yes"/>
      <point x="312" y="46"/>
      <point x="366" y="-24"/>
    </contour>
    <contour>
      <point x="451" y="-8" type="curve" smooth="yes"/>
      <point x="376" y="-8"/>
      <point x="330" y="52"/>
      <point x="347" y="127" type="curve" smooth="yes"/>
      <point x="365" y="205"/>
      <point x="442" y="268"/>
      <point x="518" y="268" type="curve" smooth="yes"/>
      <point x="594" y="268"/>
      <point x="641" y="207"/>
      <point x="623" y="131" type="curve" smooth="yes"/>
      <point x="606" y="55"/>
      <point x="528" y="-8"/>
    </contour>
    <contour>
      <point x="467" y="62" type="curve" smooth="yes"/>
      <point x="431" y="62"/>
      <point x="409" y="91"/>
      <point x="417" y="127" type="curve" smooth="yes"/>
      <point x="426" y="166"/>
      <point x="465" y="198"/>
      <point x="502" y="198" type="curve" smooth="yes"/>
      <point x="539" y="198"/>
      <point x="562" y="168"/>
      <point x="553" y="131" type="curve" smooth="yes"/>
      <point x="545" y="94"/>
      <point x="505" y="62"/>
    </contour>
    <contour>
      <point x="467" y="46" type="curve" smooth="yes"/>
      <point x="513" y="46"/>
      <point x="559" y="83"/>
      <point x="569" y="127" type="curve" smooth="yes"/>
      <point x="580" y="174"/>
      <point x="549" y="214"/>
      <point x="502" y="214" type="curve" smooth="yes"/>
      <point x="457" y="214"/>
      <point x="412" y="177"/>
      <point x="401" y="131" type="curve" smooth="yes"/>
      <point x="391" y="85"/>
      <point x="421" y="46"/>
    </contour>
    <contour>
      <point x="239" y="399" type="curve" smooth="yes"/>
      <point x="324" y="399"/>
      <point x="408" y="466"/>
      <point x="428" y="550" type="curve" smooth="yes"/>
      <point x="447" y="637"/>
      <point x="393" y="707"/>
      <point x="307" y="707" type="curve" smooth="yes"/>
      <point x="223" y="707"/>
      <point x="139" y="638"/>
      <point x="120" y="554" type="curve" smooth="yes"/>
      <point x="100" y="469"/>
      <point x="154" y="399"/>
    </contour>
    <contour>
      <point x="239" y="415" type="curve" smooth="yes"/>
      <point x="164" y="415"/>
      <point x="118" y="475"/>
      <point x="136" y="550" type="curve" smooth="yes"/>
      <point x="153" y="627"/>
      <point x="231" y="691"/>
      <point x="307" y="691" type="curve" smooth="yes"/>
      <point x="382" y="691"/>
      <point x="429" y="630"/>
      <point x="412" y="554" type="curve" smooth="yes"/>
      <point x="394" y="477"/>
      <point x="316" y="415"/>
    </contour>
    <contour>
      <point x="255" y="485" type="curve" smooth="yes"/>
      <point x="219" y="485"/>
      <point x="197" y="514"/>
      <point x="206" y="550" type="curve"/>
      <point x="214" y="588"/>
      <point x="253" y="621"/>
      <point x="291" y="621" type="curve" smooth="yes"/>
      <point x="327" y="621"/>
      <point x="350" y="591"/>
      <point x="342" y="554" type="curve" smooth="yes"/>
      <point x="333" y="517"/>
      <point x="293" y="485"/>
    </contour>
    <contour>
      <point x="255" y="469" type="curve" smooth="yes"/>
      <point x="301" y="469"/>
      <point x="347" y="505"/>
      <point x="358" y="550" type="curve" smooth="yes"/>
      <point x="368" y="598"/>
      <point x="338" y="637"/>
      <point x="291" y="637" type="curve" smooth="yes"/>
      <point x="246" y="637"/>
      <point x="200" y="599"/>
      <point x="190" y="554" type="curve" smooth="yes"/>
      <point x="179" y="508"/>
      <point x="209" y="469"/>
    </contour>
  </outline>
</glyph>
<glyph name="ampersand" format="1">
  <advance width="709"/>
  <unicode hex="0026"/>
  <note>
    ampersand
  </note>
  <outline>
    <contour>
      <point x="206" y="-23" type="curve" smooth="yes"/>
      <point x="287" y="-23"/>
      <point x="361" y="2"/>
      <point x="427" y="51" type="curve"/>
      <point x="436" y="39"/>
      <point x="445" y="27"/>
      <point x="453" y="15" type="curve" smooth="yes"/>
      <point x="458" y="7"/>
      <point x="464" y="-2"/>
      <point x="469" y="-8" type="curve"/>
      <point x="625" y="-8" type="line"/>
      <point x="523" y="130" type="line"/>
      <point x="591" y="189" type="line"/>
      <point x="623" y="329" type="line"/>
      <point x="469" y="203" type="line"/>
      <point x="373" y="340" type="line"/>
      <point x="473" y="397"/>
      <point x="543" y="468"/>
      <point x="558" y="532" type="curve" smooth="yes"/>
      <point x="581" y="639"/>
      <point x="525" y="703"/>
      <point x="407" y="703" type="curve" smooth="yes"/>
      <point x="285" y="703"/>
      <point x="198" y="635"/>
      <point x="171" y="519" type="curve" smooth="yes"/>
      <point x="160" y="468"/>
      <point x="168" y="423"/>
      <point x="201" y="363" type="curve"/>
      <point x="88" y="309"/>
      <point x="30" y="252"/>
      <point x="12" y="174" type="curve" smooth="yes"/>
      <point x="-2" y="113"/>
      <point x="9" y="64"/>
      <point x="45" y="28" type="curve"/>
      <point x="83" y="-6"/>
      <point x="136" y="-23"/>
    </contour>
    <contour>
      <point x="206" y="-7" type="curve" smooth="yes"/>
      <point x="139" y="-7"/>
      <point x="91" y="9"/>
      <point x="56" y="40" type="curve"/>
      <point x="24" y="71"/>
      <point x="15" y="114"/>
      <point x="28" y="170" type="curve" smooth="yes"/>
      <point x="45" y="246"/>
      <point x="104" y="302"/>
      <point x="223" y="355" type="curve"/>
      <point x="185" y="422"/>
      <point x="175" y="465"/>
      <point x="187" y="515" type="curve" smooth="yes"/>
      <point x="212" y="624"/>
      <point x="293" y="687"/>
      <point x="407" y="687" type="curve" smooth="yes"/>
      <point x="514" y="687"/>
      <point x="564" y="632"/>
      <point x="542" y="536" type="curve" smooth="yes"/>
      <point x="527" y="474"/>
      <point x="454" y="401"/>
      <point x="349" y="346" type="curve"/>
      <point x="465" y="179" type="line"/>
      <point x="597" y="287" type="line"/>
      <point x="577" y="197" type="line"/>
      <point x="501" y="132" type="line"/>
      <point x="593" y="8" type="line"/>
      <point x="477" y="8" type="line"/>
      <point x="474" y="13"/>
      <point x="470" y="18"/>
      <point x="466" y="24" type="curve" smooth="yes"/>
      <point x="455" y="40"/>
      <point x="443" y="58"/>
      <point x="429" y="73" type="curve"/>
      <point x="362" y="19"/>
      <point x="288" y="-7"/>
    </contour>
    <contour>
      <point x="242" y="88" type="curve" smooth="yes"/>
      <point x="164" y="88"/>
      <point x="128" y="118"/>
      <point x="140" y="169" type="curve" smooth="yes"/>
      <point x="150" y="216"/>
      <point x="190" y="259"/>
      <point x="247" y="285" type="curve"/>
      <point x="367" y="128" type="line"/>
      <point x="327" y="102"/>
      <point x="285" y="88"/>
    </contour>
    <contour>
      <point x="242" y="72" type="curve" smooth="yes"/>
      <point x="293" y="72"/>
      <point x="342" y="90"/>
      <point x="390" y="124" type="curve"/>
      <point x="253" y="305" type="line"/>
      <point x="184" y="277"/>
      <point x="136" y="228"/>
      <point x="124" y="173" type="curve" smooth="yes"/>
      <point x="110" y="110"/>
      <point x="155" y="72"/>
    </contour>
    <contour>
      <point x="325" y="413" type="curve"/>
      <point x="297" y="454"/>
      <point x="290" y="484"/>
      <point x="300" y="523" type="curve" smooth="yes"/>
      <point x="310" y="567"/>
      <point x="341" y="592"/>
      <point x="385" y="592" type="curve" smooth="yes"/>
      <point x="428" y="592"/>
      <point x="447" y="569"/>
      <point x="437" y="527" type="curve" smooth="yes"/>
      <point x="428" y="488"/>
      <point x="391" y="449"/>
    </contour>
    <contour>
      <point x="320" y="392" type="curve"/>
      <point x="397" y="433"/>
      <point x="442" y="476"/>
      <point x="453" y="523" type="curve" smooth="yes"/>
      <point x="464" y="576"/>
      <point x="439" y="608"/>
      <point x="385" y="608" type="curve" smooth="yes"/>
      <point x="333" y="608"/>
      <point x="296" y="578"/>
      <point x="284" y="527" type="curve" smooth="yes"/>
      <point x="273" y="480"/>
      <point x="282" y="443"/>
    </contour>
  </outline>
</glyph>
<glyph name="quotesingle" format="1">
  <advance width="223"/>
  <unicode hex="0027"/>
  <note>
    quotesingle
  </note>
  <outline>
    <contour>
      <point x="52" y="394" type="line"/>
      <point x="155" y="394" type="line"/>
      <point x="307" y="706" type="line"/>
      <point x="159" y="706" type="line"/>
    </contour>
    <contour>
      <point x="74" y="410" type="line"/>
      <point x="171" y="690" type="line"/>
      <point x="281" y="690" type="line"/>
      <point x="145" y="410" type="line"/>
    </contour>
  </outline>
</glyph>
<glyph name="parenleft" format="1">
  <advance width="368"/>
  <unicode hex="0028"/>
  <note>
    parenleft
  </note>
  <outline>
    <contour>
      <point x="82" y="-126" type="curve"/>
      <point x="90" y="-132" type="line"/>
      <point x="209" y="-132" type="line"/>
      <point x="217" y="-122" type="line"/>
      <point x="217" y="-122"/>
      <point x="156" y="104"/>
      <point x="207" y="322" type="curve" smooth="yes"/>
      <point x="257" y="541"/>
      <point x="414" y="745"/>
      <point x="414" y="745" type="curve"/>
      <point x="408" y="758" type="line"/>
      <point x="291" y="758" type="line"/>
      <point x="285" y="755" type="line"/>
      <point x="285" y="755"/>
      <point x="129" y="548"/>
      <point x="77" y="326" type="curve" smooth="yes"/>
      <point x="26" y="104"/>
      <point x="82" y="-126"/>
    </contour>
    <contour>
      <point x="96" y="-116" type="line"/>
      <point x="88" y="-78"/>
      <point x="47" y="125"/>
      <point x="93" y="322" type="curve" smooth="yes"/>
      <point x="140" y="525"/>
      <point x="275" y="715"/>
      <point x="295" y="742" type="curve"/>
      <point x="392" y="742" type="line"/>
      <point x="357" y="694"/>
      <point x="235" y="516"/>
      <point x="191" y="326" type="curve" smooth="yes"/>
      <point x="146" y="131"/>
      <point x="188" y="-70"/>
      <point x="199" y="-116" type="curve"/>
    </contour>
  </outline>
</glyph>
<glyph name="parenright" format="1">
  <advance width="358"/>
  <unicode hex="0029"/>
  <note>
    parenright
  </note>
  <outline>
    <contour>
      <point x="-24" y="-119" type="curve"/>
      <point x="-17" y="-132" type="line"/>
      <point x="92" y="-132" type="line"/>
      <point x="99" y="-129" type="line"/>
      <point x="99" y="-129"/>
      <point x="259" y="101"/>
      <point x="311" y="322" type="curve" smooth="yes"/>
      <point x="362" y="545"/>
      <point x="301" y="752"/>
      <point x="301" y="752" type="curve"/>
      <point x="293" y="758" type="line"/>
      <point x="186" y="758" type="line"/>
      <point x="178" y="748" type="line"/>
      <point x="178" y="748"/>
      <point x="242" y="545"/>
      <point x="191" y="326" type="curve" smooth="yes"/>
      <point x="141" y="107"/>
      <point x="-24" y="-119"/>
    </contour>
    <contour>
      <point x="-2" y="-116" type="line"/>
      <point x="33" y="-65"/>
      <point x="163" y="131"/>
      <point x="207" y="322" type="curve" smooth="yes"/>
      <point x="252" y="516"/>
      <point x="209" y="698"/>
      <point x="197" y="742" type="curve"/>
      <point x="287" y="742" type="line"/>
      <point x="296" y="707"/>
      <point x="341" y="523"/>
      <point x="295" y="326" type="curve" smooth="yes"/>
      <point x="248" y="123"/>
      <point x="108" y="-87"/>
      <point x="88" y="-116" type="curve"/>
    </contour>
  </outline>
</glyph>
<glyph name="asterisk" format="1">
  <advance width="427"/>
  <unicode hex="002A"/>
  <note>
    asterisk
  </note>
  <outline>
    <contour>
      <point x="183" y="334" type="line"/>
      <point x="278" y="334" type="line"/>
      <point x="299" y="452" type="line"/>
      <point x="381" y="387" type="line"/>
      <point x="447" y="467" type="line"/>
      <point x="354" y="519" type="line"/>
      <point x="470" y="571" type="line"/>
      <point x="441" y="655" type="line"/>
      <point x="331" y="591" type="line"/>
      <point x="364" y="706" type="line"/>
      <point x="269" y="706" type="line"/>
      <point x="249" y="590" type="line"/>
      <point x="167" y="654" type="line"/>
      <point x="101" y="573" type="line"/>
      <point x="193" y="521" type="line"/>
      <point x="78" y="469" type="line"/>
      <point x="107" y="385" type="line"/>
      <point x="217" y="448" type="line"/>
    </contour>
    <contour>
      <point x="205" y="350" type="line"/>
      <point x="243" y="482" type="line"/>
      <point x="115" y="409" type="line"/>
      <point x="98" y="461" type="line"/>
      <point x="229" y="519" type="line"/>
      <point x="125" y="577" type="line"/>
      <point x="169" y="632" type="line"/>
      <point x="261" y="560" type="line"/>
      <point x="283" y="690" type="line"/>
      <point x="342" y="690" type="line"/>
      <point x="305" y="557" type="line"/>
      <point x="433" y="631" type="line"/>
      <point x="450" y="579" type="line"/>
      <point x="318" y="521" type="line"/>
      <point x="423" y="463" type="line"/>
      <point x="379" y="409" type="line"/>
      <point x="287" y="480" type="line"/>
      <point x="264" y="350" type="line"/>
    </contour>
  </outline>
</glyph>
<glyph name="plus" format="1">
  <advance width="677"/>
  <unicode hex="002B"/>
  <note>
    plus
  </note>
  <outline>
    <contour>
      <point x="233" y="92" type="line"/>
      <point x="366" y="92" type="line"/>
      <point x="413" y="295" type="line"/>
      <point x="621" y="295" type="line"/>
      <point x="649" y="414" type="line"/>
      <point x="441" y="414" type="line"/>
      <point x="488" y="617" type="line"/>
      <point x="355" y="617" type="line"/>
      <point x="308" y="414" type="line"/>
      <point x="100" y="414" type="line"/>
      <point x="72" y="295" type="line"/>
      <point x="280" y="295" type="line"/>
    </contour>
    <contour>
      <point x="253" y="108" type="line"/>
      <point x="300" y="311" type="line"/>
      <point x="92" y="311" type="line"/>
      <point x="112" y="398" type="line"/>
      <point x="320" y="398" type="line"/>
      <point x="367" y="601" type="line"/>
      <point x="468" y="601" type="line"/>
      <point x="421" y="398" type="line"/>
      <point x="629" y="398" type="line"/>
      <point x="609" y="311" type="line"/>
      <point x="401" y="311" type="line"/>
      <point x="354" y="108" type="line"/>
    </contour>
  </outline>
</glyph>
<glyph name="period" format="1">
  <advance width="320"/>
  <unicode hex="002E"/>
  <note>
    period
  </note>
  <outline>
    <contour>
      <point x="99" y="-15" type="curve" smooth="yes"/>
      <point x="148" y="-15"/>
      <point x="194" y="23"/>
      <point x="205" y="71" type="curve" smooth="yes"/>
      <point x="216" y="120"/>
      <point x="185" y="161"/>
      <point x="136" y="161" type="curve" smooth="yes"/>
      <point x="87" y="161"/>
      <point x="40" y="123"/>
      <point x="29" y="75" type="curve" smooth="yes"/>
      <point x="18" y="24"/>
      <point x="48" y="-15"/>
    </contour>
    <contour>
      <point x="99" y="1" type="curve" smooth="yes"/>
      <point x="58" y="1"/>
      <point x="36" y="30"/>
      <point x="45" y="71" type="curve" smooth="yes"/>
      <point x="54" y="112"/>
      <point x="95" y="145"/>
      <point x="136" y="145" type="curve" smooth="yes"/>
      <point x="175" y="145"/>
      <point x="198" y="114"/>
      <point x="189" y="75" type="curve" smooth="yes"/>
      <point x="180" y="34"/>
      <point x="140" y="1"/>
    </contour>
  </outline>
</glyph>
<glyph name="slash" format="1">
  <advance width="455"/>
  <unicode hex="002F"/>
  <note>
    slash
  </note>
  <outline>
    <contour>
      <point x="-88" y="-65" type="line"/>
      <point x="58" y="-65" type="line"/>
      <point x="572" y="708" type="line"/>
      <point x="426" y="708" type="line"/>
    </contour>
    <contour>
      <point x="-58" y="-49" type="line"/>
      <point x="434" y="692" type="line"/>
      <point x="542" y="692" type="line"/>
      <point x="50" y="-49" type="line"/>
    </contour>
  </outline>
</glyph>
<glyph name="three" format="1">
  <advance width="586"/>
  <unicode hex="0033"/>
  <note>
    three
  </note>
  <outline>
    <contour>
      <point x="240" y="-23" type="curve" smooth="yes"/>
      <point x="373" y="-23"/>
      <point x="503" y="79"/>
      <point x="533" y="207" type="curve" smooth="yes"/>
      <point x="554" y="302"/>
      <point x="515" y="387"/>
      <point x="433" y="423" type="curve"/>
      <point x="430" y="424" type="line"/>
      <point x="443" y="424" type="line"/>
      <point x="594" y="687" type="line"/>
      <point x="188" y="687" type="line"/>
      <point x="162" y="576" type="line"/>
      <point x="394" y="576" type="line"/>
      <point x="253" y="324" type="line"/>
      <point x="262" y="312" type="line"/>
      <point x="275" y="316"/>
      <point x="301" y="321"/>
      <point x="319" y="321" type="curve" smooth="yes"/>
      <point x="382" y="321"/>
      <point x="418" y="274"/>
      <point x="404" y="211" type="curve" smooth="yes"/>
      <point x="389" y="147"/>
      <point x="328" y="98"/>
      <point x="264" y="98" type="curve" smooth="yes"/>
      <point x="198" y="98"/>
      <point x="161" y="150"/>
      <point x="183" y="217" type="curve"/>
      <point x="53" y="217" type="line"/>
      <point x="18" y="85"/>
      <point x="104" y="-23"/>
    </contour>
    <contour>
      <point x="240" y="-7" type="curve" smooth="yes"/>
      <point x="118" y="-7"/>
      <point x="42" y="85"/>
      <point x="65" y="201" type="curve"/>
      <point x="162" y="201" type="line"/>
      <point x="151" y="134"/>
      <point x="194" y="82"/>
      <point x="264" y="82" type="curve" smooth="yes"/>
      <point x="335" y="82"/>
      <point x="403" y="136"/>
      <point x="420" y="207" type="curve" smooth="yes"/>
      <point x="436" y="280"/>
      <point x="392" y="337"/>
      <point x="319" y="337" type="curve" smooth="yes"/>
      <point x="306" y="337"/>
      <point x="290" y="335"/>
      <point x="276" y="332" type="curve"/>
      <point x="422" y="592" type="line"/>
      <point x="182" y="592" type="line"/>
      <point x="200" y="671" type="line"/>
      <point x="566" y="671" type="line"/>
      <point x="415" y="408" type="line"/>
      <point x="428" y="408" type="line"/>
      <point x="502" y="375"/>
      <point x="537" y="298"/>
      <point x="517" y="211" type="curve" smooth="yes"/>
      <point x="489" y="90"/>
      <point x="365" y="-7"/>
    </contour>
  </outline>
</glyph>
<glyph name="six" format="1">
  <advance width="606"/>
  <unicode hex="0036"/>
  <note>
    six
  </note>
  <outline>
    <contour>
      <point x="240" y="-22" type="curve" smooth="yes"/>
      <point x="373" y="-22"/>
      <point x="503" y="80"/>
      <point x="533" y="208" type="curve" smooth="yes"/>
      <point x="559" y="323"/>
      <point x="495" y="421"/>
      <point x="384" y="440" type="curve"/>
      <point x="634" y="687" type="line"/>
      <point x="478" y="687" type="line"/>
      <point x="153" y="371" type="line" smooth="yes"/>
      <point x="103" y="320"/>
      <point x="66" y="274"/>
      <point x="51" y="212" type="curve" smooth="yes"/>
      <point x="21" y="83"/>
      <point x="106" y="-22"/>
    </contour>
    <contour>
      <point x="240" y="-6" type="curve" smooth="yes"/>
      <point x="116" y="-6"/>
      <point x="39" y="89"/>
      <point x="67" y="208" type="curve" smooth="yes"/>
      <point x="80" y="266"/>
      <point x="115" y="310"/>
      <point x="165" y="359" type="curve" smooth="yes"/>
      <point x="484" y="671" type="line"/>
      <point x="596" y="671" type="line"/>
      <point x="349" y="427" type="line"/>
      <point x="471" y="425"/>
      <point x="544" y="329"/>
      <point x="517" y="212" type="curve" smooth="yes"/>
      <point x="489" y="91"/>
      <point x="365" y="-6"/>
    </contour>
    <contour>
      <point x="264" y="99" type="curve" smooth="yes"/>
      <point x="202" y="99"/>
      <point x="166" y="146"/>
      <point x="180" y="208" type="curve" smooth="yes"/>
      <point x="194" y="272"/>
      <point x="255" y="322"/>
      <point x="320" y="322" type="curve" smooth="yes"/>
      <point x="382" y="322"/>
      <point x="418" y="275"/>
      <point x="404" y="212" type="curve" smooth="yes"/>
      <point x="390" y="149"/>
      <point x="328" y="99"/>
    </contour>
    <contour>
      <point x="264" y="83" type="curve" smooth="yes"/>
      <point x="336" y="83"/>
      <point x="404" y="138"/>
      <point x="420" y="208" type="curve" smooth="yes"/>
      <point x="436" y="282"/>
      <point x="393" y="338"/>
      <point x="320" y="338" type="curve" smooth="yes"/>
      <point x="248" y="338"/>
      <point x="180" y="283"/>
      <point x="164" y="212" type="curve" smooth="yes"/>
      <point x="148" y="139"/>
      <point x="191" y="83"/>
    </contour>
  </outline>
</glyph>
<glyph name="seven" format="1">
  <advance width="530"/>
  <unicode hex="0037"/>
  <note>
    seven
  </note>
  <outline>
    <contour>
      <point x="18" y="-8" type="line"/>
      <point x="165" y="-8" type="line"/>
      <point x="581" y="687" type="line"/>
      <point x="161" y="687" type="line"/>
      <point x="135" y="576" type="line"/>
      <point x="372" y="576" type="line"/>
    </contour>
    <contour>
      <point x="46" y="8" type="line"/>
      <point x="400" y="592" type="line"/>
      <point x="155" y="592" type="line"/>
      <point x="173" y="671" type="line"/>
      <point x="553" y="671" type="line"/>
      <point x="155" y="8" type="line"/>
    </contour>
  </outline>
</glyph>
<glyph name="nine" format="1">
  <advance width="566"/>
  <unicode hex="0039"/>
  <note>
    nine
  </note>
  <outline>
    <contour>
      <point x="-19" y="-8" type="line"/>
      <point x="145" y="-8" type="line"/>
      <point x="520" y="356" type="line"/>
      <point x="516" y="356" type="line"/>
      <point x="544" y="390"/>
      <point x="564" y="429"/>
      <point x="573" y="469" type="curve" smooth="yes"/>
      <point x="603" y="598"/>
      <point x="518" y="703"/>
      <point x="384" y="703" type="curve" smooth="yes"/>
      <point x="251" y="703"/>
      <point x="121" y="601"/>
      <point x="91" y="473" type="curve" smooth="yes"/>
      <point x="66" y="360"/>
      <point x="127" y="263"/>
      <point x="235" y="242" type="curve"/>
    </contour>
    <contour>
      <point x="21" y="8" type="line"/>
      <point x="270" y="253" type="line"/>
      <point x="151" y="259"/>
      <point x="81" y="355"/>
      <point x="107" y="469" type="curve" smooth="yes"/>
      <point x="135" y="590"/>
      <point x="259" y="687"/>
      <point x="384" y="687" type="curve" smooth="yes"/>
      <point x="508" y="687"/>
      <point x="585" y="592"/>
      <point x="557" y="473" type="curve" smooth="yes"/>
      <point x="548" y="431"/>
      <point x="526" y="389"/>
      <point x="493" y="353" type="curve"/>
      <point x="499" y="340" type="line"/>
      <point x="480" y="340" type="line"/>
      <point x="139" y="8" type="line"/>
    </contour>
    <contour>
      <point x="304" y="359" type="curve" smooth="yes"/>
      <point x="242" y="359"/>
      <point x="206" y="406"/>
      <point x="220" y="469" type="curve" smooth="yes"/>
      <point x="234" y="532"/>
      <point x="296" y="582"/>
      <point x="360" y="582" type="curve" smooth="yes"/>
      <point x="422" y="582"/>
      <point x="458" y="535"/>
      <point x="444" y="473" type="curve" smooth="yes"/>
      <point x="430" y="409"/>
      <point x="369" y="359"/>
    </contour>
    <contour>
      <point x="304" y="343" type="curve" smooth="yes"/>
      <point x="376" y="343"/>
      <point x="444" y="398"/>
      <point x="460" y="469" type="curve" smooth="yes"/>
      <point x="476" y="542"/>
      <point x="433" y="598"/>
      <point x="360" y="598" type="curve" smooth="yes"/>
      <point x="288" y="598"/>
      <point x="220" y="543"/>
      <point x="204" y="473" type="curve" smooth="yes"/>
      <point x="188" y="399"/>
      <point x="231" y="343"/>
    </contour>
  </outline>
</glyph>
<glyph name="colon" format="1">
  <advance width="446"/>
  <unicode hex="003A"/>
  <note>
    colon
  </note>
  <outline>
    <contour>
      <point x="237" y="311" type="curve" smooth="yes"/>
      <point x="286" y="311"/>
      <point x="332" y="349"/>
      <point x="343" y="397" type="curve" smooth="yes"/>
      <point x="355" y="446"/>
      <point x="324" y="487"/>
      <point x="274" y="487" type="curve" smooth="yes"/>
      <point x="226" y="487"/>
      <point x="179" y="450"/>
      <point x="167" y="401" type="curve" smooth="yes"/>
      <point x="156" y="350"/>
      <point x="186" y="311"/>
    </contour>
    <contour>
      <point x="237" y="327" type="curve" smooth="yes"/>
      <point x="196" y="327"/>
      <point x="174" y="356"/>
      <point x="183" y="397" type="curve" smooth="yes"/>
      <point x="193" y="439"/>
      <point x="233" y="471"/>
      <point x="274" y="471" type="curve" smooth="yes"/>
      <point x="313" y="471"/>
      <point x="337" y="440"/>
      <point x="327" y="401" type="curve"/>
      <point x="318" y="360"/>
      <point x="278" y="327"/>
    </contour>
    <contour>
      <point x="162" y="-15" type="curve" smooth="yes"/>
      <point x="211" y="-15"/>
      <point x="257" y="23"/>
      <point x="268" y="71" type="curve" smooth="yes"/>
      <point x="279" y="120"/>
      <point x="248" y="161"/>
      <point x="199" y="161" type="curve" smooth="yes"/>
      <point x="150" y="161"/>
      <point x="103" y="123"/>
      <point x="92" y="75" type="curve" smooth="yes"/>
      <point x="81" y="24"/>
      <point x="111" y="-15"/>
    </contour>
    <contour>
      <point x="162" y="1" type="curve" smooth="yes"/>
      <point x="121" y="1"/>
      <point x="99" y="30"/>
      <point x="108" y="71" type="curve" smooth="yes"/>
      <point x="117" y="112"/>
      <point x="158" y="145"/>
      <point x="199" y="145" type="curve" smooth="yes"/>
      <point x="238" y="145"/>
      <point x="261" y="114"/>
      <point x="252" y="75" type="curve" smooth="yes"/>
      <point x="243" y="34"/>
      <point x="203" y="1"/>
    </contour>
  </outline>
</glyph>
<glyph name="semicolon" format="1">
  <advance width="418"/>
  <unicode hex="003B"/>
  <note>
    semicolon
  </note>
  <outline>
    <contour>
      <point x="-55" y="-159" type="line"/>
      <point x="65" y="-159" type="line"/>
      <point x="257" y="113" type="line"/>
      <point x="104" y="113" type="line"/>
    </contour>
    <contour>
      <point x="-27" y="-143" type="line"/>
      <point x="114" y="97" type="line"/>
      <point x="227" y="97" type="line"/>
      <point x="57" y="-143" type="line"/>
    </contour>
    <contour>
      <point x="237" y="311" type="curve" smooth="yes"/>
      <point x="286" y="311"/>
      <point x="332" y="349"/>
      <point x="343" y="397" type="curve" smooth="yes"/>
      <point x="355" y="446"/>
      <point x="324" y="487"/>
      <point x="274" y="487" type="curve" smooth="yes"/>
      <point x="226" y="487"/>
      <point x="179" y="450"/>
      <point x="167" y="401" type="curve" smooth="yes"/>
      <point x="156" y="350"/>
      <point x="186" y="311"/>
    </contour>
    <contour>
      <point x="237" y="327" type="curve" smooth="yes"/>
      <point x="196" y="327"/>
      <point x="174" y="356"/>
      <point x="183" y="397" type="curve" smooth="yes"/>
      <point x="193" y="439"/>
      <point x="233" y="471"/>
      <point x="274" y="471" type="curve" smooth="yes"/>
      <point x="313" y="471"/>
      <point x="337" y="440"/>
      <point x="327" y="401" type="curve"/>
      <point x="318" y="360"/>
      <point x="278" y="327"/>
    </contour>
  </outline>
</glyph>
<glyph name="less" format="1">
  <advance width="539"/>
  <unicode hex="003C"/>
  <note>
    less
  </note>
  <outline>
    <contour>
      <point x="434" y="-13" type="line"/>
      <point x="461" y="104" type="line"/>
      <point x="193" y="282" type="line"/>
      <point x="533" y="411" type="line"/>
      <point x="560" y="530" type="line"/>
      <point x="56" y="321" type="line"/>
      <point x="39" y="246" type="line"/>
    </contour>
    <contour>
      <point x="424" y="13" type="line"/>
      <point x="57" y="254" type="line"/>
      <point x="70" y="309" type="line"/>
      <point x="538" y="504" type="line"/>
      <point x="519" y="423" type="line"/>
      <point x="159" y="286" type="line"/>
      <point x="443" y="96" type="line"/>
    </contour>
  </outline>
</glyph>
<glyph name="equal" format="1">
  <advance width="630"/>
  <unicode hex="003D"/>
  <note>
    equal
  </note>
  <outline>
    <contour>
      <point x="112" y="385" type="line"/>
      <point x="577" y="385" type="line"/>
      <point x="605" y="503" type="line"/>
      <point x="140" y="503" type="line"/>
    </contour>
    <contour>
      <point x="132" y="401" type="line"/>
      <point x="152" y="487" type="line"/>
      <point x="585" y="487" type="line"/>
      <point x="565" y="401" type="line"/>
    </contour>
    <contour>
      <point x="65" y="180" type="line"/>
      <point x="530" y="180" type="line"/>
      <point x="557" y="298" type="line"/>
      <point x="92" y="298" type="line"/>
    </contour>
    <contour>
      <point x="85" y="196" type="line"/>
      <point x="104" y="282" type="line"/>
      <point x="537" y="282" type="line"/>
      <point x="518" y="196" type="line"/>
    </contour>
  </outline>
</glyph>
<glyph name="greater" format="1">
  <advance width="539"/>
  <unicode hex="003E"/>
  <note>
    greater
  </note>
  <outline>
    <contour>
      <point x="-22" y="-15" type="line"/>
      <point x="494" y="245" type="line"/>
      <point x="511" y="319" type="line"/>
      <point x="105" y="529" type="line"/>
      <point x="78" y="412" type="line"/>
      <point x="357" y="284" type="line"/>
      <point x="6" y="105" type="line"/>
    </contour>
    <contour>
      <point x="2" y="15" type="line"/>
      <point x="20" y="95" type="line"/>
      <point x="393" y="284" type="line"/>
      <point x="96" y="422" type="line"/>
      <point x="115" y="505" type="line"/>
      <point x="493" y="311" type="line"/>
      <point x="480" y="255" type="line"/>
    </contour>
  </outline>
</glyph>
<glyph name="question" format="1">
  <advance width="355"/>
  <unicode hex="003F"/>
  <note>
    question
  </note>
  <outline>
    <contour>
      <point x="70" y="213" type="line"/>
      <point x="194" y="213" type="line"/>
      <point x="214" y="294" type="line"/>
      <point x="292" y="333"/>
      <point x="352" y="406"/>
      <point x="371" y="484" type="curve" smooth="yes"/>
      <point x="399" y="609"/>
      <point x="315" y="710"/>
      <point x="185" y="707" type="curve"/>
      <point x="157" y="588" type="line"/>
      <point x="220" y="593"/>
      <point x="258" y="548"/>
      <point x="244" y="488" type="curve" smooth="yes"/>
      <point x="229" y="427"/>
      <point x="170" y="381"/>
      <point x="110" y="384" type="curve"/>
    </contour>
    <contour>
      <point x="90" y="229" type="line"/>
      <point x="122" y="368" type="line"/>
      <point x="185" y="371"/>
      <point x="244" y="420"/>
      <point x="260" y="484" type="curve" smooth="yes"/>
      <point x="274" y="548"/>
      <point x="238" y="599"/>
      <point x="177" y="604" type="curve"/>
      <point x="197" y="691" type="line"/>
      <point x="310" y="688"/>
      <point x="381" y="598"/>
      <point x="355" y="488" type="curve" smooth="yes"/>
      <point x="337" y="412"/>
      <point x="277" y="341"/>
      <point x="200" y="306" type="curve"/>
      <point x="182" y="229" type="line"/>
    </contour>
    <contour>
      <point x="79" y="-15" type="curve" smooth="yes"/>
      <point x="128" y="-15"/>
      <point x="174" y="23"/>
      <point x="185" y="71" type="curve" smooth="yes"/>
      <point x="196" y="120"/>
      <point x="165" y="161"/>
      <point x="116" y="161" type="curve" smooth="yes"/>
      <point x="67" y="161"/>
      <point x="20" y="123"/>
      <point x="9" y="75" type="curve" smooth="yes"/>
      <point x="-2" y="24"/>
      <point x="28" y="-15"/>
    </contour>
    <contour>
      <point x="79" y="1" type="curve" smooth="yes"/>
      <point x="38" y="1"/>
      <point x="16" y="30"/>
      <point x="25" y="71" type="curve" smooth="yes"/>
      <point x="34" y="112"/>
      <point x="75" y="145"/>
      <point x="116" y="145" type="curve" smooth="yes"/>
      <point x="155" y="145"/>
      <point x="178" y="114"/>
      <point x="169" y="75" type="curve" smooth="yes"/>
      <point x="160" y="34"/>
      <point x="120" y="1"/>
    </contour>
  </outline>
</glyph>
<glyph name="at" format="1">
  <advance width="851"/>
  <unicode hex="0040"/>
  <note>
    at
  </note>
  <outline>
    <contour>
      <point x="339" y="-178" type="curve"/>
      <point x="364" y="-70" type="line"/>
      <point x="203" y="-75"/>
      <point x="100" y="52"/>
      <point x="137" y="208" type="curve" smooth="yes"/>
      <point x="172" y="362"/>
      <point x="328" y="490"/>
      <point x="480" y="490" type="curve" smooth="yes"/>
      <point x="653" y="490"/>
      <point x="739" y="387"/>
      <point x="700" y="221" type="curve" smooth="yes"/>
      <point x="690" y="179"/>
      <point x="652" y="112"/>
      <point x="609" y="112" type="curve" smooth="yes"/>
      <point x="592" y="112"/>
      <point x="588" y="121"/>
      <point x="594" y="148" type="curve" smooth="yes"/>
      <point x="654" y="408" type="line"/>
      <point x="552" y="408" type="line"/>
      <point x="547" y="386" type="line"/>
      <point x="525" y="406"/>
      <point x="491" y="418"/>
      <point x="454" y="418" type="curve" smooth="yes"/>
      <point x="340" y="418"/>
      <point x="231" y="331"/>
      <point x="206" y="220" type="curve" smooth="yes"/>
      <point x="180" y="106"/>
      <point x="250" y="17"/>
      <point x="366" y="17" type="curve" smooth="yes"/>
      <point x="407" y="17"/>
      <point x="461" y="39"/>
      <point x="497" y="69" type="curve"/>
      <point x="506" y="37"/>
      <point x="539" y="18"/>
      <point x="586" y="18" type="curve" smooth="yes"/>
      <point x="692" y="18"/>
      <point x="783" y="102"/>
      <point x="812" y="228" type="curve" smooth="yes"/>
      <point x="861" y="443"/>
      <point x="730" y="598"/>
      <point x="502" y="598" type="curve" smooth="yes"/>
      <point x="286" y="598"/>
      <point x="70" y="424"/>
      <point x="21" y="212" type="curve" smooth="yes"/>
      <point x="-29" y="-5"/>
      <point x="114" y="-181"/>
    </contour>
    <contour>
      <point x="327" y="-162" type="line"/>
      <point x="119" y="-159"/>
      <point x="-10" y="6"/>
      <point x="37" y="208" type="curve" smooth="yes"/>
      <point x="84" y="413"/>
      <point x="294" y="582"/>
      <point x="502" y="582" type="curve" smooth="yes"/>
      <point x="720" y="582"/>
      <point x="843" y="436"/>
      <point x="796" y="232" type="curve" smooth="yes"/>
      <point x="769" y="112"/>
      <point x="684" y="34"/>
      <point x="586" y="34" type="curve" smooth="yes"/>
      <point x="531" y="34"/>
      <point x="504" y="61"/>
      <point x="511" y="104" type="curve"/>
      <point x="481" y="65"/>
      <point x="413" y="33"/>
      <point x="366" y="33" type="curve" smooth="yes"/>
      <point x="261" y="33"/>
      <point x="198" y="113"/>
      <point x="222" y="216" type="curve" smooth="yes"/>
      <point x="245" y="320"/>
      <point x="347" y="402"/>
      <point x="454" y="402" type="curve" smooth="yes"/>
      <point x="505" y="402"/>
      <point x="550" y="377"/>
      <point x="553" y="342" type="curve"/>
      <point x="564" y="392" type="line"/>
      <point x="634" y="392" type="line"/>
      <point x="578" y="152" type="line" smooth="yes"/>
      <point x="570" y="116"/>
      <point x="581" y="96"/>
      <point x="609" y="96" type="curve" smooth="yes"/>
      <point x="662" y="96"/>
      <point x="706" y="173"/>
      <point x="716" y="217" type="curve" smooth="yes"/>
      <point x="757" y="393"/>
      <point x="663" y="506"/>
      <point x="480" y="506" type="curve" smooth="yes"/>
      <point x="320" y="506"/>
      <point x="158" y="373"/>
      <point x="121" y="212" type="curve" smooth="yes"/>
      <point x="84" y="52"/>
      <point x="184" y="-81"/>
      <point x="344" y="-86" type="curve"/>
    </contour>
    <contour>
      <point x="384" y="117" type="curve" smooth="yes"/>
      <point x="331" y="117"/>
      <point x="299" y="161"/>
      <point x="312" y="216" type="curve" smooth="yes"/>
      <point x="325" y="273"/>
      <point x="380" y="319"/>
      <point x="435" y="319" type="curve" smooth="yes"/>
      <point x="493" y="319"/>
      <point x="522" y="280"/>
      <point x="508" y="220" type="curve" smooth="yes"/>
      <point x="493" y="158"/>
      <point x="444" y="117"/>
    </contour>
    <contour>
      <point x="384" y="101" type="curve" smooth="yes"/>
      <point x="451" y="101"/>
      <point x="507" y="147"/>
      <point x="524" y="216" type="curve" smooth="yes"/>
      <point x="540" y="286"/>
      <point x="503" y="335"/>
      <point x="435" y="335" type="curve" smooth="yes"/>
      <point x="373" y="335"/>
      <point x="311" y="284"/>
      <point x="296" y="220" type="curve" smooth="yes"/>
      <point x="281" y="154"/>
      <point x="320" y="101"/>
    </contour>
  </outline>
</glyph>
<glyph name="A" format="1">
  <advance width="750"/>
  <unicode hex="0041"/>
  <note>
    A
  </note>
  <outline>
    <contour>
      <point x="-54" y="-8" type="line"/>
      <point x="93" y="-8" type="line"/>
      <point x="198" y="153" type="line"/>
      <point x="507" y="153" type="line"/>
      <point x="535" y="-8" type="line"/>
      <point x="679" y="-8" type="line"/>
      <point x="530" y="687" type="line"/>
      <point x="415" y="687" type="line"/>
    </contour>
    <contour>
      <point x="-24" y="8" type="line"/>
      <point x="423" y="671" type="line"/>
      <point x="518" y="671" type="line"/>
      <point x="659" y="8" type="line"/>
      <point x="549" y="8" type="line"/>
      <point x="521" y="169" type="line"/>
      <point x="190" y="169" type="line"/>
      <point x="85" y="8" type="line"/>
    </contour>
    <contour>
      <point x="275" y="271" type="line"/>
      <point x="440" y="520" type="line"/>
      <point x="487" y="271" type="line"/>
    </contour>
    <contour>
      <point x="245" y="255" type="line"/>
      <point x="507" y="255" type="line"/>
      <point x="448" y="562" type="line"/>
    </contour>
  </outline>
</glyph>
<glyph name="B" format="1">
  <advance width="666"/>
  <unicode hex="0042"/>
  <note>
    B
  </note>
  <outline>
    <contour>
      <point x="20" y="-8" type="line"/>
      <point x="326" y="-8" type="line" smooth="yes"/>
      <point x="484" y="-8"/>
      <point x="591" y="69"/>
      <point x="622" y="204" type="curve" smooth="yes"/>
      <point x="640" y="287"/>
      <point x="608" y="349"/>
      <point x="538" y="370" type="curve"/>
      <point x="597" y="391"/>
      <point x="639" y="439"/>
      <point x="654" y="502" type="curve" smooth="yes"/>
      <point x="682" y="626"/>
      <point x="620" y="687"/>
      <point x="465" y="687" type="curve" smooth="yes"/>
      <point x="181" y="687" type="line"/>
    </contour>
    <contour>
      <point x="40" y="8" type="line"/>
      <point x="193" y="671" type="line"/>
      <point x="465" y="671" type="line" smooth="yes"/>
      <point x="610" y="671"/>
      <point x="664" y="619"/>
      <point x="638" y="506" type="curve" smooth="yes"/>
      <point x="622" y="437"/>
      <point x="570" y="388"/>
      <point x="501" y="377" type="curve"/>
      <point x="501" y="361" type="line"/>
      <point x="585" y="354"/>
      <point x="626" y="294"/>
      <point x="606" y="208" type="curve" smooth="yes"/>
      <point x="577" y="80"/>
      <point x="476" y="8"/>
      <point x="326" y="8" type="curve" smooth="yes"/>
    </contour>
    <contour>
      <point x="173" y="110" type="line"/>
      <point x="217" y="303" type="line"/>
      <point x="390" y="303" type="line" smooth="yes"/>
      <point x="474" y="303"/>
      <point x="506" y="273"/>
      <point x="491" y="210" type="curve" smooth="yes"/>
      <point x="476" y="143"/>
      <point x="427" y="110"/>
      <point x="342" y="110" type="curve" smooth="yes"/>
    </contour>
    <contour>
      <point x="153" y="94" type="line"/>
      <point x="342" y="94" type="line" smooth="yes"/>
      <point x="435" y="94"/>
      <point x="490" y="131"/>
      <point x="507" y="206" type="curve" smooth="yes"/>
      <point x="524" y="281"/>
      <point x="484" y="319"/>
      <point x="390" y="319" type="curve" smooth="yes"/>
      <point x="205" y="319" type="line"/>
    </contour>
    <contour>
      <point x="243" y="416" type="line"/>
      <point x="278" y="569" type="line"/>
      <point x="428" y="569" type="line" smooth="yes"/>
      <point x="501" y="569"/>
      <point x="541" y="565"/>
      <point x="529" y="497" type="curve"/>
      <point x="515" y="438"/>
      <point x="476" y="416"/>
      <point x="383" y="416" type="curve" smooth="yes"/>
    </contour>
    <contour>
      <point x="223" y="400" type="line"/>
      <point x="383" y="400" type="line" smooth="yes"/>
      <point x="483" y="400"/>
      <point x="529" y="427"/>
      <point x="545" y="494" type="curve"/>
      <point x="559" y="579"/>
      <point x="501" y="585"/>
      <point x="428" y="585" type="curve" smooth="yes"/>
      <point x="266" y="585" type="line"/>
    </contour>
  </outline>
</glyph>
<glyph name="I" format="1">
  <advance width="289"/>
  <unicode hex="0049"/>
  <note>
    I
  </note>
  <outline>
    <contour>
      <point x="20" y="-8" type="line"/>
      <point x="145" y="-8" type="line"/>
      <point x="306" y="687" type="line"/>
      <point x="181" y="687" type="line"/>
    </contour>
    <contour>
      <point x="40" y="8" type="line"/>
      <point x="193" y="671" type="line"/>
      <point x="286" y="671" type="line"/>
      <point x="133" y="8" type="line"/>
    </contour>
  </outline>
</glyph>
<glyph name="J" format="1">
  <advance width="542"/>
  <unicode hex="004A"/>
  <note>
    J
  </note>
  <outline>
    <contour>
      <point x="166" y="-23" type="curve" smooth="yes"/>
      <point x="324" y="-23"/>
      <point x="442" y="72"/>
      <point x="478" y="227" type="curve" smooth="yes"/>
      <point x="584" y="687" type="line"/>
      <point x="459" y="687" type="line"/>
      <point x="353" y="229" type="line" smooth="yes"/>
      <point x="331" y="133"/>
      <point x="281" y="96"/>
      <point x="175" y="96" type="curve" smooth="yes"/>
      <point x="105" y="96"/>
      <point x="28" y="142"/>
      <point x="19" y="149" type="curve"/>
      <point x="6" y="144" type="line"/>
      <point x="-18" y="40" type="line" smooth="yes"/>
      <point x="-23" y="15"/>
      <point x="103" y="-23"/>
    </contour>
    <contour>
      <point x="166" y="-7" type="curve" smooth="yes"/>
      <point x="74" y="-7"/>
      <point x="-2" y="37"/>
      <point x="-2" y="36" type="curve"/>
      <point x="19" y="129" type="line"/>
      <point x="45" y="114"/>
      <point x="113" y="80"/>
      <point x="175" y="80" type="curve" smooth="yes"/>
      <point x="288" y="80"/>
      <point x="345" y="122"/>
      <point x="369" y="225" type="curve" smooth="yes"/>
      <point x="471" y="671" type="line"/>
      <point x="564" y="671" type="line"/>
      <point x="462" y="231" type="line" smooth="yes"/>
      <point x="428" y="82"/>
      <point x="317" y="-7"/>
    </contour>
  </outline>
</glyph>
<glyph name="L" format="1">
  <advance width="648"/>
  <unicode hex="004C"/>
  <note>
    L
  </note>
  <outline>
    <contour>
      <point x="20" y="-8" type="line"/>
      <point x="556" y="-8" type="line"/>
      <point x="584" y="110" type="line"/>
      <point x="172" y="110" type="line"/>
      <point x="305" y="687" type="line"/>
      <point x="181" y="687" type="line"/>
    </contour>
    <contour>
      <point x="40" y="8" type="line"/>
      <point x="193" y="671" type="line"/>
      <point x="285" y="671" type="line"/>
      <point x="152" y="94" type="line"/>
      <point x="564" y="94" type="line"/>
      <point x="544" y="8" type="line"/>
    </contour>
  </outline>
</glyph>
<glyph name="N" format="1">
  <advance width="771"/>
  <unicode hex="004E"/>
  <note>
    N
  </note>
  <outline>
    <contour>
      <point x="20" y="-8" type="line"/>
      <point x="144" y="-8" type="line"/>
      <point x="261" y="494" type="line"/>
      <point x="495" y="-8" type="line"/>
      <point x="627" y="-8" type="line"/>
      <point x="788" y="687" type="line"/>
      <point x="664" y="687" type="line"/>
      <point x="549" y="194" type="line"/>
      <point x="317" y="687" type="line"/>
      <point x="181" y="687" type="line"/>
    </contour>
    <contour>
      <point x="40" y="8" type="line"/>
      <point x="193" y="671" type="line"/>
      <point x="307" y="671" type="line"/>
      <point x="555" y="146" type="line"/>
      <point x="676" y="671" type="line"/>
      <point x="768" y="671" type="line"/>
      <point x="615" y="8" type="line"/>
      <point x="505" y="8" type="line"/>
      <point x="255" y="542" type="line"/>
      <point x="132" y="8" type="line"/>
    </contour>
  </outline>
</glyph>
<glyph name="Q" format="1">
  <advance width="803"/>
  <unicode hex="0051"/>
  <note>
    Q
  </note>
  <outline>
    <contour>
      <point x="338" y="-23" type="curve" smooth="yes"/>
      <point x="349" y="-23" type="line"/>
      <point x="726" y="-23" type="line"/>
      <point x="753" y="95" type="line"/>
      <point x="639" y="95" type="line"/>
      <point x="713" y="161"/>
      <point x="765" y="247"/>
      <point x="785" y="338" type="curve" smooth="yes"/>
      <point x="835" y="542"/>
      <point x="709" y="706"/>
      <point x="502" y="703" type="curve" smooth="yes"/>
      <point x="298" y="706"/>
      <point x="100" y="546"/>
      <point x="56" y="342" type="curve" smooth="yes"/>
      <point x="6" y="137"/>
      <point x="131" y="-26"/>
    </contour>
    <contour>
      <point x="338" y="-7" type="line" smooth="yes"/>
      <point x="141" y="-10"/>
      <point x="24" y="143"/>
      <point x="72" y="338" type="curve" smooth="yes"/>
      <point x="114" y="535"/>
      <point x="305" y="690"/>
      <point x="502" y="687" type="curve" smooth="yes"/>
      <point x="698" y="690"/>
      <point x="817" y="536"/>
      <point x="769" y="342" type="curve"/>
      <point x="748" y="241"/>
      <point x="685" y="146"/>
      <point x="594" y="79" type="curve"/>
      <point x="733" y="79" type="line"/>
      <point x="714" y="-7" type="line"/>
      <point x="349" y="-7" type="line"/>
    </contour>
    <contour>
      <point x="362" y="96" type="curve" smooth="yes"/>
      <point x="224" y="96"/>
      <point x="151" y="195"/>
      <point x="184" y="338" type="curve" smooth="yes"/>
      <point x="217" y="483"/>
      <point x="340" y="585"/>
      <point x="478" y="585" type="curve" smooth="yes"/>
      <point x="616" y="585"/>
      <point x="690" y="485"/>
      <point x="656" y="342" type="curve" smooth="yes"/>
      <point x="623" y="196"/>
      <point x="502" y="96"/>
    </contour>
    <contour>
      <point x="362" y="80" type="curve" smooth="yes"/>
      <point x="510" y="80"/>
      <point x="637" y="186"/>
      <point x="672" y="338" type="curve" smooth="yes"/>
      <point x="707" y="491"/>
      <point x="627" y="601"/>
      <point x="478" y="601" type="curve" smooth="yes"/>
      <point x="332" y="601"/>
      <point x="203" y="493"/>
      <point x="168" y="342" type="curve" smooth="yes"/>
      <point x="133" y="189"/>
      <point x="213" y="80"/>
    </contour>
  </outline>
</glyph>
<glyph name="U" format="1">
  <advance width="706"/>
  <unicode hex="0055"/>
  <note>
    U
  </note>
  <outline>
    <contour>
      <point x="290" y="-23" type="curve" smooth="yes"/>
      <point x="473" y="-23"/>
      <point x="597" y="77"/>
      <point x="639" y="257" type="curve" smooth="yes"/>
      <point x="738" y="687" type="line"/>
      <point x="613" y="687" type="line"/>
      <point x="515" y="263" type="line" smooth="yes"/>
      <point x="489" y="151"/>
      <point x="425" y="98"/>
      <point x="314" y="98" type="curve" smooth="yes"/>
      <point x="213" y="98"/>
      <point x="169" y="157"/>
      <point x="193" y="259" type="curve" smooth="yes"/>
      <point x="291" y="687" type="line"/>
      <point x="166" y="687" type="line"/>
      <point x="67" y="261" type="line" smooth="yes"/>
      <point x="25" y="79"/>
      <point x="106" y="-23"/>
    </contour>
    <contour>
      <point x="290" y="-7" type="curve" smooth="yes"/>
      <point x="116" y="-7"/>
      <point x="43" y="86"/>
      <point x="83" y="257" type="curve" smooth="yes"/>
      <point x="178" y="671" type="line"/>
      <point x="271" y="671" type="line"/>
      <point x="177" y="263" type="line" smooth="yes"/>
      <point x="151" y="150"/>
      <point x="203" y="82"/>
      <point x="314" y="82" type="curve" smooth="yes"/>
      <point x="432" y="82"/>
      <point x="503" y="140"/>
      <point x="531" y="259" type="curve" smooth="yes"/>
      <point x="625" y="671" type="line"/>
      <point x="718" y="671" type="line"/>
      <point x="623" y="261" type="line" smooth="yes"/>
      <point x="583" y="88"/>
      <point x="465" y="-7"/>
    </contour>
  </outline>
</glyph>
<glyph name="V" format="1">
  <advance width="702"/>
  <unicode hex="0056"/>
  <note>
    V
  </note>
  <outline>
    <contour>
      <point x="223" y="-8" type="line"/>
      <point x="356" y="-8" type="line"/>
      <point x="782" y="687" type="line"/>
      <point x="629" y="687" type="line"/>
      <point x="326" y="180" type="line"/>
      <point x="256" y="687" type="line"/>
      <point x="119" y="687" type="line"/>
    </contour>
    <contour>
      <point x="237" y="8" type="line"/>
      <point x="137" y="671" type="line"/>
      <point x="242" y="671" type="line"/>
      <point x="316" y="132" type="line"/>
      <point x="639" y="671" type="line"/>
      <point x="754" y="671" type="line"/>
      <point x="348" y="8" type="line"/>
    </contour>
  </outline>
</glyph>
<glyph name="Z" format="1">
  <advance width="684"/>
  <unicode hex="005A"/>
  <note>
    Z
  </note>
  <outline>
    <contour>
      <point x="5" y="-8" type="line"/>
      <point x="575" y="-8" type="line"/>
      <point x="603" y="110" type="line"/>
      <point x="210" y="110" type="line"/>
      <point x="697" y="573" type="line"/>
      <point x="723" y="687" type="line"/>
      <point x="185" y="687" type="line"/>
      <point x="158" y="569" type="line"/>
      <point x="522" y="569" type="line"/>
      <point x="32" y="106" type="line"/>
    </contour>
    <contour>
      <point x="25" y="8" type="line"/>
      <point x="46" y="98" type="line"/>
      <point x="562" y="585" type="line"/>
      <point x="178" y="585" type="line"/>
      <point x="197" y="671" type="line"/>
      <point x="703" y="671" type="line"/>
      <point x="683" y="581" type="line"/>
      <point x="170" y="94" type="line"/>
      <point x="583" y="94" type="line"/>
      <point x="563" y="8" type="line"/>
    </contour>
  </outline>
</glyph>
<glyph name="bracketleft" format="1">
  <advance width="375"/>
  <unicode hex="005B"/>
  <note>
    bracketleft
  </note>
  <outline>
    <contour>
      <point x="-29" y="-133" type="line"/>
      <point x="222" y="-133" type="line"/>
      <point x="250" y="-16" type="line"/>
      <point x="132" y="-16" type="line"/>
      <point x="283" y="639" type="line"/>
      <point x="401" y="639" type="line"/>
      <point x="428" y="757" type="line"/>
      <point x="177" y="757" type="line"/>
    </contour>
    <contour>
      <point x="-9" y="-117" type="line"/>
      <point x="189" y="741" type="line"/>
      <point x="408" y="741" type="line"/>
      <point x="389" y="655" type="line"/>
      <point x="271" y="655" type="line"/>
      <point x="112" y="-32" type="line"/>
      <point x="230" y="-32" type="line"/>
      <point x="210" y="-117" type="line"/>
    </contour>
  </outline>
</glyph>
<glyph name="backslash" format="1">
  <advance width="455"/>
  <unicode hex="005C"/>
  <note>
    backslash
  </note>
  <outline>
    <contour>
      <point x="259" y="-65" type="line"/>
      <point x="392" y="-65" type="line"/>
      <point x="225" y="708" type="line"/>
      <point x="92" y="708" type="line"/>
    </contour>
    <contour>
      <point x="271" y="-49" type="line"/>
      <point x="112" y="692" type="line"/>
      <point x="213" y="692" type="line"/>
      <point x="372" y="-49" type="line"/>
    </contour>
  </outline>
</glyph>
<glyph name="bracketright" format="1">
  <advance width="375"/>
  <unicode hex="005D"/>
  <note>
    bracketright
  </note>
  <outline>
    <contour>
      <point x="-29" y="-133" type="line"/>
      <point x="222" y="-133" type="line"/>
      <point x="428" y="757" type="line"/>
      <point x="177" y="757" type="line"/>
      <point x="150" y="639" type="line"/>
      <point x="268" y="639" type="line"/>
      <point x="117" y="-16" type="line"/>
      <point x="-1" y="-16" type="line"/>
    </contour>
    <contour>
      <point x="-9" y="-117" type="line"/>
      <point x="11" y="-32" type="line"/>
      <point x="129" y="-32" type="line"/>
      <point x="288" y="655" type="line"/>
      <point x="170" y="655" type="line"/>
      <point x="189" y="741" type="line"/>
      <point x="408" y="741" type="line"/>
      <point x="210" y="-117" type="line"/>
    </contour>
  </outline>
</glyph>
<glyph name="asciicircum" format="1">
  <advance width="617"/>
  <unicode hex="005E"/>
  <note>
    asciicircum
  </note>
  <outline>
    <contour>
      <point x="47" y="312" type="line"/>
      <point x="168" y="312" type="line"/>
      <point x="378" y="573" type="line"/>
      <point x="475" y="312" type="line"/>
      <point x="593" y="312" type="line"/>
      <point x="445" y="707" type="line"/>
      <point x="370" y="707" type="line"/>
    </contour>
    <contour>
      <point x="81" y="328" type="line"/>
      <point x="378" y="691" type="line"/>
      <point x="433" y="691" type="line"/>
      <point x="569" y="328" type="line"/>
      <point x="487" y="328" type="line"/>
      <point x="384" y="605" type="line"/>
      <point x="160" y="328" type="line"/>
    </contour>
  </outline>
</glyph>
<glyph name="underscore" format="1">
  <advance width="745"/>
  <unicode hex="005F"/>
  <note>
    underscore
  </note>
  <outline>
    <contour>
      <point x="-13" y="-70" type="line"/>
      <point x="606" y="-70" type="line"/>
      <point x="624" y="8" type="line"/>
      <point x="5" y="8" type="line"/>
    </contour>
    <contour>
      <point x="7" y="-54" type="line"/>
      <point x="17" y="-8" type="line"/>
      <point x="604" y="-8" type="line"/>
      <point x="594" y="-54" type="line"/>
    </contour>
  </outline>
</glyph>
<glyph name="grave" format="1">
  <advance width="263"/>
  <unicode hex="0060"/>
  <note>
    grave
  </note>
  <outline>
    <contour>
      <point x="213" y="578" type="line"/>
      <point x="330" y="578" type="line"/>
      <point x="274" y="765" type="line"/>
      <point x="122" y="765" type="line"/>
    </contour>
    <contour>
      <point x="223" y="594" type="line"/>
      <point x="148" y="749" type="line"/>
      <point x="262" y="749" type="line"/>
      <point x="308" y="594" type="line"/>
    </contour>
  </outline>
</glyph>
<glyph name="b" format="1">
  <advance width="672"/>
  <unicode hex="0062"/>
  <note>
    b
  </note>
  <outline>
    <contour>
      <point x="299" y="-23" type="curve" smooth="yes"/>
      <point x="456" y="-23"/>
      <point x="603" y="97"/>
      <point x="640" y="256" type="curve" smooth="yes"/>
      <point x="677" y="417"/>
      <point x="584" y="540"/>
      <point x="425" y="540" type="curve" smooth="yes"/>
      <point x="363" y="540"/>
      <point x="298" y="520"/>
      <point x="249" y="486" type="curve"/>
      <point x="299" y="707" type="line"/>
      <point x="171" y="686" type="line"/>
      <point x="11" y="-8" type="line"/>
      <point x="136" y="-8" type="line"/>
      <point x="146" y="35" type="line"/>
      <point x="180" y="-3"/>
      <point x="234" y="-23"/>
    </contour>
    <contour>
      <point x="299" y="-7" type="curve" smooth="yes"/>
      <point x="222" y="-7"/>
      <point x="166" y="22"/>
      <point x="139" y="74" type="curve"/>
      <point x="124" y="8" type="line"/>
      <point x="31" y="8" type="line"/>
      <point x="185" y="672" type="line"/>
      <point x="279" y="687" type="line"/>
      <point x="222" y="444" type="line"/>
      <point x="269" y="492"/>
      <point x="349" y="524"/>
      <point x="425" y="524" type="curve" smooth="yes"/>
      <point x="573" y="524"/>
      <point x="659" y="410"/>
      <point x="624" y="260" type="curve" smooth="yes"/>
      <point x="589" y="108"/>
      <point x="449" y="-7"/>
    </contour>
    <contour>
      <point x="313" y="89" type="curve" smooth="yes"/>
      <point x="216" y="89"/>
      <point x="167" y="156"/>
      <point x="190" y="257" type="curve" smooth="yes"/>
      <point x="213" y="359"/>
      <point x="296" y="428"/>
      <point x="395" y="428" type="curve" smooth="yes"/>
      <point x="486" y="428"/>
      <point x="541" y="354"/>
      <point x="519" y="261" type="curve" smooth="yes"/>
      <point x="497" y="165"/>
      <point x="405" y="89"/>
    </contour>
    <contour>
      <point x="313" y="73" type="curve" smooth="yes"/>
      <point x="413" y="73"/>
      <point x="511" y="154"/>
      <point x="535" y="257" type="curve" smooth="yes"/>
      <point x="559" y="361"/>
      <point x="497" y="444"/>
      <point x="395" y="444" type="curve" smooth="yes"/>
      <point x="289" y="444"/>
      <point x="200" y="370"/>
      <point x="174" y="261" type="curve" smooth="yes"/>
      <point x="149" y="149"/>
      <point x="205" y="73"/>
    </contour>
  </outline>
</glyph>
<glyph name="f" format="1">
  <advance width="521"/>
  <unicode hex="0066"/>
  <note>
    f
  </note>
  <outline>
    <contour>
      <point x="12" y="-258" type="line"/>
      <point x="136" y="-258" type="line"/>
      <point x="280" y="362" type="line"/>
      <point x="513" y="362" type="line"/>
      <point x="537" y="466" type="line"/>
      <point x="304" y="466" type="line"/>
      <point x="330" y="568"/>
      <point x="378" y="613"/>
      <point x="459" y="613" type="curve" smooth="yes"/>
      <point x="535" y="613"/>
      <point x="571" y="562"/>
      <point x="571" y="562" type="curve"/>
      <point x="585" y="565" type="line"/>
      <point x="607" y="661" type="line"/>
      <point x="606" y="666" type="line"/>
      <point x="606" y="666"/>
      <point x="581" y="725"/>
      <point x="466" y="725" type="curve" smooth="yes"/>
      <point x="329" y="725"/>
      <point x="218" y="624"/>
      <point x="180" y="466" type="curve"/>
      <point x="70" y="466" type="line"/>
      <point x="46" y="362" type="line"/>
      <point x="156" y="362" type="line"/>
    </contour>
    <contour>
      <point x="32" y="-242" type="line"/>
      <point x="176" y="378" type="line"/>
      <point x="66" y="378" type="line"/>
      <point x="82" y="450" type="line"/>
      <point x="192" y="450" type="line"/>
      <point x="227" y="608"/>
      <point x="333" y="709"/>
      <point x="466" y="709" type="curve" smooth="yes"/>
      <point x="557" y="709"/>
      <point x="585" y="672"/>
      <point x="591" y="662" type="curve"/>
      <point x="573" y="584" type="line"/>
      <point x="556" y="601"/>
      <point x="518" y="629"/>
      <point x="459" y="629" type="curve" smooth="yes"/>
      <point x="365" y="629"/>
      <point x="310" y="572"/>
      <point x="284" y="450" type="curve"/>
      <point x="517" y="450" type="line"/>
      <point x="501" y="378" type="line"/>
      <point x="268" y="378" type="line"/>
      <point x="124" y="-242" type="line"/>
    </contour>
  </outline>
</glyph>
<glyph name="h" format="1">
  <advance width="626"/>
  <unicode hex="0068"/>
  <note>
    h
  </note>
  <outline>
    <contour>
      <point x="10" y="-8" type="line"/>
      <point x="134" y="-8" type="line"/>
      <point x="206" y="299" type="line"/>
      <point x="227" y="376"/>
      <point x="295" y="429"/>
      <point x="373" y="429" type="curve" smooth="yes"/>
      <point x="440" y="429"/>
      <point x="469" y="385"/>
      <point x="451" y="309" type="curve" smooth="yes"/>
      <point x="378" y="-8" type="line"/>
      <point x="502" y="-8" type="line"/>
      <point x="578" y="316" type="line" smooth="yes"/>
      <point x="609" y="452"/>
      <point x="543" y="541"/>
      <point x="411" y="541" type="curve" smooth="yes"/>
      <point x="327" y="541"/>
      <point x="275" y="506"/>
      <point x="248" y="482" type="curve"/>
      <point x="299" y="707" type="line"/>
      <point x="170" y="686" type="line"/>
    </contour>
    <contour>
      <point x="30" y="8" type="line"/>
      <point x="184" y="672" type="line"/>
      <point x="279" y="687" type="line"/>
      <point x="225" y="456" type="line"/>
      <point x="239" y="449" type="line"/>
      <point x="247" y="460"/>
      <point x="299" y="525"/>
      <point x="411" y="525" type="curve" smooth="yes"/>
      <point x="533" y="525"/>
      <point x="592" y="446"/>
      <point x="562" y="320" type="curve" smooth="yes"/>
      <point x="490" y="8" type="line"/>
      <point x="398" y="8" type="line"/>
      <point x="467" y="305" type="line" smooth="yes"/>
      <point x="487" y="391"/>
      <point x="451" y="445"/>
      <point x="373" y="445" type="curve" smooth="yes"/>
      <point x="288" y="445"/>
      <point x="214" y="387"/>
      <point x="190" y="303" type="curve"/>
      <point x="122" y="8" type="line"/>
    </contour>
  </outline>
</glyph>
<glyph name="i" format="1">
  <advance width="283"/>
  <unicode hex="0069"/>
  <note>
    i
  </note>
  <outline>
    <contour>
      <point x="22" y="-8" type="line"/>
      <point x="146" y="-8" type="line"/>
      <point x="270" y="526" type="line"/>
      <point x="146" y="526" type="line"/>
    </contour>
    <contour>
      <point x="42" y="8" type="line"/>
      <point x="158" y="510" type="line"/>
      <point x="250" y="510" type="line"/>
      <point x="134" y="8" type="line"/>
    </contour>
    <contour>
      <point x="218" y="583" type="curve" smooth="yes"/>
      <point x="256" y="583"/>
      <point x="293" y="612"/>
      <point x="302" y="650" type="curve" smooth="yes"/>
      <point x="311" y="690"/>
      <point x="286" y="722"/>
      <point x="246" y="722" type="curve" smooth="yes"/>
      <point x="208" y="722"/>
      <point x="172" y="692"/>
      <point x="163" y="654" type="curve" smooth="yes"/>
      <point x="154" y="615"/>
      <point x="179" y="583"/>
    </contour>
    <contour>
      <point x="218" y="599" type="curve" smooth="yes"/>
      <point x="189" y="599"/>
      <point x="172" y="621"/>
      <point x="179" y="650" type="curve" smooth="yes"/>
      <point x="186" y="681"/>
      <point x="216" y="706"/>
      <point x="246" y="706" type="curve" smooth="yes"/>
      <point x="276" y="706"/>
      <point x="293" y="684"/>
      <point x="286" y="654" type="curve" smooth="yes"/>
      <point x="279" y="623"/>
      <point x="249" y="599"/>
    </contour>
  </outline>
</glyph>
<glyph name="j" format="1">
  <advance width="268"/>
  <unicode hex="006A"/>
  <note>
    j
  </note>
  <outline>
    <contour>
      <point x="-74" y="-232" type="curve" smooth="yes"/>
      <point x="32" y="-232"/>
      <point x="108" y="-160"/>
      <point x="138" y="-33" type="curve" smooth="yes"/>
      <point x="267" y="526" type="line"/>
      <point x="143" y="526" type="line"/>
      <point x="12" y="-38" type="line" smooth="yes"/>
      <point x="3" y="-78"/>
      <point x="-19" y="-120"/>
      <point x="-67" y="-120" type="curve" smooth="yes"/>
      <point x="-142" y="-120"/>
      <point x="-173" y="-46"/>
      <point x="-173" y="-46" type="curve"/>
      <point x="-188" y="-47" type="line"/>
      <point x="-214" y="-159" type="line"/>
      <point x="-213" y="-164" type="line"/>
      <point x="-213" y="-164"/>
      <point x="-190" y="-232"/>
    </contour>
    <contour>
      <point x="-74" y="-216" type="curve" smooth="yes"/>
      <point x="-166" y="-216"/>
      <point x="-193" y="-171"/>
      <point x="-198" y="-160" type="curve"/>
      <point x="-177" y="-71" type="line"/>
      <point x="-161" y="-96"/>
      <point x="-126" y="-136"/>
      <point x="-67" y="-136" type="curve" smooth="yes"/>
      <point x="-20" y="-136"/>
      <point x="15" y="-101"/>
      <point x="28" y="-42" type="curve" smooth="yes"/>
      <point x="155" y="510" type="line"/>
      <point x="247" y="510" type="line"/>
      <point x="122" y="-29" type="line" smooth="yes"/>
      <point x="104" y="-105"/>
      <point x="55" y="-216"/>
    </contour>
    <contour>
      <point x="212" y="583" type="curve" smooth="yes"/>
      <point x="250" y="583"/>
      <point x="287" y="612"/>
      <point x="296" y="650" type="curve" smooth="yes"/>
      <point x="305" y="690"/>
      <point x="280" y="722"/>
      <point x="240" y="722" type="curve" smooth="yes"/>
      <point x="202" y="722"/>
      <point x="166" y="692"/>
      <point x="157" y="654" type="curve" smooth="yes"/>
      <point x="148" y="615"/>
      <point x="173" y="583"/>
    </contour>
    <contour>
      <point x="212" y="599" type="curve" smooth="yes"/>
      <point x="183" y="599"/>
      <point x="166" y="621"/>
      <point x="173" y="650" type="curve" smooth="yes"/>
      <point x="180" y="681"/>
      <point x="210" y="706"/>
      <point x="240" y="706" type="curve" smooth="yes"/>
      <point x="270" y="706"/>
      <point x="287" y="684"/>
      <point x="280" y="654" type="curve" smooth="yes"/>
      <point x="273" y="623"/>
      <point x="243" y="599"/>
    </contour>
  </outline>
</glyph>
<glyph name="k" format="1">
  <advance width="576"/>
  <unicode hex="006B"/>
  <note>
    k
  </note>
  <outline>
    <contour>
      <point x="10" y="-8" type="line"/>
      <point x="134" y="-8" type="line"/>
      <point x="185" y="212" type="line"/>
      <point x="238" y="249" type="line"/>
      <point x="389" y="-8" type="line"/>
      <point x="540" y="-8" type="line"/>
      <point x="342" y="322" type="line"/>
      <point x="631" y="525" type="line"/>
      <point x="448" y="525" type="line"/>
      <point x="220" y="366" type="line"/>
      <point x="299" y="707" type="line"/>
      <point x="170" y="686" type="line"/>
    </contour>
    <contour>
      <point x="30" y="8" type="line"/>
      <point x="184" y="672" type="line"/>
      <point x="279" y="687" type="line"/>
      <point x="196" y="328" type="line"/>
      <point x="454" y="509" type="line"/>
      <point x="581" y="509" type="line"/>
      <point x="320" y="326" type="line"/>
      <point x="512" y="8" type="line"/>
      <point x="399" y="8" type="line"/>
      <point x="244" y="273" type="line"/>
      <point x="171" y="222" type="line"/>
      <point x="122" y="8" type="line"/>
    </contour>
  </outline>
</glyph>
<glyph name="l" format="1">
  <advance width="268"/>
  <unicode hex="006C"/>
  <note>
    l
  </note>
  <outline>
    <contour>
      <point x="10" y="-8" type="line"/>
      <point x="134" y="-8" type="line"/>
      <point x="299" y="707" type="line"/>
      <point x="170" y="686" type="line"/>
    </contour>
    <contour>
      <point x="30" y="8" type="line"/>
      <point x="184" y="672" type="line"/>
      <point x="279" y="687" type="line"/>
      <point x="122" y="8" type="line"/>
    </contour>
  </outline>
</glyph>
<glyph name="m" format="1">
  <advance width="941"/>
  <unicode hex="006D"/>
  <note>
    m
  </note>
  <outline>
    <contour>
      <point x="16" y="-8" type="line"/>
      <point x="140" y="-8" type="line"/>
      <point x="213" y="305" type="line"/>
      <point x="213" y="305" type="line"/>
      <point x="236" y="378"/>
      <point x="298" y="429"/>
      <point x="364" y="429" type="curve" smooth="yes"/>
      <point x="426" y="429"/>
      <point x="446" y="391"/>
      <point x="427" y="309" type="curve" smooth="yes"/>
      <point x="354" y="-8" type="line"/>
      <point x="478" y="-8" type="line"/>
      <point x="548" y="289" type="line" smooth="yes"/>
      <point x="566" y="371"/>
      <point x="631" y="429"/>
      <point x="703" y="429" type="curve" smooth="yes"/>
      <point x="765" y="429"/>
      <point x="785" y="391"/>
      <point x="766" y="309" type="curve" smooth="yes"/>
      <point x="693" y="-8" type="line"/>
      <point x="817" y="-8" type="line"/>
      <point x="893" y="316" type="line" smooth="yes"/>
      <point x="925" y="457"/>
      <point x="868" y="541"/>
      <point x="741" y="541" type="curve" smooth="yes"/>
      <point x="660" y="541"/>
      <point x="592" y="513"/>
      <point x="548" y="463" type="curve"/>
      <point x="524" y="514"/>
      <point x="473" y="541"/>
      <point x="402" y="541" type="curve" smooth="yes"/>
      <point x="329" y="541"/>
      <point x="281" y="510"/>
      <point x="255" y="485" type="curve"/>
      <point x="264" y="525" type="line"/>
      <point x="140" y="525" type="line"/>
    </contour>
    <contour>
      <point x="36" y="8" type="line"/>
      <point x="152" y="509" type="line"/>
      <point x="244" y="509" type="line"/>
      <point x="232" y="458" type="line"/>
      <point x="247" y="452" type="line"/>
      <point x="256" y="465"/>
      <point x="303" y="525"/>
      <point x="402" y="525" type="curve" smooth="yes"/>
      <point x="480" y="525"/>
      <point x="529" y="492"/>
      <point x="543" y="430" type="curve"/>
      <point x="581" y="490"/>
      <point x="652" y="525"/>
      <point x="741" y="525" type="curve" smooth="yes"/>
      <point x="858" y="525"/>
      <point x="908" y="450"/>
      <point x="877" y="320" type="curve" smooth="yes"/>
      <point x="805" y="8" type="line"/>
      <point x="713" y="8" type="line"/>
      <point x="782" y="305" type="line" smooth="yes"/>
      <point x="803" y="397"/>
      <point x="776" y="445"/>
      <point x="703" y="445" type="curve" smooth="yes"/>
      <point x="623" y="445"/>
      <point x="552" y="382"/>
      <point x="532" y="293" type="curve" smooth="yes"/>
      <point x="466" y="8" type="line"/>
      <point x="374" y="8" type="line"/>
      <point x="443" y="305" type="line" smooth="yes"/>
      <point x="464" y="397"/>
      <point x="437" y="445"/>
      <point x="364" y="445" type="curve" smooth="yes"/>
      <point x="291" y="445"/>
      <point x="222" y="389"/>
      <point x="197" y="309" type="curve"/>
      <point x="197" y="309" type="line"/>
      <point x="128" y="8" type="line"/>
    </contour>
  </outline>
</glyph>
<glyph name="n" format="1">
  <advance width="633"/>
  <unicode hex="006E"/>
  <note>
    n
  </note>
  <outline>
    <contour>
      <point x="16" y="-8" type="line"/>
      <point x="140" y="-8" type="line"/>
      <point x="210" y="289" type="line" smooth="yes"/>
      <point x="229" y="372"/>
      <point x="298" y="429"/>
      <point x="380" y="429" type="curve" smooth="yes"/>
      <point x="447" y="429"/>
      <point x="476" y="385"/>
      <point x="458" y="309" type="curve" smooth="yes"/>
      <point x="385" y="-8" type="line"/>
      <point x="509" y="-8" type="line"/>
      <point x="585" y="316" type="line" smooth="yes"/>
      <point x="616" y="452"/>
      <point x="550" y="541"/>
      <point x="418" y="541" type="curve" smooth="yes"/>
      <point x="334" y="541"/>
      <point x="281" y="506"/>
      <point x="254" y="481" type="curve"/>
      <point x="264" y="525" type="line"/>
      <point x="140" y="525" type="line"/>
    </contour>
    <contour>
      <point x="36" y="8" type="line"/>
      <point x="152" y="509" type="line"/>
      <point x="244" y="509" type="line"/>
      <point x="231" y="455" type="line"/>
      <point x="246" y="449" type="line"/>
      <point x="250" y="454"/>
      <point x="301" y="525"/>
      <point x="418" y="525" type="curve" smooth="yes"/>
      <point x="540" y="525"/>
      <point x="599" y="446"/>
      <point x="569" y="320" type="curve" smooth="yes"/>
      <point x="497" y="8" type="line"/>
      <point x="405" y="8" type="line"/>
      <point x="474" y="305" type="line" smooth="yes"/>
      <point x="494" y="391"/>
      <point x="458" y="445"/>
      <point x="380" y="445" type="curve" smooth="yes"/>
      <point x="290" y="445"/>
      <point x="215" y="383"/>
      <point x="194" y="293" type="curve" smooth="yes"/>
      <point x="128" y="8" type="line"/>
    </contour>
  </outline>
</glyph>
<glyph name="p" format="1">
  <advance width="672"/>
  <unicode hex="0070"/>
  <note>
    p
  </note>
  <outline>
    <contour>
      <point x="-39" y="-220" type="line"/>
      <point x="85" y="-220" type="line"/>
      <point x="145" y="37" type="line"/>
      <point x="179" y="-2"/>
      <point x="232" y="-23"/>
      <point x="299" y="-23" type="curve" smooth="yes"/>
      <point x="456" y="-23"/>
      <point x="603" y="97"/>
      <point x="640" y="256" type="curve" smooth="yes"/>
      <point x="677" y="417"/>
      <point x="584" y="540"/>
      <point x="425" y="540" type="curve" smooth="yes"/>
      <point x="363" y="540"/>
      <point x="298" y="520"/>
      <point x="249" y="487" type="curve"/>
      <point x="258" y="525" type="line"/>
      <point x="134" y="525" type="line"/>
    </contour>
    <contour>
      <point x="-19" y="-204" type="line"/>
      <point x="146" y="509" type="line"/>
      <point x="238" y="509" type="line"/>
      <point x="222" y="443" type="line"/>
      <point x="269" y="492"/>
      <point x="349" y="524"/>
      <point x="425" y="524" type="curve" smooth="yes"/>
      <point x="573" y="524"/>
      <point x="659" y="410"/>
      <point x="624" y="260" type="curve" smooth="yes"/>
      <point x="589" y="108"/>
      <point x="449" y="-7"/>
      <point x="299" y="-7" type="curve" smooth="yes"/>
      <point x="221" y="-7"/>
      <point x="164" y="22"/>
      <point x="138" y="77" type="curve"/>
      <point x="73" y="-204" type="line"/>
    </contour>
    <contour>
      <point x="323" y="89" type="curve" smooth="yes"/>
      <point x="222" y="89"/>
      <point x="167" y="157"/>
      <point x="190" y="256" type="curve" smooth="yes"/>
      <point x="213" y="357"/>
      <point x="302" y="428"/>
      <point x="405" y="428" type="curve" smooth="yes"/>
      <point x="493" y="428"/>
      <point x="542" y="357"/>
      <point x="519" y="260" type="curve" smooth="yes"/>
      <point x="496" y="162"/>
      <point x="413" y="89"/>
    </contour>
    <contour>
      <point x="323" y="73" type="curve" smooth="yes"/>
      <point x="420" y="73"/>
      <point x="510" y="151"/>
      <point x="535" y="256" type="curve" smooth="yes"/>
      <point x="560" y="363"/>
      <point x="504" y="444"/>
      <point x="405" y="444" type="curve" smooth="yes"/>
      <point x="295" y="444"/>
      <point x="199" y="367"/>
      <point x="174" y="260" type="curve" smooth="yes"/>
      <point x="149" y="151"/>
      <point x="212" y="73"/>
    </contour>
  </outline>
</glyph>
<glyph name="q" format="1">
  <advance width="669"/>
  <unicode hex="0071"/>
  <note>
    q
  </note>
  <outline>
    <contour>
      <point x="365" y="-220" type="line"/>
      <point x="489" y="-220" type="line"/>
      <point x="662" y="525" type="line"/>
      <point x="538" y="525" type="line"/>
      <point x="528" y="484" type="line"/>
      <point x="493" y="519"/>
      <point x="436" y="540"/>
      <point x="373" y="540" type="curve" smooth="yes"/>
      <point x="216" y="540"/>
      <point x="69" y="419"/>
      <point x="32" y="260" type="curve" smooth="yes"/>
      <point x="-5" y="99"/>
      <point x="88" y="-23"/>
      <point x="247" y="-23" type="curve" smooth="yes"/>
      <point x="323" y="-23"/>
      <point x="381" y="3"/>
      <point x="424" y="34" type="curve"/>
    </contour>
    <contour>
      <point x="385" y="-204" type="line"/>
      <point x="451" y="79" type="line"/>
      <point x="395" y="22"/>
      <point x="326" y="-7"/>
      <point x="247" y="-7" type="curve" smooth="yes"/>
      <point x="98" y="-7"/>
      <point x="13" y="106"/>
      <point x="48" y="256" type="curve" smooth="yes"/>
      <point x="83" y="408"/>
      <point x="224" y="524"/>
      <point x="373" y="524" type="curve" smooth="yes"/>
      <point x="447" y="524"/>
      <point x="510" y="494"/>
      <point x="535" y="447" type="curve"/>
      <point x="550" y="509" type="line"/>
      <point x="642" y="509" type="line"/>
      <point x="477" y="-204" type="line"/>
    </contour>
    <contour>
      <point x="267" y="89" type="curve" smooth="yes"/>
      <point x="179" y="89"/>
      <point x="130" y="160"/>
      <point x="153" y="256" type="curve" smooth="yes"/>
      <point x="176" y="355"/>
      <point x="260" y="428"/>
      <point x="349" y="428" type="curve" smooth="yes"/>
      <point x="450" y="428"/>
      <point x="505" y="359"/>
      <point x="482" y="260" type="curve" smooth="yes"/>
      <point x="459" y="160"/>
      <point x="370" y="89"/>
    </contour>
    <contour>
      <point x="267" y="73" type="curve" smooth="yes"/>
      <point x="377" y="73"/>
      <point x="473" y="149"/>
      <point x="498" y="256" type="curve" smooth="yes"/>
      <point x="523" y="366"/>
      <point x="460" y="444"/>
      <point x="349" y="444" type="curve" smooth="yes"/>
      <point x="252" y="444"/>
      <point x="162" y="366"/>
      <point x="137" y="260" type="curve" smooth="yes"/>
      <point x="112" y="153"/>
      <point x="168" y="73"/>
    </contour>
  </outline>
</glyph>
<glyph name="t" format="1">
  <advance width="502"/>
  <unicode hex="0074"/>
  <note>
    t
  </note>
  <outline>
    <contour>
      <point x="134" y="-8" type="line"/>
      <point x="258" y="-8" type="line"/>
      <point x="361" y="435" type="line"/>
      <point x="538" y="435" type="line"/>
      <point x="562" y="539" type="line"/>
      <point x="385" y="539" type="line"/>
      <point x="425" y="714" type="line"/>
      <point x="22" y="435" type="line"/>
      <point x="237" y="435" type="line"/>
    </contour>
    <contour>
      <point x="154" y="8" type="line"/>
      <point x="257" y="451" type="line"/>
      <point x="74" y="451" type="line"/>
      <point x="401" y="678" type="line"/>
      <point x="365" y="523" type="line"/>
      <point x="542" y="523" type="line"/>
      <point x="526" y="451" type="line"/>
      <point x="349" y="451" type="line"/>
      <point x="246" y="8" type="line"/>
    </contour>
  </outline>
</glyph>
<glyph name="v" format="1">
  <advance width="550"/>
  <unicode hex="0076"/>
  <note>
    v
  </note>
  <outline>
    <contour>
      <point x="202" y="-60" type="line"/>
      <point x="621" y="525" type="line"/>
      <point x="488" y="525" type="line"/>
      <point x="262" y="198" type="line"/>
      <point x="184" y="525" type="line"/>
      <point x="55" y="525" type="line"/>
    </contour>
    <contour>
      <point x="210" y="-22" type="line"/>
      <point x="75" y="509" type="line"/>
      <point x="172" y="509" type="line"/>
      <point x="254" y="160" type="line"/>
      <point x="496" y="509" type="line"/>
      <point x="589" y="509" type="line"/>
    </contour>
  </outline>
</glyph>
<glyph name="braceleft" format="1">
  <advance width="366"/>
  <unicode hex="007B"/>
  <note>
    braceleft
  </note>
  <outline>
    <contour>
      <point x="213" y="-133" type="curve"/>
      <point x="239" y="-25" type="line"/>
      <point x="178" y="-27"/>
      <point x="166" y="-12"/>
      <point x="184" y="65" type="curve" smooth="yes"/>
      <point x="211" y="186"/>
      <point x="244" y="277"/>
      <point x="187" y="312" type="curve"/>
      <point x="260" y="344"/>
      <point x="268" y="433"/>
      <point x="297" y="556" type="curve" smooth="yes"/>
      <point x="315" y="633"/>
      <point x="335" y="651"/>
      <point x="394" y="650" type="curve"/>
      <point x="419" y="758" type="line"/>
      <point x="287" y="759"/>
      <point x="218" y="711"/>
      <point x="192" y="600" type="curve" smooth="yes"/>
      <point x="145" y="396"/>
      <point x="143" y="364"/>
      <point x="87" y="367" type="curve"/>
      <point x="62" y="258" type="line"/>
      <point x="120" y="260"/>
      <point x="112" y="249"/>
      <point x="61" y="29" type="curve" smooth="yes"/>
      <point x="35" y="-83"/>
      <point x="83" y="-133"/>
    </contour>
    <contour>
      <point x="201" y="-117" type="line"/>
      <point x="90" y="-114"/>
      <point x="54" y="-72"/>
      <point x="77" y="25" type="curve" smooth="yes"/>
      <point x="121" y="219"/>
      <point x="140" y="269"/>
      <point x="82" y="274" type="curve"/>
      <point x="99" y="351" type="line"/>
      <point x="159" y="355"/>
      <point x="164" y="408"/>
      <point x="208" y="596" type="curve" smooth="yes"/>
      <point x="231" y="694"/>
      <point x="287" y="738"/>
      <point x="399" y="742" type="curve"/>
      <point x="382" y="666" type="line"/>
      <point x="323" y="664"/>
      <point x="299" y="638"/>
      <point x="281" y="560" type="curve" smooth="yes"/>
      <point x="247" y="412"/>
      <point x="242" y="326"/>
      <point x="138" y="313" type="curve"/>
      <point x="237" y="302"/>
      <point x="202" y="217"/>
      <point x="168" y="69" type="curve" smooth="yes"/>
      <point x="150" y="-9"/>
      <point x="163" y="-38"/>
      <point x="219" y="-41" type="curve"/>
    </contour>
  </outline>
</glyph>
<glyph name="bar" format="1">
  <advance width="246"/>
  <unicode hex="007C"/>
  <note>
    bar
  </note>
  <outline>
    <contour>
      <point x="-7" y="-58" type="line"/>
      <point x="106" y="-58" type="line"/>
      <point x="292" y="747" type="line"/>
      <point x="179" y="747" type="line"/>
    </contour>
    <contour>
      <point x="13" y="-42" type="line"/>
      <point x="191" y="731" type="line"/>
      <point x="272" y="731" type="line"/>
      <point x="94" y="-42" type="line"/>
    </contour>
  </outline>
</glyph>
<glyph name="braceright" format="1">
  <advance width="366"/>
  <unicode hex="007D"/>
  <note>
    braceright
  </note>
  <outline>
    <contour>
      <point x="-29" y="-133" type="line"/>
      <point x="104" y="-134"/>
      <point x="173" y="-86"/>
      <point x="199" y="25" type="curve" smooth="yes"/>
      <point x="248" y="240"/>
      <point x="248" y="260"/>
      <point x="304" y="258" type="curve"/>
      <point x="329" y="367" type="line"/>
      <point x="271" y="363"/>
      <point x="282" y="388"/>
      <point x="330" y="596" type="curve" smooth="yes"/>
      <point x="356" y="708"/>
      <point x="308" y="758"/>
      <point x="177" y="758" type="curve"/>
      <point x="152" y="650" type="line"/>
      <point x="214" y="652"/>
      <point x="225" y="637"/>
      <point x="207" y="560" type="curve" smooth="yes"/>
      <point x="179" y="438"/>
      <point x="147" y="348"/>
      <point x="204" y="314" type="curve"/>
      <point x="131" y="281"/>
      <point x="122" y="191"/>
      <point x="94" y="69" type="curve" smooth="yes"/>
      <point x="76" y="-8"/>
      <point x="56" y="-26"/>
      <point x="-3" y="-25" type="curve"/>
    </contour>
    <contour>
      <point x="-9" y="-117" type="curve"/>
      <point x="9" y="-41" type="line"/>
      <point x="68" y="-39"/>
      <point x="92" y="-13"/>
      <point x="110" y="65" type="curve" smooth="yes"/>
      <point x="143" y="212"/>
      <point x="149" y="299"/>
      <point x="255" y="313" type="curve"/>
      <point x="155" y="324"/>
      <point x="188" y="407"/>
      <point x="223" y="556" type="curve" smooth="yes"/>
      <point x="241" y="634"/>
      <point x="228" y="663"/>
      <point x="172" y="666" type="curve"/>
      <point x="189" y="742" type="line"/>
      <point x="301" y="739"/>
      <point x="337" y="697"/>
      <point x="314" y="600" type="curve" smooth="yes"/>
      <point x="272" y="415"/>
      <point x="252" y="357"/>
      <point x="309" y="351" type="curve"/>
      <point x="292" y="274" type="line"/>
      <point x="232" y="271"/>
      <point x="228" y="226"/>
      <point x="183" y="29" type="curve" smooth="yes"/>
      <point x="160" y="-69"/>
      <point x="104" y="-113"/>
    </contour>
  </outline>
</glyph>
<glyph name="asciitilde" format="1">
  <advance width="547"/>
  <unicode hex="007E"/>
  <note>
    asciitilde
  </note>
  <outline>
    <contour>
      <point x="360" y="196" type="curve" smooth="yes"/>
      <point x="429" y="196"/>
      <point x="487" y="239"/>
      <point x="520" y="316" type="curve"/>
      <point x="400" y="350" type="line"/>
      <point x="388" y="328"/>
      <point x="383" y="304"/>
      <point x="355" y="304" type="curve" smooth="yes"/>
      <point x="337" y="304"/>
      <point x="315" y="317"/>
      <point x="293" y="328" type="curve" smooth="yes"/>
      <point x="261" y="344"/>
      <point x="233" y="356"/>
      <point x="195" y="356" type="curve" smooth="yes"/>
      <point x="125" y="356"/>
      <point x="66" y="312"/>
      <point x="35" y="236" type="curve"/>
      <point x="155" y="202" type="line"/>
      <point x="167" y="224"/>
      <point x="172" y="248"/>
      <point x="200" y="248" type="curve" smooth="yes"/>
      <point x="212" y="248"/>
      <point x="226" y="241"/>
      <point x="242" y="233" type="curve"/>
      <point x="249" y="230"/>
      <point x="256" y="226"/>
      <point x="263" y="224" type="curve"/>
      <point x="301" y="208"/>
      <point x="328" y="196"/>
    </contour>
    <contour>
      <point x="360" y="212" type="curve" smooth="yes"/>
      <point x="332" y="212"/>
      <point x="307" y="222"/>
      <point x="269" y="238" type="curve"/>
      <point x="263" y="241"/>
      <point x="256" y="244"/>
      <point x="249" y="248" type="curve"/>
      <point x="233" y="255"/>
      <point x="216" y="264"/>
      <point x="200" y="264" type="curve" smooth="yes"/>
      <point x="167" y="264"/>
      <point x="156" y="240"/>
      <point x="147" y="221" type="curve"/>
      <point x="57" y="246" type="line"/>
      <point x="87" y="306"/>
      <point x="137" y="340"/>
      <point x="195" y="340" type="curve" smooth="yes"/>
      <point x="229" y="340"/>
      <point x="255" y="330"/>
      <point x="285" y="314" type="curve" smooth="yes"/>
      <point x="307" y="303"/>
      <point x="333" y="288"/>
      <point x="355" y="288" type="curve" smooth="yes"/>
      <point x="388" y="288"/>
      <point x="399" y="312"/>
      <point x="408" y="331" type="curve"/>
      <point x="498" y="306" type="line"/>
      <point x="467" y="246"/>
      <point x="418" y="212"/>
    </contour>
  </outline>
</glyph>
<glyph name="exclamdown" format="1">
  <advance width="344"/>
  <unicode hex="00A1"/>
  <note>
    exclamdown
  </note>
  <outline>
    <contour>
      <point x="4" y="-183" type="line"/>
      <point x="137" y="-183" type="line"/>
      <point x="242" y="271" type="line"/>
      <point x="109" y="271" type="line"/>
    </contour>
    <contour>
      <point x="24" y="-167" type="line"/>
      <point x="121" y="255" type="line"/>
      <point x="222" y="255" type="line"/>
      <point x="125" y="-167" type="line"/>
    </contour>
    <contour>
      <point x="198" y="363" type="curve" smooth="yes"/>
      <point x="246" y="363"/>
      <point x="293" y="401"/>
      <point x="304" y="449" type="curve" smooth="yes"/>
      <point x="316" y="499"/>
      <point x="285" y="539"/>
      <point x="235" y="539" type="curve" smooth="yes"/>
      <point x="185" y="539"/>
      <point x="140" y="503"/>
      <point x="128" y="453" type="curve" smooth="yes"/>
      <point x="117" y="403"/>
      <point x="148" y="363"/>
    </contour>
    <contour>
      <point x="198" y="379" type="curve" smooth="yes"/>
      <point x="158" y="379"/>
      <point x="135" y="409"/>
      <point x="144" y="449" type="curve" smooth="yes"/>
      <point x="154" y="492"/>
      <point x="193" y="523"/>
      <point x="235" y="523" type="curve" smooth="yes"/>
      <point x="275" y="523"/>
      <point x="298" y="493"/>
      <point x="288" y="453" type="curve" smooth="yes"/>
      <point x="279" y="412"/>
      <point x="238" y="379"/>
    </contour>
  </outline>
</glyph>
<glyph name="cent" format="1">
  <advance width="500"/>
  <unicode hex="00A2"/>
  <note>
    cent
  </note>
  <outline>
    <contour>
      <point x="135" y="-133" type="line"/>
      <point x="257" y="-133" type="line"/>
      <point x="284" y="-20" type="line"/>
      <point x="307" y="-23"/>
      <point x="330" y="-24"/>
      <point x="354" y="-24" type="curve"/>
      <point x="381" y="95" type="line"/>
      <point x="277" y="92"/>
      <point x="170" y="134"/>
      <point x="200" y="260" type="curve" smooth="yes"/>
      <point x="229" y="388"/>
      <point x="358" y="435"/>
      <point x="459" y="433" type="curve"/>
      <point x="486" y="550" type="line"/>
      <point x="462" y="550"/>
      <point x="438" y="549"/>
      <point x="413" y="546" type="curve"/>
      <point x="444" y="679" type="line"/>
      <point x="323" y="679" type="line"/>
      <point x="284" y="511" type="line"/>
      <point x="174" y="463"/>
      <point x="101" y="377"/>
      <point x="75" y="264" type="curve" smooth="yes"/>
      <point x="49" y="150"/>
      <point x="82" y="64"/>
      <point x="170" y="16" type="curve"/>
    </contour>
    <contour>
      <point x="155" y="-117" type="line"/>
      <point x="188" y="24" type="line"/>
      <point x="99" y="67"/>
      <point x="65" y="149"/>
      <point x="91" y="260" type="curve" smooth="yes"/>
      <point x="116" y="372"/>
      <point x="188" y="455"/>
      <point x="298" y="499" type="curve"/>
      <point x="335" y="663" type="line"/>
      <point x="424" y="663" type="line"/>
      <point x="393" y="526" type="line"/>
      <point x="419" y="531"/>
      <point x="443" y="533"/>
      <point x="466" y="534" type="curve"/>
      <point x="447" y="449" type="line"/>
      <point x="344" y="447"/>
      <point x="215" y="394"/>
      <point x="184" y="264" type="curve" smooth="yes"/>
      <point x="159" y="154"/>
      <point x="230" y="83"/>
      <point x="361" y="79" type="curve"/>
      <point x="342" y="-8" type="line"/>
      <point x="318" y="-8"/>
      <point x="295" y="-5"/>
      <point x="272" y="-2" type="curve"/>
      <point x="245" y="-117" type="line"/>
    </contour>
  </outline>
</glyph>
<glyph name="sterling" format="1">
  <advance width="642"/>
  <unicode hex="00A3"/>
  <note>
    sterling
  </note>
  <outline>
    <contour>
      <point x="69" y="-8" type="line"/>
      <point x="530" y="-8" type="line"/>
      <point x="559" y="111" type="line"/>
      <point x="244" y="111" type="line"/>
      <point x="288" y="302" type="line"/>
      <point x="477" y="302" type="line"/>
      <point x="505" y="421" type="line"/>
      <point x="317" y="421" type="line"/>
      <point x="339" y="516" type="line"/>
      <point x="339" y="516" type="line"/>
      <point x="354" y="560"/>
      <point x="400" y="594"/>
      <point x="447" y="594" type="curve" smooth="yes"/>
      <point x="500" y="594"/>
      <point x="531" y="551"/>
      <point x="513" y="500" type="curve"/>
      <point x="638" y="500" type="line"/>
      <point x="669" y="620"/>
      <point x="591" y="722"/>
      <point x="468" y="722" type="curve" smooth="yes"/>
      <point x="343" y="722"/>
      <point x="213" y="618"/>
      <point x="185" y="495" type="curve" smooth="yes"/>
      <point x="169" y="421" type="line"/>
      <point x="64" y="421" type="line"/>
      <point x="36" y="302" type="line"/>
      <point x="141" y="302" type="line"/>
    </contour>
    <contour>
      <point x="89" y="8" type="line"/>
      <point x="161" y="318" type="line"/>
      <point x="56" y="318" type="line"/>
      <point x="76" y="405" type="line"/>
      <point x="181" y="405" type="line"/>
      <point x="201" y="491" type="line" smooth="yes"/>
      <point x="227" y="607"/>
      <point x="350" y="706"/>
      <point x="468" y="706" type="curve" smooth="yes"/>
      <point x="576" y="706"/>
      <point x="646" y="621"/>
      <point x="626" y="516" type="curve"/>
      <point x="534" y="516" type="line"/>
      <point x="540" y="568"/>
      <point x="503" y="610"/>
      <point x="447" y="610" type="curve" smooth="yes"/>
      <point x="389" y="610"/>
      <point x="333" y="566"/>
      <point x="320" y="510" type="curve"/>
      <point x="328" y="500" type="line"/>
      <point x="319" y="500" type="line"/>
      <point x="297" y="405" type="line"/>
      <point x="485" y="405" type="line"/>
      <point x="465" y="318" type="line"/>
      <point x="276" y="318" type="line"/>
      <point x="224" y="95" type="line"/>
      <point x="539" y="95" type="line"/>
      <point x="518" y="8" type="line"/>
    </contour>
  </outline>
</glyph>
<glyph name="currency" format="1">
  <advance width="630"/>
  <unicode hex="00A4"/>
  <note>
    currency
  </note>
  <outline>
    <contour>
      <point x="123" y="80" type="line"/>
      <point x="181" y="126" type="line"/>
      <point x="211" y="109"/>
      <point x="244" y="101"/>
      <point x="280" y="101" type="curve" smooth="yes"/>
      <point x="316" y="101"/>
      <point x="354" y="109"/>
      <point x="391" y="126" type="curve"/>
      <point x="427" y="80" type="line"/>
      <point x="529" y="163" type="line"/>
      <point x="495" y="207" type="line"/>
      <point x="523" y="241"/>
      <point x="541" y="277"/>
      <point x="550" y="314" type="curve" smooth="yes"/>
      <point x="559" y="351"/>
      <point x="557" y="389"/>
      <point x="545" y="422" type="curve"/>
      <point x="599" y="467" type="line"/>
      <point x="533" y="552" type="line"/>
      <point x="476" y="506" type="line"/>
      <point x="448" y="523"/>
      <point x="413" y="532"/>
      <point x="376" y="532" type="curve" smooth="yes"/>
      <point x="339" y="532"/>
      <point x="301" y="523"/>
      <point x="265" y="506" type="curve"/>
      <point x="229" y="552" type="line"/>
      <point x="127" y="469" type="line"/>
      <point x="161" y="425" type="line"/>
      <point x="135" y="394"/>
      <point x="116" y="357"/>
      <point x="106" y="318" type="curve"/>
      <point x="98" y="280"/>
      <point x="99" y="243"/>
      <point x="111" y="210" type="curve"/>
      <point x="57" y="165" type="line"/>
    </contour>
    <contour>
      <point x="125" y="102" type="line"/>
      <point x="79" y="163" type="line"/>
      <point x="131" y="205" type="line"/>
      <point x="116" y="237"/>
      <point x="113" y="274"/>
      <point x="122" y="314" type="curve" smooth="yes"/>
      <point x="132" y="355"/>
      <point x="153" y="394"/>
      <point x="181" y="425" type="curve"/>
      <point x="149" y="467" type="line"/>
      <point x="227" y="530" type="line"/>
      <point x="261" y="486" type="line"/>
      <point x="297" y="505"/>
      <point x="336" y="516"/>
      <point x="376" y="516" type="curve" smooth="yes"/>
      <point x="416" y="516"/>
      <point x="451" y="505"/>
      <point x="477" y="486" type="curve"/>
      <point x="531" y="530" type="line"/>
      <point x="577" y="469" type="line"/>
      <point x="525" y="427" type="line"/>
      <point x="540" y="395"/>
      <point x="544" y="356"/>
      <point x="534" y="318" type="curve"/>
      <point x="526" y="280"/>
      <point x="505" y="242"/>
      <point x="475" y="207" type="curve"/>
      <point x="507" y="165" type="line"/>
      <point x="429" y="102" type="line"/>
      <point x="396" y="146" type="line"/>
      <point x="358" y="127"/>
      <point x="318" y="117"/>
      <point x="280" y="117" type="curve" smooth="yes"/>
      <point x="242" y="117"/>
      <point x="209" y="127"/>
      <point x="179" y="146" type="curve"/>
    </contour>
    <contour>
      <point x="303" y="215" type="curve" smooth="yes"/>
      <point x="246" y="215"/>
      <point x="211" y="259"/>
      <point x="224" y="314" type="curve" smooth="yes"/>
      <point x="237" y="372"/>
      <point x="295" y="418"/>
      <point x="354" y="418" type="curve" smooth="yes"/>
      <point x="411" y="418"/>
      <point x="445" y="374"/>
      <point x="432" y="318" type="curve" smooth="yes"/>
      <point x="419" y="261"/>
      <point x="361" y="215"/>
    </contour>
    <contour>
      <point x="303" y="199" type="curve" smooth="yes"/>
      <point x="369" y="199"/>
      <point x="433" y="250"/>
      <point x="448" y="314" type="curve" smooth="yes"/>
      <point x="463" y="381"/>
      <point x="422" y="434"/>
      <point x="354" y="434" type="curve" smooth="yes"/>
      <point x="287" y="434"/>
      <point x="223" y="383"/>
      <point x="208" y="318" type="curve" smooth="yes"/>
      <point x="193" y="252"/>
      <point x="235" y="199"/>
    </contour>
  </outline>
</glyph>
<glyph name="yen" format="1">
  <advance width="653"/>
  <unicode hex="00A5"/>
  <note>
    yen
  </note>
  <outline>
    <contour>
      <point x="150" y="-8" type="line"/>
      <point x="278" y="-8" type="line"/>
      <point x="320" y="82" type="line"/>
      <point x="498" y="82" type="line"/>
      <point x="526" y="200" type="line"/>
      <point x="375" y="200" type="line"/>
      <point x="390" y="233" type="line"/>
      <point x="533" y="233" type="line"/>
      <point x="561" y="351" type="line"/>
      <point x="488" y="351" type="line"/>
      <point x="871" y="687" type="line"/>
      <point x="707" y="687" type="line"/>
      <point x="399" y="413" type="line"/>
      <point x="344" y="687" type="line"/>
      <point x="204" y="687" type="line"/>
      <point x="277" y="351" type="line"/>
      <point x="137" y="351" type="line"/>
      <point x="109" y="233" type="line"/>
      <point x="262" y="233" type="line"/>
      <point x="247" y="200" type="line"/>
      <point x="102" y="200" type="line"/>
      <point x="74" y="82" type="line"/>
      <point x="192" y="82" type="line"/>
    </contour>
    <contour>
      <point x="176" y="8" type="line"/>
      <point x="218" y="98" type="line"/>
      <point x="94" y="98" type="line"/>
      <point x="114" y="184" type="line"/>
      <point x="257" y="184" type="line"/>
      <point x="288" y="249" type="line"/>
      <point x="129" y="249" type="line"/>
      <point x="149" y="335" type="line"/>
      <point x="297" y="335" type="line"/>
      <point x="224" y="671" type="line"/>
      <point x="330" y="671" type="line"/>
      <point x="389" y="383" type="line"/>
      <point x="713" y="671" type="line"/>
      <point x="829" y="671" type="line"/>
      <point x="446" y="335" type="line"/>
      <point x="541" y="335" type="line"/>
      <point x="521" y="249" type="line"/>
      <point x="380" y="249" type="line"/>
      <point x="349" y="184" type="line"/>
      <point x="506" y="184" type="line"/>
      <point x="486" y="98" type="line"/>
      <point x="310" y="98" type="line"/>
      <point x="268" y="8" type="line"/>
    </contour>
  </outline>
</glyph>
<glyph name="brokenbar" format="1">
  <advance width="235"/>
  <unicode hex="00A6"/>
  <note>
    brokenbar
  </note>
  <outline>
    <contour>
      <point x="-25" y="-133" type="line"/>
      <point x="78" y="-133" type="line"/>
      <point x="165" y="239" type="line"/>
      <point x="62" y="239" type="line"/>
    </contour>
    <contour>
      <point x="-5" y="-117" type="line"/>
      <point x="74" y="223" type="line"/>
      <point x="145" y="223" type="line"/>
      <point x="66" y="-117" type="line"/>
    </contour>
    <contour>
      <point x="93" y="375" type="line"/>
      <point x="196" y="375" type="line"/>
      <point x="282" y="747" type="line"/>
      <point x="179" y="747" type="line"/>
    </contour>
    <contour>
      <point x="113" y="391" type="line"/>
      <point x="191" y="731" type="line"/>
      <point x="262" y="731" type="line"/>
      <point x="184" y="391" type="line"/>
    </contour>
  </outline>
</glyph>
<glyph name="section" format="1">
  <advance width="487"/>
  <unicode hex="00A7"/>
  <note>
    section
  </note>
  <outline>
    <contour>
      <point x="112" y="-101" type="curve" smooth="yes"/>
      <point x="244" y="-101"/>
      <point x="337" y="-38"/>
      <point x="361" y="68" type="curve" smooth="yes"/>
      <point x="372" y="115"/>
      <point x="362" y="154"/>
      <point x="330" y="185" type="curve"/>
      <point x="390" y="195"/>
      <point x="454" y="253"/>
      <point x="468" y="313" type="curve" smooth="yes"/>
      <point x="488" y="399"/>
      <point x="433" y="441"/>
      <point x="396" y="473" type="curve"/>
      <point x="390" y="479"/>
      <point x="383" y="484"/>
      <point x="376" y="489" type="curve"/>
      <point x="345" y="514"/>
      <point x="318" y="536"/>
      <point x="324" y="560" type="curve" smooth="yes"/>
      <point x="330" y="588"/>
      <point x="357" y="605"/>
      <point x="396" y="605" type="curve" smooth="yes"/>
      <point x="446" y="605"/>
      <point x="495" y="572"/>
      <point x="495" y="572" type="curve"/>
      <point x="507" y="577" type="line"/>
      <point x="527" y="663" type="line"/>
      <point x="524" y="671" type="line"/>
      <point x="524" y="671"/>
      <point x="479" y="707"/>
      <point x="413" y="707" type="curve" smooth="yes"/>
      <point x="309" y="707"/>
      <point x="221" y="644"/>
      <point x="200" y="554" type="curve" smooth="yes"/>
      <point x="191" y="513"/>
      <point x="204" y="480"/>
      <point x="248" y="440" type="curve"/>
      <point x="168" y="426"/>
      <point x="110" y="377"/>
      <point x="93" y="309" type="curve" smooth="yes"/>
      <point x="75" y="228"/>
      <point x="135" y="183"/>
      <point x="176" y="147" type="curve"/>
      <point x="181" y="142"/>
      <point x="187" y="137"/>
      <point x="192" y="133" type="curve" smooth="yes"/>
      <point x="220" y="109"/>
      <point x="248" y="86"/>
      <point x="242" y="60" type="curve" smooth="yes"/>
      <point x="235" y="29"/>
      <point x="196" y="11"/>
      <point x="133" y="11" type="curve" smooth="yes"/>
      <point x="53" y="11"/>
      <point x="1" y="67"/>
      <point x="1" y="67" type="curve"/>
      <point x="-13" y="64" type="line"/>
      <point x="-38" y="-42" type="line"/>
      <point x="-35" y="-50" type="line"/>
      <point x="-35" y="-50"/>
      <point x="21" y="-101"/>
    </contour>
    <contour>
      <point x="112" y="-85" type="curve" smooth="yes"/>
      <point x="40" y="-85"/>
      <point x="-8" y="-51"/>
      <point x="-21" y="-41" type="curve"/>
      <point x="0" y="47" type="line"/>
      <point x="20" y="29"/>
      <point x="68" y="-5"/>
      <point x="133" y="-5" type="curve" smooth="yes"/>
      <point x="203" y="-5"/>
      <point x="249" y="17"/>
      <point x="258" y="56" type="curve"/>
      <point x="265" y="93"/>
      <point x="231" y="122"/>
      <point x="203" y="145" type="curve" smooth="yes"/>
      <point x="197" y="150"/>
      <point x="191" y="154"/>
      <point x="186" y="159" type="curve"/>
      <point x="145" y="195"/>
      <point x="93" y="234"/>
      <point x="109" y="305" type="curve" smooth="yes"/>
      <point x="126" y="377"/>
      <point x="194" y="425"/>
      <point x="287" y="427" type="curve"/>
      <point x="224" y="478"/>
      <point x="206" y="509"/>
      <point x="216" y="550" type="curve" smooth="yes"/>
      <point x="234" y="632"/>
      <point x="316" y="691"/>
      <point x="413" y="691" type="curve" smooth="yes"/>
      <point x="462" y="691"/>
      <point x="498" y="670"/>
      <point x="510" y="662" type="curve"/>
      <point x="494" y="592" type="line"/>
      <point x="476" y="602"/>
      <point x="436" y="621"/>
      <point x="396" y="621" type="curve" smooth="yes"/>
      <point x="349" y="621"/>
      <point x="316" y="600"/>
      <point x="308" y="564" type="curve" smooth="yes"/>
      <point x="301" y="529"/>
      <point x="336" y="501"/>
      <point x="366" y="477" type="curve"/>
      <point x="373" y="472"/>
      <point x="380" y="466"/>
      <point x="386" y="461" type="curve" smooth="yes"/>
      <point x="423" y="429"/>
      <point x="470" y="393"/>
      <point x="452" y="317" type="curve" smooth="yes"/>
      <point x="436" y="248"/>
      <point x="345" y="181"/>
      <point x="286" y="202" type="curve"/>
      <point x="339" y="167"/>
      <point x="359" y="127"/>
      <point x="345" y="72" type="curve" smooth="yes"/>
      <point x="323" y="-27"/>
      <point x="237" y="-85"/>
    </contour>
    <contour>
      <point x="348" y="305" type="curve" smooth="yes"/>
      <point x="333" y="239"/>
      <point x="201" y="246"/>
      <point x="218" y="315" type="curve"/>
      <point x="224" y="344"/>
      <point x="250" y="360"/>
      <point x="289" y="360" type="curve" smooth="yes"/>
      <point x="330" y="360"/>
      <point x="356" y="336"/>
    </contour>
    <contour>
      <point x="364" y="301" type="curve" smooth="yes"/>
      <point x="374" y="343"/>
      <point x="340" y="376"/>
      <point x="289" y="376" type="curve" smooth="yes"/>
      <point x="242" y="376"/>
      <point x="210" y="355"/>
      <point x="202" y="319" type="curve" smooth="yes"/>
      <point x="181" y="227"/>
      <point x="345" y="217"/>
    </contour>
  </outline>
</glyph>
<glyph name="dieresis" format="1">
  <advance width="376"/>
  <unicode hex="00A8"/>
  <note>
    dieresis
  </note>
  <outline>
    <contour>
      <point x="363" y="590" type="curve" smooth="yes"/>
      <point x="397" y="590"/>
      <point x="430" y="617"/>
      <point x="438" y="651" type="curve" smooth="yes"/>
      <point x="446" y="687"/>
      <point x="423" y="717"/>
      <point x="388" y="717" type="curve" smooth="yes"/>
      <point x="353" y="717"/>
      <point x="319" y="689"/>
      <point x="311" y="655" type="curve" smooth="yes"/>
      <point x="303" y="620"/>
      <point x="327" y="590"/>
    </contour>
    <contour>
      <point x="363" y="606" type="curve" smooth="yes"/>
      <point x="337" y="606"/>
      <point x="321" y="626"/>
      <point x="327" y="651" type="curve" smooth="yes"/>
      <point x="333" y="678"/>
      <point x="361" y="701"/>
      <point x="388" y="701" type="curve" smooth="yes"/>
      <point x="413" y="701"/>
      <point x="428" y="681"/>
      <point x="422" y="655" type="curve" smooth="yes"/>
      <point x="416" y="628"/>
      <point x="389" y="606"/>
    </contour>
    <contour>
      <point x="171" y="590" type="curve" smooth="yes"/>
      <point x="205" y="590"/>
      <point x="238" y="617"/>
      <point x="246" y="651" type="curve" smooth="yes"/>
      <point x="254" y="687"/>
      <point x="231" y="717"/>
      <point x="196" y="717" type="curve" smooth="yes"/>
      <point x="161" y="717"/>
      <point x="127" y="689"/>
      <point x="119" y="655" type="curve" smooth="yes"/>
      <point x="111" y="620"/>
      <point x="135" y="590"/>
    </contour>
    <contour>
      <point x="171" y="606" type="curve" smooth="yes"/>
      <point x="145" y="606"/>
      <point x="129" y="626"/>
      <point x="135" y="651" type="curve" smooth="yes"/>
      <point x="141" y="678"/>
      <point x="169" y="701"/>
      <point x="196" y="701" type="curve" smooth="yes"/>
      <point x="221" y="701"/>
      <point x="236" y="681"/>
      <point x="230" y="655" type="curve" smooth="yes"/>
      <point x="224" y="628"/>
      <point x="197" y="606"/>
    </contour>
  </outline>
</glyph>
<glyph name="copyright" format="1">
  <advance width="849"/>
  <unicode hex="00A9"/>
  <note>
    copyright
  </note>
  <outline>
    <contour>
      <point x="349" y="-75" type="curve" smooth="yes"/>
      <point x="550" y="-75"/>
      <point x="750" y="87"/>
      <point x="796" y="287" type="curve" smooth="yes"/>
      <point x="843" y="489"/>
      <point x="716" y="654"/>
      <point x="513" y="654" type="curve" smooth="yes"/>
      <point x="313" y="654"/>
      <point x="114" y="492"/>
      <point x="67" y="291" type="curve" smooth="yes"/>
      <point x="21" y="89"/>
      <point x="147" y="-75"/>
    </contour>
    <contour>
      <point x="349" y="-59" type="curve" smooth="yes"/>
      <point x="157" y="-59"/>
      <point x="39" y="95"/>
      <point x="83" y="287" type="curve" smooth="yes"/>
      <point x="128" y="481"/>
      <point x="320" y="638"/>
      <point x="513" y="638" type="curve" smooth="yes"/>
      <point x="705" y="638"/>
      <point x="825" y="482"/>
      <point x="780" y="291" type="curve" smooth="yes"/>
      <point x="736" y="98"/>
      <point x="543" y="-59"/>
    </contour>
    <contour>
      <point x="401" y="65" type="curve" smooth="yes"/>
      <point x="444" y="65"/>
      <point x="518" y="76"/>
      <point x="563" y="107" type="curve"/>
      <point x="581" y="185" type="line"/>
      <point x="568" y="194" type="line"/>
      <point x="568" y="194"/>
      <point x="510" y="152"/>
      <point x="418" y="152" type="curve" smooth="yes"/>
      <point x="333" y="152"/>
      <point x="288" y="207"/>
      <point x="306" y="287" type="curve" smooth="yes"/>
      <point x="323" y="363"/>
      <point x="401" y="426"/>
      <point x="477" y="426" type="curve" smooth="yes"/>
      <point x="570" y="426"/>
      <point x="601" y="368"/>
      <point x="601" y="368" type="curve"/>
      <point x="616" y="370" type="line"/>
      <point x="637" y="458" type="line"/>
      <point x="610" y="492"/>
      <point x="555" y="513"/>
      <point x="493" y="513" type="curve" smooth="yes"/>
      <point x="361" y="513"/>
      <point x="242" y="419"/>
      <point x="212" y="291" type="curve" smooth="yes"/>
      <point x="181" y="154"/>
      <point x="256" y="65"/>
    </contour>
    <contour>
      <point x="401" y="81" type="curve" smooth="yes"/>
      <point x="266" y="81"/>
      <point x="199" y="161"/>
      <point x="228" y="287" type="curve" smooth="yes"/>
      <point x="256" y="408"/>
      <point x="368" y="497"/>
      <point x="493" y="497" type="curve" smooth="yes"/>
      <point x="547" y="497"/>
      <point x="594" y="480"/>
      <point x="619" y="454" type="curve"/>
      <point x="604" y="391" type="line"/>
      <point x="587" y="410"/>
      <point x="548" y="442"/>
      <point x="477" y="442" type="curve" smooth="yes"/>
      <point x="394" y="442"/>
      <point x="309" y="374"/>
      <point x="290" y="291" type="curve" smooth="yes"/>
      <point x="270" y="201"/>
      <point x="323" y="136"/>
      <point x="418" y="136" type="curve" smooth="yes"/>
      <point x="486" y="136"/>
      <point x="537" y="157"/>
      <point x="561" y="171" type="curve"/>
      <point x="549" y="117" type="line"/>
      <point x="506" y="90"/>
      <point x="442" y="81"/>
    </contour>
    <contour>
      <point x="365" y="9" type="curve" smooth="yes"/>
      <point x="210" y="9"/>
      <point x="115" y="132"/>
      <point x="151" y="287" type="curve" smooth="yes"/>
      <point x="187" y="444"/>
      <point x="342" y="570"/>
      <point x="498" y="570" type="curve" smooth="yes"/>
      <point x="653" y="570"/>
      <point x="748" y="446"/>
      <point x="712" y="291" type="curve" smooth="yes"/>
      <point x="676" y="135"/>
      <point x="521" y="9"/>
    </contour>
    <contour>
      <point x="365" y="-7" type="curve" smooth="yes"/>
      <point x="529" y="-7"/>
      <point x="690" y="124"/>
      <point x="728" y="287" type="curve" smooth="yes"/>
      <point x="766" y="452"/>
      <point x="663" y="586"/>
      <point x="498" y="586" type="curve" smooth="yes"/>
      <point x="334" y="586"/>
      <point x="173" y="455"/>
      <point x="135" y="291" type="curve" smooth="yes"/>
      <point x="97" y="126"/>
      <point x="200" y="-7"/>
    </contour>
  </outline>
</glyph>
<glyph name="guillemotleft" format="1">
  <advance width="504"/>
  <unicode hex="00AB"/>
  <note>
    guillemotleft
  </note>
  <outline>
    <contour>
      <point x="305" y="52" type="line"/>
      <point x="440" y="52" type="line"/>
      <point x="354" y="262" type="line"/>
      <point x="538" y="466" type="line"/>
      <point x="398" y="466" type="line"/>
      <point x="218" y="266" type="line"/>
    </contour>
    <contour>
      <point x="315" y="68" type="line"/>
      <point x="236" y="262" type="line"/>
      <point x="406" y="450" type="line"/>
      <point x="502" y="450" type="line"/>
      <point x="336" y="266" type="line"/>
      <point x="416" y="68" type="line"/>
    </contour>
    <contour>
      <point x="115" y="52" type="line"/>
      <point x="250" y="52" type="line"/>
      <point x="164" y="262" type="line"/>
      <point x="348" y="466" type="line"/>
      <point x="208" y="466" type="line"/>
      <point x="28" y="266" type="line"/>
    </contour>
    <contour>
      <point x="125" y="68" type="line"/>
      <point x="46" y="262" type="line"/>
      <point x="216" y="450" type="line"/>
      <point x="312" y="450" type="line"/>
      <point x="146" y="266" type="line"/>
      <point x="226" y="68" type="line"/>
    </contour>
  </outline>
</glyph>
<glyph name="logicalnot" format="1">
  <advance width="542"/>
  <unicode hex="00AC"/>
  <note>
    logicalnot
  </note>
  <outline>
    <contour>
      <point x="328" y="91" type="line"/>
      <point x="461" y="91" type="line"/>
      <point x="522" y="355" type="line"/>
      <point x="64" y="355" type="line"/>
      <point x="37" y="237" type="line"/>
      <point x="362" y="237" type="line"/>
    </contour>
    <contour>
      <point x="348" y="107" type="line"/>
      <point x="382" y="253" type="line"/>
      <point x="57" y="253" type="line"/>
      <point x="76" y="339" type="line"/>
      <point x="502" y="339" type="line"/>
      <point x="449" y="107" type="line"/>
    </contour>
  </outline>
</glyph>
<glyph name="uni00AD" format="1">
  <advance width="600"/>
  <unicode hex="00AD"/>
  <note>
    uni00AD
  </note>
  <outline>
    <contour>
      <point x="58" y="236" type="line"/>
      <point x="446" y="236" type="line"/>
      <point x="473" y="354" type="line"/>
      <point x="85" y="354" type="line"/>
    </contour>
    <contour>
      <point x="78" y="252" type="line"/>
      <point x="97" y="338" type="line"/>
      <point x="453" y="338" type="line"/>
      <point x="434" y="252" type="line"/>
    </contour>
  </outline>
</glyph>
<glyph name="registered" format="1">
  <advance width="849"/>
  <unicode hex="00AE"/>
  <note>
    registered
  </note>
  <outline>
    <contour>
      <point x="349" y="-75" type="curve" smooth="yes"/>
      <point x="550" y="-75"/>
      <point x="750" y="87"/>
      <point x="796" y="287" type="curve" smooth="yes"/>
      <point x="843" y="489"/>
      <point x="716" y="654"/>
      <point x="513" y="654" type="curve" smooth="yes"/>
      <point x="313" y="654"/>
      <point x="114" y="492"/>
      <point x="67" y="291" type="curve" smooth="yes"/>
      <point x="21" y="89"/>
      <point x="147" y="-75"/>
    </contour>
    <contour>
      <point x="349" y="-59" type="curve" smooth="yes"/>
      <point x="157" y="-59"/>
      <point x="39" y="95"/>
      <point x="83" y="287" type="curve" smooth="yes"/>
      <point x="128" y="481"/>
      <point x="320" y="638"/>
      <point x="513" y="638" type="curve" smooth="yes"/>
      <point x="705" y="638"/>
      <point x="825" y="482"/>
      <point x="780" y="291" type="curve" smooth="yes"/>
      <point x="736" y="98"/>
      <point x="543" y="-59"/>
    </contour>
    <contour>
      <point x="201" y="78" type="line"/>
      <point x="294" y="78" type="line"/>
      <point x="326" y="215" type="line"/>
      <point x="440" y="215" type="line"/>
      <point x="486" y="78" type="line"/>
      <point x="588" y="78" type="line"/>
      <point x="528" y="236" type="line"/>
      <point x="583" y="260"/>
      <point x="620" y="303"/>
      <point x="632" y="354" type="curve" smooth="yes"/>
      <point x="653" y="450"/>
      <point x="608" y="497"/>
      <point x="494" y="497" type="curve" smooth="yes"/>
      <point x="298" y="497" type="line"/>
    </contour>
    <contour>
      <point x="221" y="94" type="line"/>
      <point x="310" y="481" type="line"/>
      <point x="494" y="481" type="line" smooth="yes"/>
      <point x="598" y="481"/>
      <point x="635" y="443"/>
      <point x="616" y="358" type="curve" smooth="yes"/>
      <point x="604" y="307"/>
      <point x="565" y="266"/>
      <point x="508" y="245" type="curve"/>
      <point x="564" y="94" type="line"/>
      <point x="498" y="94" type="line"/>
      <point x="452" y="231" type="line"/>
      <point x="314" y="231" type="line"/>
      <point x="282" y="94" type="line"/>
    </contour>
    <contour>
      <point x="365" y="9" type="curve" smooth="yes"/>
      <point x="210" y="9"/>
      <point x="115" y="132"/>
      <point x="151" y="287" type="curve" smooth="yes"/>
      <point x="187" y="444"/>
      <point x="342" y="570"/>
      <point x="498" y="570" type="curve" smooth="yes"/>
      <point x="653" y="570"/>
      <point x="748" y="446"/>
      <point x="712" y="291" type="curve" smooth="yes"/>
      <point x="676" y="135"/>
      <point x="521" y="9"/>
    </contour>
    <contour>
      <point x="365" y="-7" type="curve" smooth="yes"/>
      <point x="529" y="-7"/>
      <point x="690" y="124"/>
      <point x="728" y="287" type="curve" smooth="yes"/>
      <point x="766" y="452"/>
      <point x="663" y="586"/>
      <point x="498" y="586" type="curve" smooth="yes"/>
      <point x="334" y="586"/>
      <point x="173" y="455"/>
      <point x="135" y="291" type="curve" smooth="yes"/>
      <point x="97" y="126"/>
      <point x="200" y="-7"/>
    </contour>
    <contour>
      <point x="345" y="297" type="line"/>
      <point x="372" y="413" type="line"/>
      <point x="477" y="413" type="line" smooth="yes"/>
      <point x="530" y="413"/>
      <point x="545" y="399"/>
      <point x="536" y="358" type="curve" smooth="yes"/>
      <point x="526" y="315"/>
      <point x="499" y="297"/>
      <point x="446" y="297" type="curve" smooth="yes"/>
    </contour>
    <contour>
      <point x="325" y="281" type="line"/>
      <point x="446" y="281" type="line" smooth="yes"/>
      <point x="506" y="281"/>
      <point x="540" y="304"/>
      <point x="552" y="354" type="curve" smooth="yes"/>
      <point x="564" y="406"/>
      <point x="540" y="429"/>
      <point x="477" y="429" type="curve" smooth="yes"/>
      <point x="360" y="429" type="line"/>
    </contour>
  </outline>
</glyph>
<glyph name="macron" format="1">
  <advance width="297"/>
  <unicode hex="00AF"/>
  <note>
    macron
  </note>
  <outline>
    <contour>
      <point x="79" y="593" type="line"/>
      <point x="372" y="593" type="line"/>
      <point x="397" y="699" type="line"/>
      <point x="104" y="699" type="line"/>
    </contour>
    <contour>
      <point x="99" y="609" type="line"/>
      <point x="116" y="683" type="line"/>
      <point x="377" y="683" type="line"/>
      <point x="360" y="609" type="line"/>
    </contour>
  </outline>
</glyph>
<glyph name="degree" format="1">
  <advance width="318"/>
  <unicode hex="00B0"/>
  <note>
    degree
  </note>
  <outline>
    <contour>
      <point x="205" y="449" type="curve" smooth="yes"/>
      <point x="282" y="449"/>
      <point x="358" y="510"/>
      <point x="376" y="586" type="curve" smooth="yes"/>
      <point x="394" y="664"/>
      <point x="344" y="729"/>
      <point x="266" y="729" type="curve" smooth="yes"/>
      <point x="190" y="729"/>
      <point x="114" y="667"/>
      <point x="96" y="590" type="curve" smooth="yes"/>
      <point x="78" y="513"/>
      <point x="128" y="449"/>
    </contour>
    <contour>
      <point x="205" y="465" type="curve" smooth="yes"/>
      <point x="138" y="465"/>
      <point x="96" y="519"/>
      <point x="112" y="586" type="curve" smooth="yes"/>
      <point x="128" y="656"/>
      <point x="198" y="713"/>
      <point x="266" y="713" type="curve" smooth="yes"/>
      <point x="334" y="713"/>
      <point x="376" y="658"/>
      <point x="360" y="590" type="curve" smooth="yes"/>
      <point x="344" y="521"/>
      <point x="274" y="465"/>
    </contour>
    <contour>
      <point x="219" y="528" type="curve" smooth="yes"/>
      <point x="188" y="528"/>
      <point x="168" y="554"/>
      <point x="175" y="586" type="curve" smooth="yes"/>
      <point x="183" y="621"/>
      <point x="218" y="650"/>
      <point x="251" y="650" type="curve" smooth="yes"/>
      <point x="284" y="650"/>
      <point x="305" y="623"/>
      <point x="297" y="590" type="curve" smooth="yes"/>
      <point x="290" y="557"/>
      <point x="254" y="528"/>
    </contour>
    <contour>
      <point x="219" y="512" type="curve" smooth="yes"/>
      <point x="261" y="512"/>
      <point x="304" y="546"/>
      <point x="313" y="586" type="curve" smooth="yes"/>
      <point x="323" y="629"/>
      <point x="294" y="666"/>
      <point x="251" y="666" type="curve" smooth="yes"/>
      <point x="210" y="666"/>
      <point x="169" y="632"/>
      <point x="159" y="590" type="curve" smooth="yes"/>
      <point x="150" y="547"/>
      <point x="177" y="512"/>
    </contour>
  </outline>
</glyph>
<glyph name="plusminus" format="1">
  <advance width="542"/>
  <unicode hex="00B1"/>
  <note>
    plusminus
  </note>
  <outline>
    <contour>
      <point x="188" y="191" type="line"/>
      <point x="321" y="191" type="line"/>
      <point x="345" y="295" type="line"/>
      <point x="508" y="295" type="line"/>
      <point x="536" y="414" type="line"/>
      <point x="373" y="414" type="line"/>
      <point x="399" y="525" type="line"/>
      <point x="266" y="525" type="line"/>
      <point x="240" y="414" type="line"/>
      <point x="78" y="414" type="line"/>
      <point x="50" y="295" type="line"/>
      <point x="212" y="295" type="line"/>
    </contour>
    <contour>
      <point x="208" y="207" type="line"/>
      <point x="232" y="311" type="line"/>
      <point x="70" y="311" type="line"/>
      <point x="90" y="398" type="line"/>
      <point x="252" y="398" type="line"/>
      <point x="278" y="509" type="line"/>
      <point x="379" y="509" type="line"/>
      <point x="353" y="398" type="line"/>
      <point x="516" y="398" type="line"/>
      <point x="496" y="311" type="line"/>
      <point x="333" y="311" type="line"/>
      <point x="309" y="207" type="line"/>
    </contour>
    <contour>
      <point x="-20" y="-8" type="line"/>
      <point x="438" y="-8" type="line"/>
      <point x="466" y="110" type="line"/>
      <point x="8" y="110" type="line"/>
    </contour>
    <contour>
      <point x="0" y="8" type="line"/>
      <point x="20" y="94" type="line"/>
      <point x="446" y="94" type="line"/>
      <point x="426" y="8" type="line"/>
    </contour>
  </outline>
</glyph>
<glyph name="uni00B2" format="1">
  <advance width="319"/>
  <unicode hex="00B2"/>
  <note>
    uni00B2
  </note>
  <outline>
    <contour>
      <point x="45" y="358" type="line"/>
      <point x="308" y="358" type="line"/>
      <point x="327" y="440" type="line"/>
      <point x="233" y="440" type="line"/>
      <point x="321" y="521" type="line" smooth="yes"/>
      <point x="343" y="541"/>
      <point x="359" y="566"/>
      <point x="364" y="592" type="curve"/>
      <point x="379" y="654"/>
      <point x="337" y="707"/>
      <point x="272" y="707" type="curve" smooth="yes"/>
      <point x="209" y="707"/>
      <point x="145" y="657"/>
      <point x="130" y="596" type="curve"/>
      <point x="120" y="548"/>
      <point x="141" y="505"/>
      <point x="183" y="489" type="curve"/>
    </contour>
    <contour>
      <point x="85" y="374" type="line"/>
      <point x="215" y="497" type="line"/>
      <point x="164" y="501"/>
      <point x="135" y="543"/>
      <point x="146" y="592" type="curve" smooth="yes"/>
      <point x="159" y="646"/>
      <point x="216" y="691"/>
      <point x="272" y="691" type="curve" smooth="yes"/>
      <point x="327" y="691"/>
      <point x="361" y="648"/>
      <point x="348" y="596" type="curve"/>
      <point x="344" y="573"/>
      <point x="330" y="551"/>
      <point x="311" y="533" type="curve" smooth="yes"/>
      <point x="191" y="424" type="line"/>
      <point x="307" y="424" type="line"/>
      <point x="296" y="374" type="line"/>
    </contour>
    <contour>
      <point x="238" y="563" type="curve" smooth="yes"/>
      <point x="221" y="563"/>
      <point x="212" y="575"/>
      <point x="216" y="592" type="curve" smooth="yes"/>
      <point x="220" y="611"/>
      <point x="238" y="625"/>
      <point x="256" y="625" type="curve" smooth="yes"/>
      <point x="272" y="625"/>
      <point x="282" y="612"/>
      <point x="278" y="596" type="curve" smooth="yes"/>
      <point x="274" y="578"/>
      <point x="256" y="563"/>
    </contour>
    <contour>
      <point x="238" y="547" type="curve" smooth="yes"/>
      <point x="264" y="547"/>
      <point x="288" y="567"/>
      <point x="294" y="592" type="curve" smooth="yes"/>
      <point x="300" y="619"/>
      <point x="283" y="641"/>
      <point x="256" y="641" type="curve" smooth="yes"/>
      <point x="230" y="641"/>
      <point x="206" y="622"/>
      <point x="200" y="596" type="curve" smooth="yes"/>
      <point x="194" y="568"/>
      <point x="210" y="547"/>
    </contour>
  </outline>
</glyph>
<glyph name="uni00B3" format="1">
  <advance width="298"/>
  <unicode hex="00B3"/>
  <note>
    uni00B3
  </note>
  <outline>
    <contour>
      <point x="172" y="350" type="curve" smooth="yes"/>
      <point x="236" y="350"/>
      <point x="299" y="400"/>
      <point x="313" y="461" type="curve" smooth="yes"/>
      <point x="323" y="502"/>
      <point x="310" y="534"/>
      <point x="278" y="550" type="curve"/>
      <point x="368" y="688" type="line"/>
      <point x="145" y="688" type="line"/>
      <point x="126" y="606" type="line"/>
      <point x="235" y="606" type="line"/>
      <point x="163" y="494" type="line"/>
      <point x="205" y="494" type="line" smooth="yes"/>
      <point x="221" y="494"/>
      <point x="231" y="481"/>
      <point x="227" y="465" type="curve" smooth="yes"/>
      <point x="223" y="447"/>
      <point x="205" y="432"/>
      <point x="187" y="432" type="curve" smooth="yes"/>
      <point x="167" y="432"/>
      <point x="158" y="448"/>
      <point x="168" y="472" type="curve"/>
      <point x="81" y="472" type="line"/>
      <point x="62" y="405"/>
      <point x="105" y="350"/>
    </contour>
    <contour>
      <point x="172" y="366" type="curve" smooth="yes"/>
      <point x="119" y="366"/>
      <point x="86" y="405"/>
      <point x="94" y="456" type="curve"/>
      <point x="148" y="456" type="line"/>
      <point x="147" y="433"/>
      <point x="162" y="416"/>
      <point x="187" y="416" type="curve" smooth="yes"/>
      <point x="213" y="416"/>
      <point x="237" y="436"/>
      <point x="243" y="461" type="curve" smooth="yes"/>
      <point x="249" y="488"/>
      <point x="232" y="510"/>
      <point x="205" y="510" type="curve" smooth="yes"/>
      <point x="193" y="510" type="line"/>
      <point x="265" y="622" type="line"/>
      <point x="146" y="622" type="line"/>
      <point x="157" y="672" type="line"/>
      <point x="338" y="672" type="line"/>
      <point x="253" y="541" type="line"/>
      <point x="292" y="533"/>
      <point x="307" y="506"/>
      <point x="297" y="465" type="curve" smooth="yes"/>
      <point x="285" y="411"/>
      <point x="228" y="366"/>
    </contour>
  </outline>
</glyph>
<glyph name="acute" format="1">
  <advance width="263"/>
  <unicode hex="00B4"/>
  <note>
    acute
  </note>
  <outline>
    <contour>
      <point x="152" y="578" type="line"/>
      <point x="275" y="578" type="line"/>
      <point x="495" y="765" type="line"/>
      <point x="337" y="765" type="line"/>
    </contour>
    <contour>
      <point x="190" y="594" type="line"/>
      <point x="343" y="749" type="line"/>
      <point x="451" y="749" type="line"/>
      <point x="269" y="594" type="line"/>
    </contour>
  </outline>
</glyph>
<glyph name="uni00B5" format="1">
  <advance width="677"/>
  <unicode hex="00B5"/>
  <note>
    uni00B5
  </note>
  <outline>
    <contour>
      <point x="-60" y="-224" type="line"/>
      <point x="64" y="-224" type="line"/>
      <point x="117" y="2" type="line"/>
      <point x="146" y="-15"/>
      <point x="185" y="-24"/>
      <point x="232" y="-24" type="curve" smooth="yes"/>
      <point x="288" y="-24"/>
      <point x="352" y="-12"/>
      <point x="408" y="43" type="curve"/>
      <point x="444" y="-24"/>
      <point x="532" y="-24"/>
      <point x="600" y="-24" type="curve"/>
      <point x="626" y="87" type="line"/>
      <point x="493" y="84"/>
      <point x="512" y="146"/>
      <point x="526" y="204" type="curve" smooth="yes"/>
      <point x="600" y="525" type="line"/>
      <point x="476" y="525" type="line"/>
      <point x="402" y="208" type="line"/>
      <point x="398" y="191" type="line" smooth="yes"/>
      <point x="389" y="157"/>
      <point x="359" y="87"/>
      <point x="254" y="87" type="curve" smooth="yes"/>
      <point x="183" y="87"/>
      <point x="149" y="120"/>
      <point x="159" y="182" type="curve"/>
      <point x="159" y="181" type="line"/>
      <point x="238" y="525" type="line"/>
      <point x="114" y="525" type="line"/>
    </contour>
    <contour>
      <point x="-40" y="-208" type="line"/>
      <point x="126" y="509" type="line"/>
      <point x="218" y="509" type="line"/>
      <point x="143" y="185" type="line"/>
      <point x="143" y="184" type="line"/>
      <point x="132" y="113"/>
      <point x="173" y="71"/>
      <point x="254" y="71" type="curve" smooth="yes"/>
      <point x="369" y="71"/>
      <point x="405" y="151"/>
      <point x="414" y="187" type="curve" smooth="yes"/>
      <point x="418" y="204" type="line"/>
      <point x="488" y="509" type="line"/>
      <point x="580" y="509" type="line"/>
      <point x="510" y="208" type="line" smooth="yes"/>
      <point x="498" y="153"/>
      <point x="473" y="75"/>
      <point x="606" y="71" type="curve"/>
      <point x="588" y="-8" type="line"/>
      <point x="514" y="-8"/>
      <point x="436" y="-4"/>
      <point x="413" y="72" type="curve"/>
      <point x="366" y="17"/>
      <point x="309" y="-8"/>
      <point x="232" y="-8" type="curve" smooth="yes"/>
      <point x="175" y="-8"/>
      <point x="133" y="5"/>
      <point x="107" y="29" type="curve"/>
      <point x="52" y="-208" type="line"/>
    </contour>
  </outline>
</glyph>
<glyph name="paragraph" format="1">
  <advance width="661"/>
  <unicode hex="00B6"/>
  <note>
    paragraph
  </note>
  <outline>
    <contour>
      <point x="201" y="-8" type="line"/>
      <point x="325" y="-8" type="line"/>
      <point x="459" y="569" type="line"/>
      <point x="527" y="569" type="line"/>
      <point x="393" y="-8" type="line"/>
      <point x="517" y="-8" type="line"/>
      <point x="678" y="687" type="line"/>
      <point x="368" y="687" type="line" smooth="yes"/>
      <point x="224" y="687"/>
      <point x="116" y="603"/>
      <point x="85" y="468" type="curve" smooth="yes"/>
      <point x="57" y="344"/>
      <point x="125" y="265"/>
      <point x="263" y="261" type="curve"/>
    </contour>
    <contour>
      <point x="221" y="8" type="line"/>
      <point x="283" y="277" type="line"/>
      <point x="142" y="274"/>
      <point x="73" y="344"/>
      <point x="101" y="464" type="curve" smooth="yes"/>
      <point x="130" y="592"/>
      <point x="231" y="671"/>
      <point x="368" y="671" type="curve" smooth="yes"/>
      <point x="658" y="671" type="line"/>
      <point x="505" y="8" type="line"/>
      <point x="413" y="8" type="line"/>
      <point x="547" y="585" type="line"/>
      <point x="447" y="585" type="line"/>
      <point x="313" y="8" type="line"/>
    </contour>
  </outline>
</glyph>
<glyph name="periodcentered" format="1">
  <advance width="320"/>
  <unicode hex="00B7"/>
  <note>
    periodcentered
  </note>
  <outline>
    <contour>
      <point x="162" y="258" type="curve" smooth="yes"/>
      <point x="211" y="258"/>
      <point x="257" y="296"/>
      <point x="268" y="344" type="curve" smooth="yes"/>
      <point x="279" y="393"/>
      <point x="248" y="434"/>
      <point x="199" y="434" type="curve" smooth="yes"/>
      <point x="150" y="434"/>
      <point x="103" y="396"/>
      <point x="92" y="348" type="curve" smooth="yes"/>
      <point x="81" y="297"/>
      <point x="111" y="258"/>
    </contour>
    <contour>
      <point x="162" y="274" type="curve" smooth="yes"/>
      <point x="121" y="274"/>
      <point x="99" y="303"/>
      <point x="108" y="344" type="curve" smooth="yes"/>
      <point x="117" y="385"/>
      <point x="158" y="418"/>
      <point x="199" y="418" type="curve" smooth="yes"/>
      <point x="238" y="418"/>
      <point x="261" y="387"/>
      <point x="252" y="348" type="curve" smooth="yes"/>
      <point x="243" y="307"/>
      <point x="203" y="274"/>
    </contour>
  </outline>
</glyph>
<glyph name="cedilla" format="1">
  <advance width="141"/>
  <unicode hex="00B8"/>
  <note>
    cedilla
  </note>
  <outline>
    <contour>
      <point x="-120" y="-224" type="line"/>
      <point x="-24" y="-226"/>
      <point x="45" y="-193"/>
      <point x="59" y="-135" type="curve"/>
      <point x="68" y="-90"/>
      <point x="31" y="-71"/>
      <point x="12" y="-65" type="curve"/>
      <point x="43" y="-6" type="line"/>
      <point x="-46" y="-6" type="line"/>
      <point x="-83" y="-80" type="line"/>
      <point x="-77" y="-92" type="line"/>
      <point x="-77" y="-92"/>
      <point x="-30" y="-95"/>
      <point x="-36" y="-120" type="curve" smooth="yes"/>
      <point x="-40" y="-138"/>
      <point x="-68" y="-152"/>
      <point x="-102" y="-150" type="curve"/>
    </contour>
    <contour>
      <point x="-100" y="-208" type="curve"/>
      <point x="-90" y="-166" type="line"/>
      <point x="-54" y="-164"/>
      <point x="-26" y="-147"/>
      <point x="-20" y="-124" type="curve"/>
      <point x="-13" y="-92"/>
      <point x="-46" y="-81"/>
      <point x="-64" y="-78" type="curve"/>
      <point x="-36" y="-22" type="line"/>
      <point x="17" y="-22" type="line"/>
      <point x="-7" y="-66" type="line"/>
      <point x="-2" y="-78" type="line"/>
      <point x="-2" y="-78"/>
      <point x="52" y="-88"/>
      <point x="43" y="-131" type="curve" smooth="yes"/>
      <point x="32" y="-177"/>
      <point x="-23" y="-206"/>
    </contour>
  </outline>
</glyph>
<glyph name="uni00B9" format="1">
  <advance width="301"/>
  <unicode hex="00B9"/>
  <note>
    uni00B9
  </note>
  <outline>
    <contour>
      <point x="55" y="357" type="line"/>
      <point x="292" y="357" type="line"/>
      <point x="311" y="438" type="line"/>
      <point x="245" y="438" type="line"/>
      <point x="302" y="688" type="line"/>
      <point x="131" y="688" type="line"/>
      <point x="113" y="608" type="line"/>
      <point x="188" y="608" type="line"/>
      <point x="149" y="438" type="line"/>
      <point x="74" y="438" type="line"/>
    </contour>
    <contour>
      <point x="75" y="373" type="line"/>
      <point x="86" y="422" type="line"/>
      <point x="161" y="422" type="line"/>
      <point x="208" y="624" type="line"/>
      <point x="133" y="624" type="line"/>
      <point x="143" y="672" type="line"/>
      <point x="282" y="672" type="line"/>
      <point x="225" y="422" type="line"/>
      <point x="291" y="422" type="line"/>
      <point x="280" y="373" type="line"/>
    </contour>
  </outline>
</glyph>
<glyph name="ordmasculine" format="1">
  <advance width="390"/>
  <unicode hex="00BA"/>
  <note>
    ordmasculine
  </note>
  <outline>
    <contour>
      <point x="195" y="240" type="curve" smooth="yes"/>
      <point x="279" y="240"/>
      <point x="348" y="307"/>
      <point x="348" y="388" type="curve" smooth="yes"/>
      <point x="348" y="470"/>
      <point x="279" y="537"/>
      <point x="195" y="537" type="curve" smooth="yes"/>
      <point x="110" y="537"/>
      <point x="42" y="471"/>
      <point x="42" y="388" type="curve" smooth="yes"/>
      <point x="42" y="306"/>
      <point x="110" y="240"/>
    </contour>
    <contour>
      <point x="195" y="256" type="curve" smooth="yes"/>
      <point x="119" y="256"/>
      <point x="58" y="315"/>
      <point x="58" y="388" type="curve" smooth="yes"/>
      <point x="58" y="462"/>
      <point x="119" y="521"/>
      <point x="195" y="521" type="curve" smooth="yes"/>
      <point x="271" y="521"/>
      <point x="332" y="462"/>
      <point x="332" y="388" type="curve" smooth="yes"/>
      <point x="332" y="315"/>
      <point x="271" y="256"/>
    </contour>
    <contour>
      <point x="195" y="329" type="curve" smooth="yes"/>
      <point x="160" y="329"/>
      <point x="134" y="354"/>
      <point x="134" y="388" type="curve" smooth="yes"/>
      <point x="134" y="423"/>
      <point x="160" y="449"/>
      <point x="195" y="449" type="curve" smooth="yes"/>
      <point x="229" y="449"/>
      <point x="256" y="422"/>
      <point x="256" y="388" type="curve" smooth="yes"/>
      <point x="256" y="355"/>
      <point x="229" y="329"/>
    </contour>
    <contour>
      <point x="195" y="313" type="curve" smooth="yes"/>
      <point x="238" y="313"/>
      <point x="272" y="346"/>
      <point x="272" y="388" type="curve" smooth="yes"/>
      <point x="272" y="431"/>
      <point x="238" y="465"/>
      <point x="195" y="465" type="curve" smooth="yes"/>
      <point x="152" y="465"/>
      <point x="118" y="431"/>
      <point x="118" y="388" type="curve" smooth="yes"/>
      <point x="118" y="346"/>
      <point x="152" y="313"/>
    </contour>
  </outline>
</glyph>
<glyph name="guillemotright" format="1">
  <advance width="414"/>
  <unicode hex="00BB"/>
  <note>
    guillemotright
  </note>
  <outline>
    <contour>
      <point x="156" y="52" type="line"/>
      <point x="296" y="52" type="line"/>
      <point x="478" y="263" type="line"/>
      <point x="389" y="466" type="line"/>
      <point x="254" y="466" type="line"/>
      <point x="342" y="265" type="line"/>
    </contour>
    <contour>
      <point x="192" y="68" type="line"/>
      <point x="360" y="263" type="line"/>
      <point x="278" y="450" type="line"/>
      <point x="379" y="450" type="line"/>
      <point x="460" y="265" type="line"/>
      <point x="288" y="68" type="line"/>
    </contour>
    <contour>
      <point x="-34" y="52" type="line"/>
      <point x="106" y="52" type="line"/>
      <point x="288" y="263" type="line"/>
      <point x="199" y="466" type="line"/>
      <point x="64" y="466" type="line"/>
      <point x="152" y="265" type="line"/>
    </contour>
    <contour>
      <point x="2" y="68" type="line"/>
      <point x="170" y="263" type="line"/>
      <point x="88" y="450" type="line"/>
      <point x="189" y="450" type="line"/>
      <point x="270" y="265" type="line"/>
      <point x="98" y="68" type="line"/>
    </contour>
  </outline>
</glyph>
<glyph name="onequarter" format="1">
  <advance width="637"/>
  <unicode hex="00BC"/>
  <note>
    onequarter
  </note>
  <outline>
    <contour>
      <point x="-27" y="-65" type="line"/>
      <point x="91" y="-65" type="line"/>
      <point x="726" y="708" type="line"/>
      <point x="608" y="708" type="line"/>
    </contour>
    <contour>
      <point x="7" y="-49" type="line"/>
      <point x="616" y="692" type="line"/>
      <point x="692" y="692" type="line"/>
      <point x="83" y="-49" type="line"/>
    </contour>
    <contour>
      <point x="423" y="-8" type="line"/>
      <point x="524" y="-8" type="line"/>
      <point x="568" y="182" type="line"/>
      <point x="454" y="182" type="line"/>
      <point x="571" y="334" type="line"/>
      <point x="470" y="334" type="line"/>
      <point x="284" y="101" type="line"/>
      <point x="448" y="101" type="line"/>
    </contour>
    <contour>
      <point x="443" y="8" type="line"/>
      <point x="468" y="117" type="line"/>
      <point x="318" y="117" type="line"/>
      <point x="478" y="318" type="line"/>
      <point x="539" y="318" type="line"/>
      <point x="422" y="166" type="line"/>
      <point x="548" y="166" type="line"/>
      <point x="512" y="8" type="line"/>
    </contour>
    <contour>
      <point x="55" y="357" type="line"/>
      <point x="292" y="357" type="line"/>
      <point x="311" y="438" type="line"/>
      <point x="245" y="438" type="line"/>
      <point x="302" y="688" type="line"/>
      <point x="131" y="688" type="line"/>
      <point x="113" y="608" type="line"/>
      <point x="188" y="608" type="line"/>
      <point x="149" y="438" type="line"/>
      <point x="74" y="438" type="line"/>
    </contour>
    <contour>
      <point x="75" y="373" type="line"/>
      <point x="86" y="422" type="line"/>
      <point x="161" y="422" type="line"/>
      <point x="208" y="624" type="line"/>
      <point x="133" y="624" type="line"/>
      <point x="143" y="672" type="line"/>
      <point x="282" y="672" type="line"/>
      <point x="225" y="422" type="line"/>
      <point x="291" y="422" type="line"/>
      <point x="280" y="373" type="line"/>
    </contour>
  </outline>
</glyph>
<glyph name="onehalf" format="1">
  <advance width="685"/>
  <unicode hex="00BD"/>
  <note>
    onehalf
  </note>
  <outline>
    <contour>
      <point x="-16" y="-65" type="line"/>
      <point x="102" y="-65" type="line"/>
      <point x="737" y="708" type="line"/>
      <point x="619" y="708" type="line"/>
    </contour>
    <contour>
      <point x="18" y="-49" type="line"/>
      <point x="627" y="692" type="line"/>
      <point x="703" y="692" type="line"/>
      <point x="94" y="-49" type="line"/>
    </contour>
    <contour>
      <point x="55" y="357" type="line"/>
      <point x="292" y="357" type="line"/>
      <point x="311" y="438" type="line"/>
      <point x="245" y="438" type="line"/>
      <point x="302" y="688" type="line"/>
      <point x="131" y="688" type="line"/>
      <point x="113" y="608" type="line"/>
      <point x="188" y="608" type="line"/>
      <point x="149" y="438" type="line"/>
      <point x="74" y="438" type="line"/>
    </contour>
    <contour>
      <point x="75" y="373" type="line"/>
      <point x="86" y="422" type="line"/>
      <point x="161" y="422" type="line"/>
      <point x="208" y="624" type="line"/>
      <point x="133" y="624" type="line"/>
      <point x="143" y="672" type="line"/>
      <point x="282" y="672" type="line"/>
      <point x="225" y="422" type="line"/>
      <point x="291" y="422" type="line"/>
      <point x="280" y="373" type="line"/>
    </contour>
    <contour>
      <point x="411" y="-7" type="line"/>
      <point x="674" y="-7" type="line"/>
      <point x="693" y="75" type="line"/>
      <point x="599" y="75" type="line"/>
      <point x="687" y="156" type="line" smooth="yes"/>
      <point x="709" y="176"/>
      <point x="725" y="201"/>
      <point x="730" y="227" type="curve"/>
      <point x="745" y="289"/>
      <point x="703" y="342"/>
      <point x="638" y="342" type="curve" smooth="yes"/>
      <point x="575" y="342"/>
      <point x="511" y="292"/>
      <point x="496" y="231" type="curve"/>
      <point x="486" y="183"/>
      <point x="507" y="140"/>
      <point x="549" y="124" type="curve"/>
    </contour>
    <contour>
      <point x="451" y="9" type="line"/>
      <point x="581" y="132" type="line"/>
      <point x="530" y="136"/>
      <point x="501" y="178"/>
      <point x="512" y="227" type="curve" smooth="yes"/>
      <point x="525" y="281"/>
      <point x="582" y="326"/>
      <point x="638" y="326" type="curve" smooth="yes"/>
      <point x="693" y="326"/>
      <point x="727" y="283"/>
      <point x="714" y="231" type="curve"/>
      <point x="710" y="208"/>
      <point x="696" y="186"/>
      <point x="677" y="168" type="curve" smooth="yes"/>
      <point x="557" y="59" type="line"/>
      <point x="673" y="59" type="line"/>
      <point x="662" y="9" type="line"/>
    </contour>
    <contour>
      <point x="604" y="198" type="curve" smooth="yes"/>
      <point x="587" y="198"/>
      <point x="578" y="210"/>
      <point x="582" y="227" type="curve" smooth="yes"/>
      <point x="586" y="246"/>
      <point x="604" y="260"/>
      <point x="622" y="260" type="curve" smooth="yes"/>
      <point x="638" y="260"/>
      <point x="648" y="247"/>
      <point x="644" y="231" type="curve" smooth="yes"/>
      <point x="640" y="213"/>
      <point x="622" y="198"/>
    </contour>
    <contour>
      <point x="604" y="182" type="curve" smooth="yes"/>
      <point x="630" y="182"/>
      <point x="654" y="202"/>
      <point x="660" y="227" type="curve" smooth="yes"/>
      <point x="666" y="254"/>
      <point x="649" y="276"/>
      <point x="622" y="276" type="curve" smooth="yes"/>
      <point x="596" y="276"/>
      <point x="572" y="257"/>
      <point x="566" y="231" type="curve" smooth="yes"/>
      <point x="560" y="203"/>
      <point x="576" y="182"/>
    </contour>
  </outline>
</glyph>
<glyph name="threequarters" format="1">
  <advance width="653"/>
  <unicode hex="00BE"/>
  <note>
    threequarters
  </note>
  <outline>
    <contour>
      <point x="-11" y="-65" type="line"/>
      <point x="107" y="-65" type="line"/>
      <point x="742" y="708" type="line"/>
      <point x="624" y="708" type="line"/>
    </contour>
    <contour>
      <point x="23" y="-49" type="line"/>
      <point x="632" y="692" type="line"/>
      <point x="708" y="692" type="line"/>
      <point x="99" y="-49" type="line"/>
    </contour>
    <contour>
      <point x="437" y="-7" type="line"/>
      <point x="538" y="-7" type="line"/>
      <point x="582" y="183" type="line"/>
      <point x="468" y="183" type="line"/>
      <point x="584" y="335" type="line"/>
      <point x="483" y="335" type="line"/>
      <point x="298" y="102" type="line"/>
      <point x="462" y="102" type="line"/>
    </contour>
    <contour>
      <point x="457" y="9" type="line"/>
      <point x="482" y="118" type="line"/>
      <point x="332" y="118" type="line"/>
      <point x="491" y="319" type="line"/>
      <point x="552" y="319" type="line"/>
      <point x="436" y="167" type="line"/>
      <point x="562" y="167" type="line"/>
      <point x="526" y="9" type="line"/>
    </contour>
    <contour>
      <point x="193" y="331" type="curve" smooth="yes"/>
      <point x="277" y="331"/>
      <point x="344" y="377"/>
      <point x="360" y="446" type="curve" smooth="yes"/>
      <point x="370" y="492"/>
      <point x="345" y="535"/>
      <point x="303" y="550" type="curve"/>
      <point x="401" y="687" type="line"/>
      <point x="154" y="687" type="line"/>
      <point x="135" y="604" type="line"/>
      <point x="259" y="604" type="line"/>
      <point x="178" y="492" type="line"/>
      <point x="245" y="506"/>
      <point x="268" y="493"/>
      <point x="258" y="450" type="curve" smooth="yes"/>
      <point x="253" y="428"/>
      <point x="233" y="413"/>
      <point x="208" y="413" type="curve" smooth="yes"/>
      <point x="180" y="413"/>
      <point x="169" y="430"/>
      <point x="180" y="456" type="curve"/>
      <point x="78" y="456" type="line"/>
      <point x="57" y="382"/>
      <point x="105" y="331"/>
    </contour>
    <contour>
      <point x="193" y="347" type="curve" smooth="yes"/>
      <point x="121" y="347"/>
      <point x="81" y="384"/>
      <point x="91" y="440" type="curve"/>
      <point x="160" y="440" type="line"/>
      <point x="159" y="414"/>
      <point x="177" y="397"/>
      <point x="208" y="397" type="curve" smooth="yes"/>
      <point x="241" y="397"/>
      <point x="267" y="416"/>
      <point x="274" y="446" type="curve" smooth="yes"/>
      <point x="284" y="492"/>
      <point x="262" y="515"/>
      <point x="213" y="513" type="curve"/>
      <point x="291" y="620" type="line"/>
      <point x="155" y="620" type="line"/>
      <point x="166" y="671" type="line"/>
      <point x="369" y="671" type="line"/>
      <point x="276" y="540" type="line"/>
      <point x="324" y="535"/>
      <point x="354" y="494"/>
      <point x="344" y="450" type="curve" smooth="yes"/>
      <point x="330" y="389"/>
      <point x="269" y="347"/>
    </contour>
  </outline>
</glyph>
<glyph name="questiondown" format="1">
  <advance width="529"/>
  <unicode hex="00BF"/>
  <note>
    questiondown
  </note>
  <outline>
    <contour>
      <point x="251" y="-183" type="curve"/>
      <point x="279" y="-64" type="line"/>
      <point x="216" y="-69"/>
      <point x="178" y="-24"/>
      <point x="192" y="36" type="curve" smooth="yes"/>
      <point x="206" y="97"/>
      <point x="265" y="143"/>
      <point x="325" y="140" type="curve"/>
      <point x="365" y="311" type="line"/>
      <point x="241" y="311" type="line"/>
      <point x="222" y="230" type="line"/>
      <point x="144" y="191"/>
      <point x="84" y="118"/>
      <point x="65" y="40" type="curve" smooth="yes"/>
      <point x="37" y="-85"/>
      <point x="121" y="-186"/>
    </contour>
    <contour>
      <point x="239" y="-167" type="line"/>
      <point x="126" y="-164"/>
      <point x="55" y="-74"/>
      <point x="81" y="36" type="curve" smooth="yes"/>
      <point x="99" y="112"/>
      <point x="159" y="183"/>
      <point x="236" y="218" type="curve"/>
      <point x="253" y="295" type="line"/>
      <point x="345" y="295" type="line"/>
      <point x="313" y="156" type="line"/>
      <point x="249" y="153"/>
      <point x="191" y="103"/>
      <point x="176" y="40" type="curve" smooth="yes"/>
      <point x="162" y="-24"/>
      <point x="198" y="-75"/>
      <point x="259" y="-80" type="curve"/>
    </contour>
    <contour>
      <point x="320" y="363" type="curve" smooth="yes"/>
      <point x="369" y="363"/>
      <point x="415" y="400"/>
      <point x="426" y="449" type="curve" smooth="yes"/>
      <point x="438" y="500"/>
      <point x="408" y="539"/>
      <point x="357" y="539" type="curve" smooth="yes"/>
      <point x="308" y="539"/>
      <point x="262" y="502"/>
      <point x="250" y="453" type="curve" smooth="yes"/>
      <point x="239" y="404"/>
      <point x="271" y="363"/>
    </contour>
    <contour>
      <point x="320" y="379" type="curve" smooth="yes"/>
      <point x="281" y="379"/>
      <point x="257" y="410"/>
      <point x="266" y="449" type="curve" smooth="yes"/>
      <point x="276" y="491"/>
      <point x="316" y="523"/>
      <point x="357" y="523" type="curve" smooth="yes"/>
      <point x="398" y="523"/>
      <point x="420" y="494"/>
      <point x="410" y="453" type="curve" smooth="yes"/>
      <point x="401" y="411"/>
      <point x="361" y="379"/>
    </contour>
  </outline>
</glyph>
<glyph name="Agrave" format="1">
  <advance width="750"/>
  <unicode hex="00C0"/>
  <note>
    Agrave
  </note>
  <outline>
    <contour>
      <point x="-54" y="-8" type="line"/>
      <point x="93" y="-8" type="line"/>
      <point x="198" y="153" type="line"/>
      <point x="507" y="153" type="line"/>
      <point x="535" y="-8" type="line"/>
      <point x="679" y="-8" type="line"/>
      <point x="530" y="687" type="line"/>
      <point x="415" y="687" type="line"/>
    </contour>
    <contour>
      <point x="-24" y="8" type="line"/>
      <point x="423" y="671" type="line"/>
      <point x="518" y="671" type="line"/>
      <point x="659" y="8" type="line"/>
      <point x="549" y="8" type="line"/>
      <point x="521" y="169" type="line"/>
      <point x="190" y="169" type="line"/>
      <point x="85" y="8" type="line"/>
    </contour>
    <contour>
      <point x="275" y="271" type="line"/>
      <point x="440" y="520" type="line"/>
      <point x="487" y="271" type="line"/>
    </contour>
    <contour>
      <point x="245" y="255" type="line"/>
      <point x="507" y="255" type="line"/>
      <point x="448" y="562" type="line"/>
    </contour>
    <contour>
      <point x="427" y="740" type="line"/>
      <point x="544" y="740" type="line"/>
      <point x="488" y="927" type="line"/>
      <point x="336" y="927" type="line"/>
    </contour>
    <contour>
      <point x="437" y="756" type="line"/>
      <point x="362" y="911" type="line"/>
      <point x="476" y="911" type="line"/>
      <point x="522" y="756" type="line"/>
    </contour>
  </outline>
</glyph>
<glyph name="Acircumflex" format="1">
  <advance width="750"/>
  <unicode hex="00C2"/>
  <note>
    Acircumflex
  </note>
  <outline>
    <contour>
      <point x="-54" y="-8" type="line"/>
      <point x="93" y="-8" type="line"/>
      <point x="198" y="153" type="line"/>
      <point x="507" y="153" type="line"/>
      <point x="535" y="-8" type="line"/>
      <point x="679" y="-8" type="line"/>
      <point x="530" y="687" type="line"/>
      <point x="415" y="687" type="line"/>
    </contour>
    <contour>
      <point x="-24" y="8" type="line"/>
      <point x="423" y="671" type="line"/>
      <point x="518" y="671" type="line"/>
      <point x="659" y="8" type="line"/>
      <point x="549" y="8" type="line"/>
      <point x="521" y="169" type="line"/>
      <point x="190" y="169" type="line"/>
      <point x="85" y="8" type="line"/>
    </contour>
    <contour>
      <point x="275" y="271" type="line"/>
      <point x="440" y="520" type="line"/>
      <point x="487" y="271" type="line"/>
    </contour>
    <contour>
      <point x="245" y="255" type="line"/>
      <point x="507" y="255" type="line"/>
      <point x="448" y="562" type="line"/>
    </contour>
    <contour>
      <point x="305" y="740" type="line"/>
      <point x="426" y="740" type="line"/>
      <point x="501" y="817" type="line"/>
      <point x="539" y="740" type="line"/>
      <point x="657" y="740" type="line"/>
      <point x="584" y="927" type="line"/>
      <point x="462" y="927" type="line"/>
    </contour>
    <contour>
      <point x="339" y="756" type="line"/>
      <point x="470" y="911" type="line"/>
      <point x="574" y="911" type="line"/>
      <point x="633" y="756" type="line"/>
      <point x="549" y="756" type="line"/>
      <point x="505" y="845" type="line"/>
      <point x="420" y="756" type="line"/>
    </contour>
  </outline>
</glyph>
<glyph name="Atilde" format="1">
  <advance width="750"/>
  <unicode hex="00C3"/>
  <note>
    Atilde
  </note>
  <outline>
    <contour>
      <point x="-54" y="-8" type="line"/>
      <point x="93" y="-8" type="line"/>
      <point x="198" y="153" type="line"/>
      <point x="507" y="153" type="line"/>
      <point x="535" y="-8" type="line"/>
      <point x="679" y="-8" type="line"/>
      <point x="530" y="687" type="line"/>
      <point x="415" y="687" type="line"/>
    </contour>
    <contour>
      <point x="-24" y="8" type="line"/>
      <point x="423" y="671" type="line"/>
      <point x="518" y="671" type="line"/>
      <point x="659" y="8" type="line"/>
      <point x="549" y="8" type="line"/>
      <point x="521" y="169" type="line"/>
      <point x="190" y="169" type="line"/>
      <point x="85" y="8" type="line"/>
    </contour>
    <contour>
      <point x="275" y="271" type="line"/>
      <point x="440" y="520" type="line"/>
      <point x="487" y="271" type="line"/>
    </contour>
    <contour>
      <point x="245" y="255" type="line"/>
      <point x="507" y="255" type="line"/>
      <point x="448" y="562" type="line"/>
    </contour>
    <contour>
      <point x="555" y="735" type="curve" smooth="yes"/>
      <point x="608" y="735"/>
      <point x="654" y="779"/>
      <point x="682" y="855" type="curve"/>
      <point x="592" y="890" type="line"/>
      <point x="581" y="868"/>
      <point x="575" y="841"/>
      <point x="556" y="841" type="curve" smooth="yes"/>
      <point x="547" y="841"/>
      <point x="535" y="848"/>
      <point x="514" y="866" type="curve"/>
      <point x="509" y="868" type="line"/>
      <point x="527" y="868" type="line"/>
      <point x="528" y="869" type="line"/>
      <point x="511" y="869" type="line"/>
      <point x="496" y="881"/>
      <point x="473" y="895"/>
      <point x="441" y="895" type="curve" smooth="yes"/>
      <point x="388" y="895"/>
      <point x="342" y="851"/>
      <point x="314" y="775" type="curve"/>
      <point x="404" y="740" type="line"/>
      <point x="415" y="762"/>
      <point x="421" y="789"/>
      <point x="440" y="789" type="curve" smooth="yes"/>
      <point x="449" y="789"/>
      <point x="461" y="782"/>
      <point x="482" y="764" type="curve"/>
      <point x="487" y="762" type="line"/>
      <point x="469" y="762" type="line"/>
      <point x="468" y="761" type="line"/>
      <point x="485" y="761" type="line"/>
      <point x="500" y="749"/>
      <point x="523" y="735"/>
    </contour>
    <contour>
      <point x="555" y="751" type="curve" smooth="yes"/>
      <point x="533" y="751"/>
      <point x="515" y="758"/>
      <point x="493" y="775" type="curve"/>
      <point x="488" y="777" type="line"/>
      <point x="506" y="777" type="line"/>
      <point x="507" y="778" type="line"/>
      <point x="490" y="778" type="line"/>
      <point x="475" y="791"/>
      <point x="457" y="805"/>
      <point x="440" y="805" type="curve" smooth="yes"/>
      <point x="414" y="805"/>
      <point x="404" y="780"/>
      <point x="396" y="760" type="curve"/>
      <point x="334" y="784" type="line"/>
      <point x="360" y="845"/>
      <point x="399" y="879"/>
      <point x="441" y="879" type="curve" smooth="yes"/>
      <point x="463" y="879"/>
      <point x="481" y="872"/>
      <point x="503" y="855" type="curve"/>
      <point x="508" y="853" type="line"/>
      <point x="490" y="853" type="line"/>
      <point x="489" y="852" type="line"/>
      <point x="506" y="852" type="line"/>
      <point x="521" y="839"/>
      <point x="539" y="825"/>
      <point x="556" y="825" type="curve" smooth="yes"/>
      <point x="582" y="825"/>
      <point x="592" y="850"/>
      <point x="600" y="870" type="curve"/>
      <point x="662" y="846" type="line"/>
      <point x="636" y="785"/>
      <point x="597" y="751"/>
    </contour>
  </outline>
</glyph>
<glyph name="Adieresis" format="1">
  <advance width="750"/>
  <unicode hex="00C4"/>
  <note>
    Adieresis
  </note>
  <outline>
    <contour>
      <point x="-54" y="-8" type="line"/>
      <point x="93" y="-8" type="line"/>
      <point x="198" y="153" type="line"/>
      <point x="507" y="153" type="line"/>
      <point x="535" y="-8" type="line"/>
      <point x="679" y="-8" type="line"/>
      <point x="530" y="687" type="line"/>
      <point x="415" y="687" type="line"/>
    </contour>
    <contour>
      <point x="-24" y="8" type="line"/>
      <point x="423" y="671" type="line"/>
      <point x="518" y="671" type="line"/>
      <point x="659" y="8" type="line"/>
      <point x="549" y="8" type="line"/>
      <point x="521" y="169" type="line"/>
      <point x="190" y="169" type="line"/>
      <point x="85" y="8" type="line"/>
    </contour>
    <contour>
      <point x="275" y="271" type="line"/>
      <point x="440" y="520" type="line"/>
      <point x="487" y="271" type="line"/>
    </contour>
    <contour>
      <point x="245" y="255" type="line"/>
      <point x="507" y="255" type="line"/>
      <point x="448" y="562" type="line"/>
    </contour>
    <contour>
      <point x="385" y="752" type="curve" smooth="yes"/>
      <point x="419" y="752"/>
      <point x="452" y="779"/>
      <point x="460" y="813" type="curve" smooth="yes"/>
      <point x="468" y="849"/>
      <point x="445" y="879"/>
      <point x="410" y="879" type="curve" smooth="yes"/>
      <point x="375" y="879"/>
      <point x="341" y="851"/>
      <point x="333" y="817" type="curve" smooth="yes"/>
      <point x="325" y="782"/>
      <point x="349" y="752"/>
    </contour>
    <contour>
      <point x="385" y="768" type="curve" smooth="yes"/>
      <point x="359" y="768"/>
      <point x="343" y="788"/>
      <point x="349" y="813" type="curve" smooth="yes"/>
      <point x="355" y="840"/>
      <point x="383" y="863"/>
      <point x="410" y="863" type="curve" smooth="yes"/>
      <point x="435" y="863"/>
      <point x="450" y="843"/>
      <point x="444" y="817" type="curve" smooth="yes"/>
      <point x="438" y="790"/>
      <point x="411" y="768"/>
    </contour>
    <contour>
      <point x="577" y="752" type="curve" smooth="yes"/>
      <point x="611" y="752"/>
      <point x="644" y="779"/>
      <point x="652" y="813" type="curve" smooth="yes"/>
      <point x="660" y="849"/>
      <point x="637" y="879"/>
      <point x="602" y="879" type="curve" smooth="yes"/>
      <point x="567" y="879"/>
      <point x="533" y="851"/>
      <point x="525" y="817" type="curve" smooth="yes"/>
      <point x="517" y="782"/>
      <point x="541" y="752"/>
    </contour>
    <contour>
      <point x="577" y="768" type="curve" smooth="yes"/>
      <point x="551" y="768"/>
      <point x="535" y="788"/>
      <point x="541" y="813" type="curve" smooth="yes"/>
      <point x="547" y="840"/>
      <point x="575" y="863"/>
      <point x="602" y="863" type="curve" smooth="yes"/>
      <point x="627" y="863"/>
      <point x="642" y="843"/>
      <point x="636" y="817" type="curve" smooth="yes"/>
      <point x="630" y="790"/>
      <point x="603" y="768"/>
    </contour>
  </outline>
</glyph>
<glyph name="Aring" format="1">
  <advance width="750"/>
  <unicode hex="00C5"/>
  <note>
    Aring
  </note>
  <outline>
    <contour>
      <point x="-54" y="-8" type="line"/>
      <point x="93" y="-8" type="line"/>
      <point x="198" y="153" type="line"/>
      <point x="507" y="153" type="line"/>
      <point x="535" y="-8" type="line"/>
      <point x="679" y="-8" type="line"/>
      <point x="530" y="687" type="line"/>
      <point x="415" y="687" type="line"/>
    </contour>
    <contour>
      <point x="-24" y="8" type="line"/>
      <point x="423" y="671" type="line"/>
      <point x="518" y="671" type="line"/>
      <point x="659" y="8" type="line"/>
      <point x="549" y="8" type="line"/>
      <point x="521" y="169" type="line"/>
      <point x="190" y="169" type="line"/>
      <point x="85" y="8" type="line"/>
    </contour>
    <contour>
      <point x="275" y="271" type="line"/>
      <point x="440" y="520" type="line"/>
      <point x="487" y="271" type="line"/>
    </contour>
    <contour>
      <point x="245" y="255" type="line"/>
      <point x="507" y="255" type="line"/>
      <point x="448" y="562" type="line"/>
    </contour>
    <contour>
      <point x="481" y="735" type="curve" smooth="yes"/>
      <point x="542" y="735"/>
      <point x="602" y="783"/>
      <point x="616" y="843" type="curve" smooth="yes"/>
      <point x="630" y="906"/>
      <point x="591" y="957"/>
      <point x="529" y="957" type="curve" smooth="yes"/>
      <point x="468" y="957"/>
      <point x="409" y="909"/>
      <point x="395" y="847" type="curve" smooth="yes"/>
      <point x="381" y="784"/>
      <point x="418" y="735"/>
    </contour>
    <contour>
      <point x="481" y="751" type="curve" smooth="yes"/>
      <point x="429" y="751"/>
      <point x="399" y="791"/>
      <point x="411" y="843" type="curve" smooth="yes"/>
      <point x="423" y="898"/>
      <point x="475" y="941"/>
      <point x="529" y="941" type="curve" smooth="yes"/>
      <point x="581" y="941"/>
      <point x="612" y="900"/>
      <point x="600" y="847" type="curve" smooth="yes"/>
      <point x="588" y="794"/>
      <point x="535" y="751"/>
    </contour>
    <contour>
      <point x="498" y="823" type="curve" smooth="yes"/>
      <point x="486" y="823"/>
      <point x="480" y="831"/>
      <point x="483" y="843" type="curve"/>
      <point x="486" y="858"/>
      <point x="499" y="869"/>
      <point x="512" y="869" type="curve" smooth="yes"/>
      <point x="524" y="869"/>
      <point x="531" y="860"/>
      <point x="528" y="847" type="curve" smooth="yes"/>
      <point x="525" y="834"/>
      <point x="511" y="823"/>
    </contour>
    <contour>
      <point x="498" y="807" type="curve" smooth="yes"/>
      <point x="519" y="807"/>
      <point x="539" y="823"/>
      <point x="544" y="843" type="curve" smooth="yes"/>
      <point x="549" y="866"/>
      <point x="534" y="885"/>
      <point x="512" y="885" type="curve" smooth="yes"/>
      <point x="491" y="885"/>
      <point x="472" y="869"/>
      <point x="467" y="847" type="curve" smooth="yes"/>
      <point x="462" y="825"/>
      <point x="476" y="807"/>
    </contour>
  </outline>
</glyph>
<glyph name="AE" format="1">
  <advance width="1043"/>
  <unicode hex="00C6"/>
  <note>
    AE
  </note>
  <outline>
    <contour>
      <point x="-78" y="-8" type="line"/>
      <point x="79" y="-8" type="line"/>
      <point x="229" y="153" type="line"/>
      <point x="458" y="153" type="line"/>
      <point x="421" y="-8" type="line"/>
      <point x="939" y="-8" type="line"/>
      <point x="967" y="110" type="line"/>
      <point x="574" y="110" type="line"/>
      <point x="618" y="303" type="line"/>
      <point x="926" y="303" type="line"/>
      <point x="954" y="421" type="line"/>
      <point x="645" y="421" type="line"/>
      <point x="679" y="569" type="line"/>
      <point x="1067" y="569" type="line"/>
      <point x="1094" y="687" type="line"/>
      <point x="573" y="687" type="line"/>
    </contour>
    <contour>
      <point x="-42" y="8" type="line"/>
      <point x="579" y="671" type="line"/>
      <point x="1074" y="671" type="line"/>
      <point x="1055" y="585" type="line"/>
      <point x="667" y="585" type="line"/>
      <point x="625" y="405" type="line"/>
      <point x="934" y="405" type="line"/>
      <point x="914" y="319" type="line"/>
      <point x="606" y="319" type="line"/>
      <point x="554" y="94" type="line"/>
      <point x="947" y="94" type="line"/>
      <point x="927" y="8" type="line"/>
      <point x="441" y="8" type="line"/>
      <point x="478" y="169" type="line"/>
      <point x="223" y="169" type="line"/>
      <point x="73" y="8" type="line"/>
    </contour>
    <contour>
      <point x="340" y="271" type="line"/>
      <point x="533" y="478" type="line"/>
      <point x="486" y="271" type="line"/>
    </contour>
    <contour>
      <point x="304" y="255" type="line"/>
      <point x="498" y="255" type="line"/>
      <point x="563" y="532" type="line"/>
    </contour>
  </outline>
</glyph>
<glyph name="Ecircumflex" format="1">
  <advance width="642"/>
  <unicode hex="00CA"/>
  <note>
    Ecircumflex
  </note>
  <outline>
    <contour>
      <point x="20" y="-8" type="line"/>
      <point x="538" y="-8" type="line"/>
      <point x="566" y="110" type="line"/>
      <point x="173" y="110" type="line"/>
      <point x="217" y="303" type="line"/>
      <point x="525" y="303" type="line"/>
      <point x="553" y="421" type="line"/>
      <point x="244" y="421" type="line"/>
      <point x="278" y="569" type="line"/>
      <point x="666" y="569" type="line"/>
      <point x="693" y="687" type="line"/>
      <point x="181" y="687" type="line"/>
    </contour>
    <contour>
      <point x="40" y="8" type="line"/>
      <point x="193" y="671" type="line"/>
      <point x="673" y="671" type="line"/>
      <point x="654" y="585" type="line"/>
      <point x="266" y="585" type="line"/>
      <point x="224" y="405" type="line"/>
      <point x="533" y="405" type="line"/>
      <point x="513" y="319" type="line"/>
      <point x="205" y="319" type="line"/>
      <point x="153" y="94" type="line"/>
      <point x="546" y="94" type="line"/>
      <point x="526" y="8" type="line"/>
    </contour>
    <contour>
      <point x="255" y="740" type="line"/>
      <point x="376" y="740" type="line"/>
      <point x="451" y="817" type="line"/>
      <point x="489" y="740" type="line"/>
      <point x="607" y="740" type="line"/>
      <point x="534" y="927" type="line"/>
      <point x="412" y="927" type="line"/>
    </contour>
    <contour>
      <point x="289" y="756" type="line"/>
      <point x="420" y="911" type="line"/>
      <point x="524" y="911" type="line"/>
      <point x="583" y="756" type="line"/>
      <point x="499" y="756" type="line"/>
      <point x="455" y="845" type="line"/>
      <point x="370" y="756" type="line"/>
    </contour>
  </outline>
</glyph>
<glyph name="Edieresis" format="1">
  <advance width="642"/>
  <unicode hex="00CB"/>
  <note>
    Edieresis
  </note>
  <outline>
    <contour>
      <point x="20" y="-8" type="line"/>
      <point x="538" y="-8" type="line"/>
      <point x="566" y="110" type="line"/>
      <point x="173" y="110" type="line"/>
      <point x="217" y="303" type="line"/>
      <point x="525" y="303" type="line"/>
      <point x="553" y="421" type="line"/>
      <point x="244" y="421" type="line"/>
      <point x="278" y="569" type="line"/>
      <point x="666" y="569" type="line"/>
      <point x="693" y="687" type="line"/>
      <point x="181" y="687" type="line"/>
    </contour>
    <contour>
      <point x="40" y="8" type="line"/>
      <point x="193" y="671" type="line"/>
      <point x="673" y="671" type="line"/>
      <point x="654" y="585" type="line"/>
      <point x="266" y="585" type="line"/>
      <point x="224" y="405" type="line"/>
      <point x="533" y="405" type="line"/>
      <point x="513" y="319" type="line"/>
      <point x="205" y="319" type="line"/>
      <point x="153" y="94" type="line"/>
      <point x="546" y="94" type="line"/>
      <point x="526" y="8" type="line"/>
    </contour>
    <contour>
      <point x="335" y="752" type="curve" smooth="yes"/>
      <point x="369" y="752"/>
      <point x="402" y="779"/>
      <point x="410" y="813" type="curve" smooth="yes"/>
      <point x="418" y="849"/>
      <point x="395" y="879"/>
      <point x="360" y="879" type="curve" smooth="yes"/>
      <point x="325" y="879"/>
      <point x="291" y="851"/>
      <point x="283" y="817" type="curve" smooth="yes"/>
      <point x="275" y="782"/>
      <point x="299" y="752"/>
    </contour>
    <contour>
      <point x="335" y="768" type="curve" smooth="yes"/>
      <point x="309" y="768"/>
      <point x="293" y="788"/>
      <point x="299" y="813" type="curve" smooth="yes"/>
      <point x="305" y="840"/>
      <point x="333" y="863"/>
      <point x="360" y="863" type="curve" smooth="yes"/>
      <point x="385" y="863"/>
      <point x="400" y="843"/>
      <point x="394" y="817" type="curve" smooth="yes"/>
      <point x="388" y="790"/>
      <point x="361" y="768"/>
    </contour>
    <contour>
      <point x="527" y="752" type="curve" smooth="yes"/>
      <point x="561" y="752"/>
      <point x="594" y="779"/>
      <point x="602" y="813" type="curve" smooth="yes"/>
      <point x="610" y="849"/>
      <point x="587" y="879"/>
      <point x="552" y="879" type="curve" smooth="yes"/>
      <point x="517" y="879"/>
      <point x="483" y="851"/>
      <point x="475" y="817" type="curve" smooth="yes"/>
      <point x="467" y="782"/>
      <point x="491" y="752"/>
    </contour>
    <contour>
      <point x="527" y="768" type="curve" smooth="yes"/>
      <point x="501" y="768"/>
      <point x="485" y="788"/>
      <point x="491" y="813" type="curve" smooth="yes"/>
      <point x="497" y="840"/>
      <point x="525" y="863"/>
      <point x="552" y="863" type="curve" smooth="yes"/>
      <point x="577" y="863"/>
      <point x="592" y="843"/>
      <point x="586" y="817" type="curve" smooth="yes"/>
      <point x="580" y="790"/>
      <point x="553" y="768"/>
    </contour>
  </outline>
</glyph>
<glyph name="Igrave" format="1">
  <advance width="289"/>
  <unicode hex="00CC"/>
  <note>
    Igrave
  </note>
  <outline>
    <contour>
      <point x="20" y="-8" type="line"/>
      <point x="145" y="-8" type="line"/>
      <point x="306" y="687" type="line"/>
      <point x="181" y="687" type="line"/>
    </contour>
    <contour>
      <point x="40" y="8" type="line"/>
      <point x="193" y="671" type="line"/>
      <point x="286" y="671" type="line"/>
      <point x="133" y="8" type="line"/>
    </contour>
    <contour>
      <point x="201" y="740" type="line"/>
      <point x="318" y="740" type="line"/>
      <point x="262" y="927" type="line"/>
      <point x="110" y="927" type="line"/>
    </contour>
    <contour>
      <point x="211" y="756" type="line"/>
      <point x="136" y="911" type="line"/>
      <point x="250" y="911" type="line"/>
      <point x="296" y="756" type="line"/>
    </contour>
  </outline>
</glyph>
<glyph name="Iacute" format="1">
  <advance width="289"/>
  <unicode hex="00CD"/>
  <note>
    Iacute
  </note>
  <outline>
    <contour>
      <point x="20" y="-8" type="line"/>
      <point x="145" y="-8" type="line"/>
      <point x="306" y="687" type="line"/>
      <point x="181" y="687" type="line"/>
    </contour>
    <contour>
      <point x="40" y="8" type="line"/>
      <point x="193" y="671" type="line"/>
      <point x="286" y="671" type="line"/>
      <point x="133" y="8" type="line"/>
    </contour>
    <contour>
      <point x="194" y="740" type="line"/>
      <point x="314" y="740" type="line"/>
      <point x="491" y="927" type="line"/>
      <point x="335" y="927" type="line"/>
    </contour>
    <contour>
      <point x="226" y="756" type="line"/>
      <point x="343" y="911" type="line"/>
      <point x="453" y="911" type="line"/>
      <point x="308" y="756" type="line"/>
    </contour>
  </outline>
</glyph>
<glyph name="Icircumflex" format="1">
  <advance width="289"/>
  <unicode hex="00CE"/>
  <note>
    Icircumflex
  </note>
  <outline>
    <contour>
      <point x="20" y="-8" type="line"/>
      <point x="145" y="-8" type="line"/>
      <point x="306" y="687" type="line"/>
      <point x="181" y="687" type="line"/>
    </contour>
    <contour>
      <point x="40" y="8" type="line"/>
      <point x="193" y="671" type="line"/>
      <point x="286" y="671" type="line"/>
      <point x="133" y="8" type="line"/>
    </contour>
    <contour>
      <point x="79" y="740" type="line"/>
      <point x="200" y="740" type="line"/>
      <point x="275" y="817" type="line"/>
      <point x="313" y="740" type="line"/>
      <point x="431" y="740" type="line"/>
      <point x="358" y="927" type="line"/>
      <point x="236" y="927" type="line"/>
    </contour>
    <contour>
      <point x="113" y="756" type="line"/>
      <point x="244" y="911" type="line"/>
      <point x="348" y="911" type="line"/>
      <point x="407" y="756" type="line"/>
      <point x="323" y="756" type="line"/>
      <point x="279" y="845" type="line"/>
      <point x="194" y="756" type="line"/>
    </contour>
  </outline>
</glyph>
<glyph name="Ntilde" format="1">
  <advance width="771"/>
  <unicode hex="00D1"/>
  <note>
    Ntilde
  </note>
  <outline>
    <contour>
      <point x="20" y="-8" type="line"/>
      <point x="144" y="-8" type="line"/>
      <point x="261" y="494" type="line"/>
      <point x="495" y="-8" type="line"/>
      <point x="627" y="-8" type="line"/>
      <point x="788" y="687" type="line"/>
      <point x="664" y="687" type="line"/>
      <point x="549" y="194" type="line"/>
      <point x="317" y="687" type="line"/>
      <point x="181" y="687" type="line"/>
    </contour>
    <contour>
      <point x="40" y="8" type="line"/>
      <point x="193" y="671" type="line"/>
      <point x="307" y="671" type="line"/>
      <point x="555" y="146" type="line"/>
      <point x="676" y="671" type="line"/>
      <point x="768" y="671" type="line"/>
      <point x="615" y="8" type="line"/>
      <point x="505" y="8" type="line"/>
      <point x="255" y="542" type="line"/>
      <point x="132" y="8" type="line"/>
    </contour>
    <contour>
      <point x="570" y="735" type="curve" smooth="yes"/>
      <point x="623" y="735"/>
      <point x="669" y="779"/>
      <point x="697" y="855" type="curve"/>
      <point x="607" y="890" type="line"/>
      <point x="596" y="868"/>
      <point x="590" y="841"/>
      <point x="571" y="841" type="curve" smooth="yes"/>
      <point x="562" y="841"/>
      <point x="550" y="848"/>
      <point x="529" y="866" type="curve"/>
      <point x="524" y="868" type="line"/>
      <point x="542" y="868" type="line"/>
      <point x="543" y="869" type="line"/>
      <point x="526" y="869" type="line"/>
      <point x="511" y="881"/>
      <point x="488" y="895"/>
      <point x="456" y="895" type="curve" smooth="yes"/>
      <point x="403" y="895"/>
      <point x="357" y="851"/>
      <point x="329" y="775" type="curve"/>
      <point x="419" y="740" type="line"/>
      <point x="430" y="762"/>
      <point x="436" y="789"/>
      <point x="455" y="789" type="curve" smooth="yes"/>
      <point x="464" y="789"/>
      <point x="476" y="782"/>
      <point x="497" y="764" type="curve"/>
      <point x="502" y="762" type="line"/>
      <point x="484" y="762" type="line"/>
      <point x="483" y="761" type="line"/>
      <point x="500" y="761" type="line"/>
      <point x="515" y="749"/>
      <point x="538" y="735"/>
    </contour>
    <contour>
      <point x="570" y="751" type="curve" smooth="yes"/>
      <point x="548" y="751"/>
      <point x="530" y="758"/>
      <point x="508" y="775" type="curve"/>
      <point x="503" y="777" type="line"/>
      <point x="521" y="777" type="line"/>
      <point x="522" y="778" type="line"/>
      <point x="505" y="778" type="line"/>
      <point x="490" y="791"/>
      <point x="472" y="805"/>
      <point x="455" y="805" type="curve" smooth="yes"/>
      <point x="429" y="805"/>
      <point x="419" y="780"/>
      <point x="411" y="760" type="curve"/>
      <point x="349" y="784" type="line"/>
      <point x="375" y="845"/>
      <point x="414" y="879"/>
      <point x="456" y="879" type="curve" smooth="yes"/>
      <point x="478" y="879"/>
      <point x="496" y="872"/>
      <point x="518" y="855" type="curve"/>
      <point x="523" y="853" type="line"/>
      <point x="505" y="853" type="line"/>
      <point x="504" y="852" type="line"/>
      <point x="521" y="852" type="line"/>
      <point x="536" y="839"/>
      <point x="554" y="825"/>
      <point x="571" y="825" type="curve" smooth="yes"/>
      <point x="597" y="825"/>
      <point x="607" y="850"/>
      <point x="615" y="870" type="curve"/>
      <point x="677" y="846" type="line"/>
      <point x="651" y="785"/>
      <point x="612" y="751"/>
    </contour>
  </outline>
</glyph>
<glyph name="Otilde" format="1">
  <advance width="803"/>
  <unicode hex="00D5"/>
  <note>
    Otilde
  </note>
  <outline>
    <contour>
      <point x="338" y="-23" type="curve" smooth="yes"/>
      <point x="542" y="-26"/>
      <point x="741" y="135"/>
      <point x="785" y="338" type="curve" smooth="yes"/>
      <point x="835" y="542"/>
      <point x="709" y="706"/>
      <point x="502" y="703" type="curve" smooth="yes"/>
      <point x="298" y="706"/>
      <point x="100" y="546"/>
      <point x="56" y="342" type="curve" smooth="yes"/>
      <point x="6" y="137"/>
      <point x="131" y="-26"/>
    </contour>
    <contour>
      <point x="338" y="-7" type="curve" smooth="yes"/>
      <point x="141" y="-10"/>
      <point x="24" y="143"/>
      <point x="72" y="338" type="curve" smooth="yes"/>
      <point x="114" y="535"/>
      <point x="305" y="690"/>
      <point x="502" y="687" type="curve" smooth="yes"/>
      <point x="698" y="690"/>
      <point x="817" y="536"/>
      <point x="769" y="342" type="curve" smooth="yes"/>
      <point x="727" y="146"/>
      <point x="534" y="-10"/>
    </contour>
    <contour>
      <point x="362" y="96" type="curve" smooth="yes"/>
      <point x="224" y="96"/>
      <point x="151" y="195"/>
      <point x="184" y="338" type="curve" smooth="yes"/>
      <point x="217" y="483"/>
      <point x="340" y="585"/>
      <point x="478" y="585" type="curve" smooth="yes"/>
      <point x="616" y="585"/>
      <point x="690" y="485"/>
      <point x="656" y="342" type="curve" smooth="yes"/>
      <point x="623" y="196"/>
      <point x="502" y="96"/>
    </contour>
    <contour>
      <point x="362" y="80" type="curve" smooth="yes"/>
      <point x="510" y="80"/>
      <point x="637" y="186"/>
      <point x="672" y="338" type="curve" smooth="yes"/>
      <point x="707" y="491"/>
      <point x="627" y="601"/>
      <point x="478" y="601" type="curve" smooth="yes"/>
      <point x="332" y="601"/>
      <point x="203" y="493"/>
      <point x="168" y="342" type="curve" smooth="yes"/>
      <point x="133" y="189"/>
      <point x="213" y="80"/>
    </contour>
    <contour>
      <point x="586" y="735" type="curve" smooth="yes"/>
      <point x="639" y="735"/>
      <point x="685" y="779"/>
      <point x="713" y="855" type="curve"/>
      <point x="623" y="890" type="line"/>
      <point x="612" y="868"/>
      <point x="606" y="841"/>
      <point x="587" y="841" type="curve" smooth="yes"/>
      <point x="578" y="841"/>
      <point x="566" y="848"/>
      <point x="545" y="866" type="curve"/>
      <point x="540" y="868" type="line"/>
      <point x="558" y="868" type="line"/>
      <point x="559" y="869" type="line"/>
      <point x="542" y="869" type="line"/>
      <point x="527" y="881"/>
      <point x="504" y="895"/>
      <point x="472" y="895" type="curve" smooth="yes"/>
      <point x="419" y="895"/>
      <point x="373" y="851"/>
      <point x="345" y="775" type="curve"/>
      <point x="435" y="740" type="line"/>
      <point x="446" y="762"/>
      <point x="452" y="789"/>
      <point x="471" y="789" type="curve" smooth="yes"/>
      <point x="480" y="789"/>
      <point x="492" y="782"/>
      <point x="513" y="764" type="curve"/>
      <point x="518" y="762" type="line"/>
      <point x="500" y="762" type="line"/>
      <point x="499" y="761" type="line"/>
      <point x="516" y="761" type="line"/>
      <point x="531" y="749"/>
      <point x="554" y="735"/>
    </contour>
    <contour>
      <point x="586" y="751" type="curve" smooth="yes"/>
      <point x="564" y="751"/>
      <point x="546" y="758"/>
      <point x="524" y="775" type="curve"/>
      <point x="519" y="777" type="line"/>
      <point x="537" y="777" type="line"/>
      <point x="538" y="778" type="line"/>
      <point x="521" y="778" type="line"/>
      <point x="506" y="791"/>
      <point x="488" y="805"/>
      <point x="471" y="805" type="curve" smooth="yes"/>
      <point x="445" y="805"/>
      <point x="435" y="780"/>
      <point x="427" y="760" type="curve"/>
      <point x="365" y="784" type="line"/>
      <point x="391" y="845"/>
      <point x="430" y="879"/>
      <point x="472" y="879" type="curve" smooth="yes"/>
      <point x="494" y="879"/>
      <point x="512" y="872"/>
      <point x="534" y="855" type="curve"/>
      <point x="539" y="853" type="line"/>
      <point x="521" y="853" type="line"/>
      <point x="520" y="852" type="line"/>
      <point x="537" y="852" type="line"/>
      <point x="552" y="839"/>
      <point x="570" y="825"/>
      <point x="587" y="825" type="curve" smooth="yes"/>
      <point x="613" y="825"/>
      <point x="623" y="850"/>
      <point x="631" y="870" type="curve"/>
      <point x="693" y="846" type="line"/>
      <point x="667" y="785"/>
      <point x="628" y="751"/>
    </contour>
  </outline>
</glyph>
<glyph name="multiply" format="1">
  <advance width="677"/>
  <unicode hex="00D7"/>
  <note>
    multiply
  </note>
  <outline>
    <contour>
      <point x="157" y="100" type="line"/>
      <point x="344" y="252" type="line"/>
      <point x="461" y="100" type="line"/>
      <point x="563" y="183" type="line"/>
      <point x="446" y="335" type="line"/>
      <point x="633" y="487" type="line"/>
      <point x="567" y="572" type="line"/>
      <point x="380" y="420" type="line"/>
      <point x="263" y="572" type="line"/>
      <point x="161" y="489" type="line"/>
      <point x="278" y="337" type="line"/>
      <point x="91" y="185" type="line"/>
    </contour>
    <contour>
      <point x="159" y="122" type="line"/>
      <point x="113" y="183" type="line"/>
      <point x="300" y="335" type="line"/>
      <point x="183" y="487" type="line"/>
      <point x="261" y="550" type="line"/>
      <point x="378" y="398" type="line"/>
      <point x="565" y="550" type="line"/>
      <point x="611" y="489" type="line"/>
      <point x="424" y="337" type="line"/>
      <point x="541" y="185" type="line"/>
      <point x="463" y="122" type="line"/>
      <point x="346" y="274" type="line"/>
    </contour>
  </outline>
</glyph>
<glyph name="Uacute" format="1">
  <advance width="706"/>
  <unicode hex="00DA"/>
  <note>
    Uacute
  </note>
  <outline>
    <contour>
      <point x="290" y="-23" type="curve" smooth="yes"/>
      <point x="473" y="-23"/>
      <point x="597" y="77"/>
      <point x="639" y="257" type="curve" smooth="yes"/>
      <point x="738" y="687" type="line"/>
      <point x="613" y="687" type="line"/>
      <point x="515" y="263" type="line" smooth="yes"/>
      <point x="489" y="151"/>
      <point x="425" y="98"/>
      <point x="314" y="98" type="curve" smooth="yes"/>
      <point x="213" y="98"/>
      <point x="169" y="157"/>
      <point x="193" y="259" type="curve" smooth="yes"/>
      <point x="291" y="687" type="line"/>
      <point x="166" y="687" type="line"/>
      <point x="67" y="261" type="line" smooth="yes"/>
      <point x="25" y="79"/>
      <point x="106" y="-23"/>
    </contour>
    <contour>
      <point x="290" y="-7" type="curve" smooth="yes"/>
      <point x="116" y="-7"/>
      <point x="43" y="86"/>
      <point x="83" y="257" type="curve" smooth="yes"/>
      <point x="178" y="671" type="line"/>
      <point x="271" y="671" type="line"/>
      <point x="177" y="263" type="line" smooth="yes"/>
      <point x="151" y="150"/>
      <point x="203" y="82"/>
      <point x="314" y="82" type="curve" smooth="yes"/>
      <point x="432" y="82"/>
      <point x="503" y="140"/>
      <point x="531" y="259" type="curve" smooth="yes"/>
      <point x="625" y="671" type="line"/>
      <point x="718" y="671" type="line"/>
      <point x="623" y="261" type="line" smooth="yes"/>
      <point x="583" y="88"/>
      <point x="465" y="-7"/>
    </contour>
    <contour>
      <point x="402" y="740" type="line"/>
      <point x="522" y="740" type="line"/>
      <point x="699" y="927" type="line"/>
      <point x="543" y="927" type="line"/>
    </contour>
    <contour>
      <point x="434" y="756" type="line"/>
      <point x="551" y="911" type="line"/>
      <point x="661" y="911" type="line"/>
      <point x="516" y="756" type="line"/>
    </contour>
  </outline>
</glyph>
<glyph name="Yacute" format="1">
  <advance width="676"/>
  <unicode hex="00DD"/>
  <note>
    Yacute
  </note>
  <outline>
    <contour>
      <point x="213" y="-8" type="line"/>
      <point x="339" y="-8" type="line"/>
      <point x="408" y="287" type="line"/>
      <point x="771" y="687" type="line"/>
      <point x="609" y="687" type="line"/>
      <point x="364" y="413" type="line"/>
      <point x="245" y="687" type="line"/>
      <point x="105" y="687" type="line"/>
      <point x="283" y="290" type="line"/>
    </contour>
    <contour>
      <point x="233" y="8" type="line"/>
      <point x="299" y="292" type="line"/>
      <point x="129" y="671" type="line"/>
      <point x="235" y="671" type="line"/>
      <point x="360" y="383" type="line"/>
      <point x="617" y="671" type="line"/>
      <point x="735" y="671" type="line"/>
      <point x="394" y="295" type="line"/>
      <point x="327" y="8" type="line"/>
    </contour>
    <contour>
      <point x="387" y="740" type="line"/>
      <point x="507" y="740" type="line"/>
      <point x="684" y="927" type="line"/>
      <point x="528" y="927" type="line"/>
    </contour>
    <contour>
      <point x="419" y="756" type="line"/>
      <point x="536" y="911" type="line"/>
      <point x="646" y="911" type="line"/>
      <point x="501" y="756" type="line"/>
    </contour>
  </outline>
</glyph>
